/* XPM */
static char * attach_xpm[] = {
"24 24 87 1",
" 	c None",
".	c #A5A7A0",
"+	c #ACAFA9",
"@	c #9D9F9C",
"#	c #949793",
"$	c #B5B8B2",
"%	c #999C97",
"&	c #8C8F8A",
"*	c #A3A7A1",
"=	c #A9ACA6",
"-	c #B3B6B1",
";	c #8F918C",
">	c #B9BBB6",
",	c #AEB0AB",
"'	c #91938D",
")	c #9C9E9A",
"!	c #B0B2AD",
"~	c #B0B1AD",
"{	c #9CA09A",
"]	c #A8AAA4",
"^	c #C0C1BD",
"/	c #959692",
"(	c #B8BAB6",
"_	c #B2B4B0",
":	c #949592",
"<	c #ACADAA",
"[	c #A8A9A6",
"}	c #BEBFBD",
"|	c #929491",
"1	c #BDBFBB",
"2	c #8F918B",
"3	c #C0C1BF",
"4	c #A1A3A0",
"5	c #B3B4B2",
"6	c #B5B6B3",
"7	c #9EA29D",
"8	c #989B96",
"9	c #9A9C96",
"0	c #969893",
"a	c #BDBEBC",
"b	c #959894",
"c	c #B1B3AF",
"d	c #A9AAA7",
"e	c #A1A29E",
"f	c #A7A8A6",
"g	c #A5A7A3",
"h	c #BABBB8",
"i	c #959691",
"j	c #B1B2B0",
"k	c #8E908C",
"l	c #B2B3B1",
"m	c #B6B7B5",
"n	c #9D9D9A",
"o	c #ACAEAB",
"p	c #9A9C99",
"q	c #A2A2A0",
"r	c #A4A5A2",
"s	c #969894",
"t	c #A9AAA8",
"u	c #969793",
"v	c #B4B5B3",
"w	c #A8A9A7",
"x	c #A5A6A4",
"y	c #A1A19F",
"z	c #939390",
"A	c #9F9F9D",
"B	c #A3A4A2",
"C	c #8C8E8A",
"D	c #A6A7A5",
"E	c #9C9D9B",
"F	c #A2A3A0",
"G	c #A2A3A1",
"H	c #90938E",
"I	c #92948F",
"J	c #A1A29F",
"K	c #9C9D9A",
"L	c #A7A8A5",
"M	c #9A9D98",
"N	c #A4A5A3",
"O	c #8B8C87",
"P	c #949692",
"Q	c #92938F",
"R	c #6E706C",
"S	c #838582",
"T	c #878885",
"U	c #7E807D",
"V	c #5B5C59",
"                        ",
"                        ",
"                        ",
"               .+@      ",
"             #$%&*=     ",
"          -; >    ,'    ",
"         )! ~{    ]{    ",
"         ^ /(     _:    ",
"        <[ }|     1     ",
"       23 45     67     ",
"       68 3   9 0a      ",
"      bc de  fg hi      ",
"      jk2l   m no       ",
"     pq rs  tu v        ",
"     w  f  ix yp        ",
"    zA  B z[ CD         ",
"    /E  0BF  GH         ",
"    CB      IJ          ",
"     EK     L           ",
"      MN0OPLQ           ",
"       RSTUV            ",
"                        ",
"                        ",
"                        "};
