/* XPM */
static char * back_arrow_xpm[] = {
"24 24 158 2",
"  	c None",
". 	c #56A012",
"+ 	c #6EAD34",
"@ 	c #4F9906",
"# 	c #79B241",
"$ 	c #E8F6DC",
"% 	c #F1FCE6",
"& 	c #CFE6B8",
"* 	c #4D9A06",
"= 	c #78B23E",
"- 	c #E4F6D4",
"; 	c #D9F6BE",
"> 	c #D6F5B8",
", 	c #E2F8CD",
"' 	c #5AA218",
") 	c #76B139",
"! 	c #DEF4C8",
"~ 	c #CCF2A5",
"{ 	c #C7F19D",
"] 	c #C9F2A1",
"^ 	c #C2E89C",
"/ 	c #519B08",
"( 	c #73B036",
"_ 	c #D7F3BD",
": 	c #BDEF8E",
"< 	c #B7ED83",
"[ 	c #BAEE88",
"} 	c #BBE892",
"| 	c #5EA61A",
"1 	c #4E9A06",
"2 	c #4E9907",
"3 	c #4E9B07",
"4 	c #73B234",
"5 	c #D0F1B1",
"6 	c #AFEB74",
"7 	c #A8E968",
"8 	c #A9E96A",
"9 	c #CCF2A7",
"0 	c #CEF0AC",
"a 	c #CAEEA8",
"b 	c #C9EBA7",
"c 	c #B6DF90",
"d 	c #4D9A04",
"e 	c #6BAF2A",
"f 	c #CBEFA8",
"g 	c #A2E75F",
"h 	c #9AE551",
"i 	c #A7E866",
"j 	c #C8EFA1",
"k 	c #95CB60",
"l 	c #59A116",
"m 	c #9FDA63",
"n 	c #96E14D",
"o 	c #8EDF3F",
"p 	c #8FDF41",
"q 	c #90E043",
"r 	c #8EDF40",
"s 	c #BFEC93",
"t 	c #7DB843",
"u 	c #519A0E",
"v 	c #93D452",
"w 	c #8CDC3D",
"x 	c #83D92E",
"y 	c #85DA31",
"z 	c #9FE25E",
"A 	c #9BDB5E",
"B 	c #8DCE4D",
"C 	c #98D857",
"D 	c #90DD44",
"E 	c #88DB38",
"F 	c #B2E185",
"G 	c #4B9406",
"H 	c #4E950C",
"I 	c #8BD047",
"J 	c #81D72C",
"K 	c #77D41C",
"L 	c #7AD522",
"M 	c #A1E063",
"N 	c #66AB26",
"O 	c #498F06",
"P 	c #489006",
"Q 	c #499006",
"R 	c #4B9106",
"S 	c #99D460",
"T 	c #7FD729",
"U 	c #A8E36F",
"V 	c #529511",
"W 	c #4D910C",
"X 	c #8ACF47",
"Y 	c #80D72B",
"Z 	c #76D41B",
"` 	c #7BD623",
" .	c #B2E481",
"..	c #4E920F",
"+.	c #8FC55C",
"@.	c #93DE4C",
"#.	c #9DE05A",
"$.	c #5A9D1C",
"%.	c #4C8D0D",
"&.	c #8DD04A",
"*.	c #85DB31",
"=.	c #7CD821",
"-.	c #ACE673",
";.	c #5B9A22",
">.	c #438806",
",.	c #448706",
"'.	c #509013",
").	c #B7E38D",
"!.	c #85DB2F",
"~.	c #9DDF5C",
"{.	c #498C0B",
"].	c #48890C",
"^.	c #87C947",
"/.	c #95DA53",
"(.	c #80BA47",
"_.	c #428105",
":.	c #49860B",
"<.	c #A1D172",
"[.	c #BAE490",
"}.	c #BBE592",
"|.	c #BDEA90",
"1.	c #99E351",
"2.	c #81DC28",
"3.	c #85DD30",
"4.	c #8CCD4E",
"5.	c #428205",
"6.	c #3E7E05",
"7.	c #407E05",
"8.	c #3F7E03",
"9.	c #87BC55",
"0.	c #ABE970",
"a.	c #86DF2F",
"b.	c #87DF31",
"c.	c #9CE259",
"d.	c #529319",
"e.	c #74AF3C",
"f.	c #9CE653",
"g.	c #8AE234",
"h.	c #8BE236",
"i.	c #95E546",
"j.	c #9DDE5D",
"k.	c #5F9C24",
"l.	c #3C7704",
"m.	c #407A07",
"n.	c #79B73D",
"o.	c #91D153",
"p.	c #91D152",
"q.	c #89C64F",
"r.	c #71AE36",
"s.	c #447C0E",
"t.	c #264C05",
"u.	c #3B7503",
"v.	c #3B7404",
"w.	c #3A7404",
"x.	c #386F04",
"y.	c #366C04",
"z.	c #306203",
"A.	c #234100",
"                                                ",
"                                                ",
"                                                ",
"              . + @                             ",
"            # $ % & *                           ",
"          = - ; > , '                           ",
"        ) ! ~ { ] ^ /                           ",
"      ( _ : < [ } | 1 2 2 2 2 2 2 * 3           ",
"    4 5 6 7 8 9 0 a a a a a a a a b c 4 d       ",
"  e f g h h h h h h h h h h h h h h i j k *     ",
"  l m n o o p q q q q q q q q q q o o r s t     ",
"    u v w x y z A B B B B B B B B C D x E F G   ",
"      H I J K L M N O P P P P P Q R S T K U V   ",
"        W X Y Z `  ...              +.@.Z #.$.  ",
"          %.&.*.=.-.;.  >.,.,.,.,.'.).!.=.~.{.  ",
"            ].^./.(._.:.<.[.}.}.[.|.1.2.3.4.5.  ",
"              6.7.8.  9.0.a.a.a.a.a.a.b.c.d.    ",
"                      e.f.g.g.g.g.h.i.j.k.l.    ",
"                      m.n.o.p.p.p.q.r.s.t.      ",
"                        u.v.w.x.y.z.A.          ",
"                                                ",
"                                                ",
"                                                ",
"                                                "};
