/* XPM */
static char * bookmark_add_xpm[] = {
"24 24 155 2",
"  	c None",
". 	c #63697A",
"+ 	c #5A637D",
"@ 	c #5A637C",
"# 	c #ABABAB",
"$ 	c #606881",
"% 	c #7E8EA4",
"& 	c #A1B2C7",
"* 	c #A0B1C7",
"= 	c #5C6783",
"- 	c #8D8D8D",
"; 	c #D9D9D9",
"> 	c #DCDCDC",
", 	c #ABB2BF",
"' 	c #58698E",
") 	c #7C92B0",
"! 	c #7A91AF",
"~ 	c #697694",
"{ 	c #C9C9C9",
"] 	c #D1D1D1",
"^ 	c #D0D0D0",
"/ 	c #CFCFCF",
"( 	c #CECECE",
"_ 	c #868686",
": 	c #969696",
"< 	c #EEEEEE",
"[ 	c #DFDFDF",
"} 	c #E1E1E1",
"| 	c #677592",
"1 	c #607DA1",
"2 	c #59779D",
"3 	c #64718E",
"4 	c #D2D2D2",
"5 	c #E4E4E4",
"6 	c #EAEAEA",
"7 	c #9F9F9F",
"8 	c #949494",
"9 	c #E0E0E0",
"0 	c #E2E2E2",
"a 	c #697795",
"b 	c #657E9F",
"c 	c #597497",
"d 	c #5A7498",
"e 	c #667E9F",
"f 	c #64728E",
"g 	c #CDCDCD",
"h 	c #DEDEDE",
"i 	c #E6E6E6",
"j 	c #EBEBEB",
"k 	c #EFEFEF",
"l 	c #E3E3E3",
"m 	c #6B7895",
"n 	c #657D9A",
"o 	c #597292",
"p 	c #657C9A",
"q 	c #63718D",
"r 	c #C6C6C6",
"s 	c #D5D5D5",
"t 	c #D7D7D7",
"u 	c #E7E7E7",
"v 	c #ECECEC",
"w 	c #919191",
"x 	c #6D7A97",
"y 	c #657B96",
"z 	c #59708E",
"A 	c #657A96",
"B 	c #63718C",
"C 	c #D6D6D6",
"D 	c #E8E8E8",
"E 	c #EDEDED",
"F 	c #8F8F8F",
"G 	c #F0F0F0",
"H 	c #E5E5E5",
"I 	c #6E7C98",
"J 	c #6E84A2",
"K 	c #627A9A",
"L 	c #6D83A1",
"M 	c #D4D4D4",
"N 	c #717E9B",
"O 	c #7990AE",
"P 	c #6E87A7",
"Q 	c #788FAD",
"R 	c #66738F",
"S 	c #CACACA",
"T 	c #DBDBDB",
"U 	c #8B8B8B",
"V 	c #74809E",
"W 	c #839BB9",
"X 	c #7993B3",
"Y 	c #829BB8",
"Z 	c #697592",
"` 	c #9E9E9E",
" .	c #898989",
"..	c #7683A0",
"+.	c #889FBC",
"@.	c #7E97B7",
"#.	c #879EBC",
"$.	c #6D7A96",
"%.	c #878787",
"&.	c #7A87A2",
"*.	c #8DA3C0",
"=.	c #859DBC",
"-.	c #8EA5C1",
";.	c #717E99",
">.	c #D3D3D3",
",.	c #F1F1F1",
"'.	c #858585",
").	c #E9E9E9",
"!.	c #7C89A5",
"~.	c #90A6C2",
"{.	c #8196B4",
"].	c #627193",
"^.	c #8397B4",
"/.	c #7A86A2",
"(.	c #F2F2F2",
"_.	c #9C9C9C",
":.	c #838383",
"<.	c #7F8BA6",
"[.	c #8394B2",
"}.	c #8C95AC",
"|.	c #8F98AE",
"1.	c #8194B2",
"2.	c #7D89A5",
"3.	c #F3F3F3",
"4.	c #999999",
"5.	c #818181",
"6.	c #7D89A6",
"7.	c #9AA1B2",
"8.	c #DADADA",
"9.	c #9EA4B5",
"0.	c #76809D",
"a.	c #7E7E7E",
"b.	c #E4E5E7",
"c.	c #DDDDDD",
"d.	c #D6D7D8",
"e.	c #F5F5F5",
"f.	c #F4F4F4",
"g.	c #7C7C7C",
"h.	c #D8D8D8",
"i.	c #F6F6F6",
"j.	c #9A9A9A",
"k.	c #7A7A7A",
"l.	c #777777",
"m.	c #F9F9F9",
"n.	c #F8F8F8",
"o.	c #767676",
"p.	c #F7F7F7",
"q.	c #707070",
"r.	c #666666",
"s.	c #C3C3C3",
"t.	c #C7C7C7",
"u.	c #C8C8C8",
"v.	c #6D6D6D",
"w.	c #6B6B6B",
"x.	c #6C6C6C",
"              . + + + + @                       ",
"        # # $ % & & & & * = # # # # # #         ",
"      - ; > , ' ) ! ! ! ) ~ { ] ^ / ( ( _       ",
"      : < [ } | 1 2 2 2 1 3 4 5 5 5 5 6 7       ",
"      8 < 9 0 a b c d d e f g h h h i j 7       ",
"      8 k } l m n o o o p q r s s t u v 7       ",
"      w k 0 5 x y z z z A B r s s C D E 7       ",
"      F G l H I J K K K L f r M M t 6 < 7       ",
"      - k 5 i N O P P P Q R S t t T j < 7       ",
"      U G H u V W X X X Y Z { s s ; E k `       ",
"       .G i u ..+.@.@.@.#.$./ ; ; T < G `       ",
"      %.G i D &.*.=.-.=.*.;.>.T T h k ,.`       ",
"      '.,.u ).!.~.{.].^.~./.6 (.(.,.,.(._.      ",
"      :.,.D ).<.[.}.T |.1.2.< 3.3.3.(.3.4.      ",
"      5.G D 6 6.7.C 8.T 9.0.T h h } 3.3.4.      ",
"      a.G ).6 b.h 8.T > c.d.h [ [ 0 e.f.4.      ",
"      g.G ).6 v > C t h.; 8.T T T 9 i.e.j.      ",
"      k.G ).j v [ 8.> > h [ 9 } 0 H i.i.j.      ",
"      l.,.).j v [ 8.> c.h [ 9 m.m.n.i.i.j.      ",
"      o.k ).j v < k ,.(.f.e.p.n.n.p.i.e.j.      ",
"      q.k ).6 v E k G (.3.e.i.p.p.i.e.e.:       ",
"      r.s.r r r t.t.t.u.u.u.{ { { { u.S l.      ",
"        v.w.w.w.w.w.w.w.w.w.w.w.w.w.w.x.        ",
"                                                "};
