/* XPM */
static char * cancel_xpm[] = {
"24 24 210 2",
"  	c None",
". 	c #950404",
"+ 	c #CA4E4E",
"@ 	c #D45757",
"# 	c #D45656",
"$ 	c #D45555",
"% 	c #D45353",
"& 	c #D35151",
"* 	c #CD4A4A",
"= 	c #9A0707",
"- 	c #910404",
"; 	c #D35858",
"> 	c #DE5151",
", 	c #D94242",
"' 	c #D94141",
") 	c #D94040",
"! 	c #D83E3E",
"~ 	c #D83D3D",
"{ 	c #DC4343",
"] 	c #D95555",
"^ 	c #950303",
"/ 	c #D55959",
"( 	c #DF5353",
"_ 	c #DA4545",
": 	c #DA4444",
"< 	c #D94343",
"[ 	c #D83C3C",
"} 	c #DB4242",
"| 	c #D65151",
"1 	c #960404",
"2 	c #D45959",
"3 	c #DF5252",
"4 	c #DA4646",
"5 	c #DA4747",
"6 	c #D93F3F",
"7 	c #D83B3B",
"8 	c #D24A4A",
"9 	c #D45858",
"0 	c #DF5151",
"a 	c #E84242",
"b 	c #E84141",
"c 	c #E13A3A",
"d 	c #EB3939",
"e 	c #D73A3A",
"f 	c #D43939",
"g 	c #D74040",
"h 	c #D14848",
"i 	c #940404",
"j 	c #8A0000",
"k 	c #D35555",
"l 	c #DD4C4C",
"m 	c #E83E3E",
"n 	c #E3A4A4",
"o 	c #E6A4A4",
"p 	c #E84040",
"q 	c #E13B3B",
"r 	c #EB7373",
"s 	c #E0CBCB",
"t 	c #EB4444",
"u 	c #D43838",
"v 	c #D23737",
"w 	c #D43E3E",
"x 	c #CA3D3D",
"y 	c #860000",
"z 	c #880000",
"A 	c #DB5B5B",
"B 	c #EE4545",
"C 	c #E2D3D3",
"D 	c #E2E2E2",
"E 	c #E9A8A8",
"F 	c #E84343",
"G 	c #E13F3F",
"H 	c #EC8080",
"I 	c #E0DFDF",
"J 	c #ED6565",
"K 	c #D53636",
"L 	c #D03636",
"M 	c #CE3434",
"N 	c #D24444",
"O 	c #DB5A5A",
"P 	c #DA4040",
"Q 	c #EF5353",
"R 	c #E8DADA",
"S 	c #E7E7E7",
"T 	c #EDB1B1",
"U 	c #EE8E8E",
"V 	c #E6E5E5",
"W 	c #EE7272",
"X 	c #D73B3B",
"Y 	c #D03737",
"Z 	c #CE3535",
"` 	c #CC3333",
" .	c #D14242",
"..	c #DB5959",
"+.	c #DA3F3F",
"@.	c #F05D5D",
"#.	c #ECDEDE",
"$.	c #ECECEC",
"%.	c #EBEAEA",
"&.	c #F07D7D",
"*.	c #CE3636",
"=.	c #CC3434",
"-.	c #CB3232",
";.	c #D04141",
">.	c #DA5858",
",.	c #D83A3A",
"'.	c #E24747",
").	c #F2A9A9",
"!.	c #F0F0F0",
"~.	c #F0D8D8",
"{.	c #E85454",
"].	c #CA1C1C",
"^.	c #C51010",
"/.	c #C10606",
"(.	c #BF0303",
"_.	c #BC0101",
":.	c #C51A1A",
"<.	c #DA5656",
"[.	c #D73838",
"}.	c #D73939",
"|.	c #E14848",
"1.	c #F39E9E",
"2.	c #F2F2F2",
"3.	c #F4F3F3",
"4.	c #F4F1F1",
"5.	c #F3F3F3",
"6.	c #F2C4C4",
"7.	c #DD4444",
"8.	c #BF0000",
"9.	c #BE0000",
"0.	c #BC0000",
"a.	c #BA0000",
"b.	c #C51818",
"c.	c #DA5353",
"d.	c #D73535",
"e.	c #D73636",
"f.	c #D73737",
"g.	c #E14A4A",
"h.	c #F2A4A4",
"i.	c #F6F5F5",
"j.	c #F39191",
"k.	c #F7EEEE",
"l.	c #F0C7C7",
"m.	c #B80000",
"n.	c #C31717",
"o.	c #D95656",
"p.	c #D63434",
"q.	c #F28686",
"r.	c #F0EFEF",
"s.	c #F39696",
"t.	c #CC1414",
"u.	c #C40404",
"v.	c #ED7B7B",
"w.	c #F6EFEF",
"x.	c #F1F1F1",
"y.	c #F0A6A6",
"z.	c #C00F0F",
"A.	c #B70000",
"B.	c #C31616",
"C.	c #A71A1A",
"D.	c #E05454",
"E.	c #D52B2B",
"F.	c #D22424",
"G.	c #D62A2A",
"H.	c #F09C9C",
"I.	c #F29B9B",
"J.	c #CC1616",
"K.	c #C20000",
"L.	c #C10000",
"M.	c #C10404",
"N.	c #EB8484",
"O.	c #F2BFBF",
"P.	c #D34242",
"Q.	c #C51111",
"R.	c #A40E0E",
"S.	c #D72F2F",
"T.	c #CA0202",
"U.	c #C70000",
"V.	c #CE1717",
"W.	c #CB1515",
"X.	c #BD0000",
"Y.	c #BE0404",
"Z.	c #C92626",
"`.	c #C51313",
" +	c #A20C0C",
".+	c #D62D2D",
"++	c #C70202",
"@+	c #C40000",
"#+	c #BB0000",
"$+	c #B60000",
"%+	c #920A0A",
"&+	c #D22A2A",
"*+	c #C30202",
"=+	c #C00000",
"-+	c #C51515",
";+	c #880A0A",
">+	c #CF2929",
",+	c #D22222",
"'+	c #D12121",
")+	c #CF1F1F",
"!+	c #CE1D1D",
"~+	c #CD1D1D",
"{+	c #CB1B1B",
"]+	c #CB1C1C",
"^+	c #660000",
"/+	c #6D0000",
"(+	c #690000",
"_+	c #670000",
":+	c #6B0000",
"<+	c #6A0000",
"                                                ",
"                                                ",
"                . . . . . . . .                 ",
"              . + @ # # $ % & * =               ",
"            - ; > , , ' ) ! ~ { ] ^             ",
"          - / ( _ _ : < ' ) ! [ } | .           ",
"        1 2 3 4 5 5 4 : , ' 6 ~ 7 , 8 -         ",
"      1 9 0 _ 5 a b 5 _ < ' c d e f g h i       ",
"    j k l , : m n o p : , q r s t u v w x y     ",
"    z A ) ' < B C D E F G H D I J K L M N y     ",
"    z O ! 6 ) P Q R S T U S V W X Y Z `  .y     ",
"    z ..[ ~ ! 6 +.@.#.$.$.%.&.~ Y *.=.-.;.y     ",
"    z >.,.7 [ [ ~ '.).!.!.~.{.].^./.(._.:.y     ",
"    z <.[.}.}.,.|.1.2.3.4.5.6.7.8.9.0.a.b.y     ",
"    z c.d.e.f.g.h.2.i.j.W k.5.l.5 0.a.m.n.y     ",
"    y o.d.p.p.q.r.3.s.t.u.v.w.x.y.z.m.A.B.y     ",
"      C.D.E.F.G.H.I.J.K.L.M.N.O.P.m.A.Q.y       ",
"        R.S.T.U.V.W.K.L.8.X.Y.Z.m.A.`.y         ",
"           +.+++@+K.L.8.X.#+a.m.$+`.y           ",
"            %+&+*+=+8.X.#+a.m.$+-+y             ",
"              ;+>+,+'+)+!+~+{+]+y               ",
"                ^+/+(+_+_+^+:+<+                ",
"                                                ",
"                                                "};
