/* XPM */
static char * close_xpm[] = {
"24 24 64 1",
" 	c None",
".	c #572323",
"+	c #CF6F6F",
"@	c #944444",
"#	c #914141",
"$	c #924343",
"%	c #934343",
"&	c #9A4949",
"*	c #8D3F3F",
"=	c #934545",
"-	c #954646",
";	c #9A4848",
">	c #9B4A4A",
",	c #914343",
"'	c #974848",
")	c #994848",
"!	c #9B4B4B",
"~	c #A04D4D",
"{	c #944747",
"]	c #9A4C4C",
"^	c #9B4C4C",
"/	c #9D4C4C",
"(	c #A15050",
"_	c #974A4A",
":	c #9E5050",
"<	c #9F5050",
"[	c #A14F4F",
"}	c #A35353",
"|	c #984B4B",
"1	c #9C4F4F",
"2	c #9A4D4D",
"3	c #A25252",
"4	c #8A4948",
"5	c #8E4949",
"6	c #894646",
"7	c #8E4B4A",
"8	c #8F4A4A",
"9	c #8B4646",
"0	c #904949",
"a	c #904545",
"b	c #8B4242",
"c	c #954B4A",
"d	c #974C4C",
"e	c #8D4343",
"f	c #904444",
"g	c #552222",
"h	c #8C4040",
"i	c #974949",
"j	c #9A4B4B",
"k	c #8D4040",
"l	c #904242",
"m	c #8C3E3E",
"n	c #8A3C3C",
"o	c #954747",
"p	c #8E4040",
"q	c #883A3A",
"r	c #8F4242",
"s	c #5D2626",
"t	c #954848",
"u	c #914444",
"v	c #5A2525",
"w	c #924646",
"x	c #542222",
"y	c #582424",
"                        ",
"                        ",
"                        ",
"    ....        ....    ",
"   ..++..      ..++..   ",
"   .+@#+..    ..+$%+.   ",
"   .+&*=+..  ..+-*;+.   ",
"   ..+>,'+....+),!+..   ",
"    ..+~{]+..+^{/+..    ",
"     ..+(_:++<_[+..     ",
"      ..+}|1123+..      ",
"       ..+|||2+..       ",
"       ..+|||4+..       ",
"      ..+567890+..      ",
"     ..+abc++def+..     ",
"    g.+,hi+..+jkl+..    ",
"   ..+mn=+....+onm+..   ",
"   .+pqr+s.  ..+,q*+.   ",
"   .+tu+v.    ..+w{+.   ",
"   .x++y.      ..++..   ",
"    ....        ....    ",
"                        ",
"                        ",
"                        "};
