/* XPM */
static char * connect_xpm[] = {
"24 24 66 1",
" 	c None",
".	c #888A85",
"+	c #FFFFFF",
"@	c #FCFCFC",
"#	c #FBFBFA",
"$	c #FAFBFA",
"%	c #FAFAFA",
"&	c #F9FAF9",
"*	c #FAFAF9",
"=	c #F9F9F8",
"-	c #FBFCFB",
";	c #F7F7F6",
">	c #F8F9F8",
",	c #F8F8F7",
"'	c #F8F9F7",
")	c #FEFEFE",
"!	c #F6F7F5",
"~	c #F5F6F4",
"{	c #F7F8F6",
"]	c #C4C7C1",
"^	c #C5C7C1",
"/	c #FDFDFD",
"(	c #F4F5F3",
"_	c #F4F5F4",
":	c #3465A4",
"<	c #3A6296",
"[	c #FCFDFC",
"}	c #F2F3F1",
"|	c #8EB0D5",
"1	c #F0F2EF",
"2	c #F1F2EF",
"3	c #EFF1EE",
"4	c #90B1D6",
"5	c #E9EAE9",
"6	c #EAEAE9",
"7	c #EBEBEA",
"8	c #EEF0ED",
"9	c #EEEFEC",
"0	c #9DBCDE",
"a	c #ECEEEB",
"b	c #EDEFEB",
"c	c #EDEEEB",
"d	c #ECEEEA",
"e	c #ECEDEA",
"f	c #92B3D8",
"g	c #DEE3E8",
"h	c #F5F5F4",
"i	c #94B4D8",
"j	c #848681",
"k	c #878984",
"l	c #96B6D9",
"m	c #97B7DA",
"n	c #9DBCDD",
"o	c #95B6D9",
"p	c #32619F",
"q	c #3767A5",
"r	c #3767A4",
"s	c #4270AA",
"t	c #3667A5",
"u	c #3465A3",
"v	c #2C558B",
"w	c #3D6CA8",
"x	c #32619C",
"y	c #3262A0",
"z	c #2D5890",
"A	c #244773",
"                        ",
"        ...........     ",
"       .+++++++++++.    ",
"       .+@@@#$$#%%&.    ",
"       .+*=-...;>,,.    ",
"       .+',).+.**!;.    ",
"       .+~{.]]^./(_.    ",
"       .+(!.::<.[}}.    ",
"       .+}(:|:..@12.    ",
"       .+3:4:567(89.    ",
"       .+:0:abcacde.    ",
"       .:f:g~~~~h_(.    ",
"       :i:jkkkkkkkk     ",
"      :0:               ",
"     :l:                ",
"    :m:        ::::::   ",
"   :n:      :::oooooo:  ",
"  po:   ::::ooo:qrpso:  ",
"  :o:t::ooo:uv:   wox   ",
"   ::::y:::      roz    ",
"                roA     ",
"               roA      ",
"              roA       ",
"             roA        "};
