/* XPM */
static char * connect_to_url_xpm[] = {
"24 24 198 2",
"  	c None",
". 	c #39396C",
"+ 	c #CDDFF3",
"@ 	c #BED4EC",
"# 	c #B9D1E9",
"$ 	c #B3CBE6",
"% 	c #AAC5E1",
"& 	c #B9C9DC",
"* 	c #B1CEEC",
"= 	c #577BAB",
"- 	c #6889B3",
"; 	c #6989B3",
"> 	c #A1C0E0",
", 	c #87ADD5",
"' 	c #7AA2CE",
") 	c #D2DBE8",
"! 	c #839EC1",
"~ 	c #6284B0",
"{ 	c #6082AF",
"] 	c #839EC2",
"^ 	c #9CB1CD",
"/ 	c #D3E2F3",
"( 	c #C1D6EC",
"_ 	c #FFFFFF",
": 	c #EEF2F7",
"< 	c #B9D0E9",
"[ 	c #456EA1",
"} 	c #39639B",
"| 	c #346098",
"1 	c #90A8C8",
"2 	c #E1F0FF",
"3 	c #EBF5FF",
"4 	c #356199",
"5 	c #315D96",
"6 	c #2C5994",
"7 	c #8EA6C6",
"8 	c #BAC9DD",
"9 	c #B0C2D8",
"0 	c #E0EFFF",
"a 	c #DCEEFF",
"b 	c #EFF7FF",
"c 	c #EBF3FC",
"d 	c #D9E7F6",
"e 	c #7996BC",
"f 	c #446DA1",
"g 	c #3B659C",
"h 	c #7F9BBF",
"i 	c #6B8BB5",
"j 	c #8DA6C6",
"k 	c #98AECB",
"l 	c #D9ECFF",
"m 	c #DEEFFF",
"n 	c #E3F0FE",
"o 	c #DAE9F9",
"p 	c #C8DDF2",
"q 	c #5C7FAD",
"r 	c #90B3DA",
"s 	c #7FA6D1",
"t 	c #366199",
"u 	c #315D97",
"v 	c #285691",
"w 	c #7D99BE",
"x 	c #466EA2",
"y 	c #597CAC",
"z 	c #CCE3F9",
"A 	c #D5EAFF",
"B 	c #D3E9FF",
"C 	c #D4EAFF",
"D 	c #D0E6FB",
"E 	c #C4DCF4",
"F 	c #B1CDEB",
"G 	c #436BA0",
"H 	c #3E689E",
"I 	c #3A649C",
"J 	c #305D96",
"K 	c #C7D2E2",
"L 	c #E0E7F0",
"M 	c #ABC8E7",
"N 	c #BDD6EF",
"O 	c #C6DDF4",
"P 	c #CDE4FB",
"Q 	c #CDE5FC",
"R 	c #C8E0F9",
"S 	c #BFD9F4",
"T 	c #B3CFED",
"U 	c #456DA2",
"V 	c #416AA0",
"W 	c #3D679D",
"X 	c #38639B",
"Y 	c #345F98",
"Z 	c #2F5C96",
"` 	c #2B5893",
" .	c #285590",
"..	c #CFE0F1",
"+.	c #859FC2",
"@.	c #CBDFF4",
"#.	c #BED8F3",
"$.	c #BDD8F3",
"%.	c #B9D4F1",
"&.	c #B2CEED",
"*.	c #A8C6E7",
"=.	c #3F689E",
"-.	c #37629A",
";.	c #325E97",
">.	c #2E5B95",
",.	c #295792",
"'.	c #28548E",
").	c #A5C1DF",
"!.	c #C4D1E2",
"~.	c #CEE0F2",
"{.	c #B9D2ED",
"].	c #ADCAEA",
"^.	c #AAC8E8",
"/.	c #A3C3E5",
"(.	c #9BBCE0",
"_.	c #3F699E",
":.	c #3C669D",
"<.	c #3D689C",
"[.	c #A8C2DE",
"}.	c #9DB2CE",
"|.	c #6686B2",
"1.	c #9CBDE1",
"2.	c #9ABBDF",
"3.	c #94B7DD",
"4.	c #8DB1D8",
"5.	c #84AAD3",
"6.	c #79A1CD",
"7.	c #6D98C7",
"8.	c #315E97",
"9.	c #305C96",
"0.	c #2A5793",
"a.	c #28548F",
"b.	c #3C6394",
"c.	c #CEDCED",
"d.	c #ACBED5",
"e.	c #F2F4F8",
"f.	c #5378A9",
"g.	c #3E679E",
"h.	c #8AAFD7",
"i.	c #85ABD4",
"j.	c #7FA6D0",
"k.	c #769FCC",
"l.	c #6E98C7",
"m.	c #789ECA",
"n.	c #5D7FAC",
"o.	c #5075A6",
"p.	c #4D74A3",
"q.	c #3B5D8C",
"r.	c #FBFDFD",
"s.	c #9EBBD9",
"t.	c #7391B8",
"u.	c #587BAB",
"v.	c #ECF0F5",
"w.	c #39649B",
"x.	c #759FCB",
"y.	c #709AC8",
"z.	c #6894C4",
"A.	c #7BA1CA",
"B.	c #8DADD1",
"C.	c #88A1C3",
"D.	c #8CA5C4",
"E.	c #7D97BB",
"F.	c #C0CCDC",
"G.	c #6491C1",
"H.	c #356098",
"I.	c #DDE7F2",
"J.	c #6692C3",
"K.	c #608EC0",
"L.	c #6892C2",
"M.	c #86A7CD",
"N.	c #A2BCD9",
"O.	c #B4C4D9",
"P.	c #BDCBDC",
"Q.	c #E2E8EF",
"R.	c #8A9DB7",
"S.	c #5080B7",
"T.	c #5584B9",
"U.	c #5988BC",
"V.	c #4578B1",
"W.	c #4A7CB3",
"X.	c #497BB3",
"Y.	c #4679B1",
"Z.	c #4175AF",
"`.	c #5682B3",
" +	c #819FC2",
".+	c #5175A5",
"++	c #3F6FA7",
"@+	c #3F6EA6",
"#+	c #3E6DA3",
"$+	c #3E6A9F",
"%+	c #F4F6F8",
"&+	c #91A4BD",
"*+	c #ABB7CA",
"=+	c #5E7FA8",
"-+	c #3C6192",
";+	c #F2F4F7",
">+	c #3A5B89",
",+	c #6A81A1",
"                                                ",
"                                                ",
"                  . . . . . .                   ",
"              . . + @ # $ % % . .               ",
"            & + + * = - ; > , ' ' )             ",
"          ) & ! ~ { ] ^ / ( _ _ _ : &           ",
"        ) ) _ _ _ _ _ _ _ _ < [ } | & &         ",
"      . ) _ _ _ 1 2 3 _ _ _ _ _ _ 4 5 6 .       ",
"      . 7 8 _ 9 0 a _ b c d e f g _ _ 6 .       ",
"    . h i j k 2 l _ m n o p q r s t u _ v .     ",
"    . w x y z A _ B C D E F G H I 4 J 6 K .     ",
"    . L M N O _ P Q R S T U V W X Y Z `  ..     ",
"    ....+..._ @.#.$.%.&.*.G =.g -.;.>.,.'..     ",
"    ..)._ _ !.~.{.].^./.(._.:.X | J 6 v <..     ",
"    [._ _ _ _ }.|.1.2.3.4.5.6.7.8.9.0.a.b..     ",
"    ..[._ c.d.e.f.g.h.i.j.k.l.m.n.n.o.p.q..     ",
"      ..r.s.t.u.v.w.} x.y.z.A.B.C.D.E.F..       ",
"      . _ G.4 Y H._ I.J.K.L.M.N.O.P.Q.R..       ",
"        . S.T.Z 9.9.U._ _ _ _ _ _ _ _ R.        ",
"          . V.` ` W.X.Y.Z.`. +_ _ _ P.O.        ",
"            . .+ .++@+#+$+_ %+&+*+*+O.          ",
"              . . =+b.-+;+>+,+. .               ",
"                  . . . . . .                   ",
"                                                "};
