/* XPM */
static char * contact_xpm[] = {
"24 24 52 1",
" 	c None",
".	c #939393",
"+	c #FFFFFF",
"@	c #F9F9F9",
"#	c #F8F8F8",
"$	c #F7F7F7",
"%	c #F6F6F6",
"&	c #F5F5F5",
"*	c #F4F4F4",
"=	c #F3F3F3",
"-	c #F2F2F2",
";	c #F1F1F1",
">	c #F0F0F0",
",	c #EFEFEF",
"'	c #EEEEEE",
")	c #EDEDED",
"!	c #ECECEC",
"~	c #EBEBEB",
"{	c #ADADAD",
"]	c #ACACAC",
"^	c #ABABAB",
"/	c #AAAAAA",
"(	c #EAEAEA",
"_	c #E9E9E9",
":	c #E8E8E8",
"<	c #BBBBBB",
"[	c #BABABA",
"}	c #B9B9B9",
"|	c #B8B8B8",
"1	c #000000",
"2	c #E7E7E7",
"3	c #C6C6C6",
"4	c #C5C5C5",
"5	c #C3C3C3",
"6	c #C2C2C2",
"7	c #E6E6E6",
"8	c #D0D0D0",
"9	c #CDCDCD",
"0	c #C4C4C4",
"a	c #C1C1C1",
"b	c #E4E4E4",
"c	c #D8D8D8",
"d	c #D5D5D5",
"e	c #E5E5E5",
"f	c #E3E3E3",
"g	c #DFDFDF",
"h	c #DCDCDC",
"i	c #E2E2E2",
"j	c #E1E1E1",
"k	c #E0E0E0",
"l	c #DEDEDE",
"m	c #DDDDDD",
"                        ",
"                        ",
"                        ",
"   ..................   ",
"  .++++++++++++++++++.  ",
" .+@#$%&&*=-;>>,')!~~+. ",
" .#{{]]^/--;>,'))!~(_:. ",
" .$<[[}}|;>111111111:2. ",
" .&34..56>,')!~~(_:277. ",
" .*8....9')334005556ab. ",
" .=c....d)!~(__:27ebbf. ",
" .;gg..hh~(00556aabfij. ",
" .>e....e(_5556aafiijk. ",
" .'......_:27ebbfijkgl. ",
" .)!~((_:27eebfijkkglm. ",
" .!1l1:11711f11l1l1l1m. ",
" .(1:lllllllllllllll1m. ",
" .+121e11f11k1g1m11m1+. ",
"  .++++++++++++++++++.  ",
"   ..................   ",
"                        ",
"                        ",
"                        ",
"                        "};
