/* XPM */
static char * copy_xpm[] = {
"24 24 50 1",
" 	c None",
".	c #939393",
"+	c #DFDFDF",
"@	c #E1E1E1",
"#	c #E2E2E2",
"$	c #E4E4E4",
"%	c #E6E6E6",
"&	c #E7E7E7",
"*	c #E9E9E9",
"=	c #EAEAEA",
"-	c #ECECEC",
";	c #EDEDED",
">	c #B6B6B6",
",	c #B8B8B8",
"'	c #B9B9B9",
")	c #BABABA",
"!	c #BBBBBB",
"~	c #BDBDBD",
"{	c #BEBEBE",
"]	c #EFEFEF",
"^	c #E3E3E3",
"/	c #EBEBEB",
"(	c #EEEEEE",
"_	c #F1F1F1",
":	c #E5E5E5",
"<	c #F3F3F3",
"[	c #F4F4F4",
"}	c #E8E8E8",
"|	c #C0C0C0",
"1	c #F6F6F6",
"2	c #F0F0F0",
"3	c #F2F2F2",
"4	c #F5F5F5",
"5	c #F8F8F8",
"6	c #BFBFBF",
"7	c #C2C2C2",
"8	c #C4C4C4",
"9	c #C5C5C5",
"0	c #C6C6C6",
"a	c #F9F9F9",
"b	c #F7F7F7",
"c	c #FAFAFA",
"d	c #FBFBFB",
"e	c #FDFDFD",
"f	c #BCBCBC",
"g	c #FCFCFC",
"h	c #FFFFFF",
"i	c #C1C1C1",
"j	c #C3C3C3",
"k	c #FEFEFE",
"                        ",
"                        ",
"   ..........           ",
"  .+@#$%&*=-;.          ",
"  .@>>,')!~{].          ",
"  .^$%&*/-(]_.          ",
"  .:~~~~~~~~<.          ",
"  .%[[[[[[[[[.          ",
"  .}||||||||1.......    ",
"  .=/;(23<415.:%}*/-.   ",
"  ./{6|77890a.{{{{{(.   ",
"  .;]23<4b5cd.-----b.   ",
"  .]|||||5cde.!f{{|_.   ",
"  ._3[4b5cgeh./;]23<.   ",
"   ..........~{6|774.   ",
"         .bbbbbbbbbb.   ",
"         .=!!!!!!!!5.   ",
"         .-ccccccccc.   ",
"         .(6i7j1bacg.   ",
"         .2_<[1bacgk.   ",
"          ..........    ",
"                        ",
"                        ",
"                        "};
