/* XPM */
static char * cut_xpm[] = {
"24 24 13 1",
" 	c None",
".	c #888A85",
"+	c #E7E8E7",
"@	c #B8B9B6",
"#	c #F1F1F0",
"$	c #FAFAF9",
"%	c #E8E6E3",
"&	c #D9D6D0",
"*	c #F7F7F6",
"=	c #FFFFFF",
"-	c #A40000",
";	c #E6B8B8",
">	c #B63333",
"                        ",
"      .          .      ",
"      ..        ..      ",
"     .+@        ##.     ",
"     .$$.      .$$.     ",
"     .%$@      #$%.     ",
"     .%$$.    .$%%.     ",
"     .%&*@   .$*&%.     ",
"      .&*$.  .$%%.      ",
"      .%&*@ .$*&%.      ",
"       .%%$.@*&%.       ",
"       .%&*.$%%.        ",
"        .%%@$%.         ",
"         ..=.@.         ",
"          #...          ",
"     ------%.-----      ",
"    -;>-->--->>-->-     ",
"    --  ->- ->-  ->-    ",
"   ->-  ->-  --  ->-    ",
"   ->>--->   ->--->-    ",
"    ->>>>-    ->>>-     ",
"     ----      ---      ",
"                        ",
"                        "};
