/* XPM */
static char * data_save_xpm[] = {
"24 24 172 2",
"  	c None",
". 	c #25375F",
"+ 	c #74A1DA",
"@ 	c #C0D4EE",
"# 	c #BFD3EE",
"$ 	c #EB9689",
"% 	c #EA9588",
"& 	c #EA9487",
"* 	c #EA9285",
"= 	c #EA9284",
"- 	c #EA9183",
"; 	c #E98F81",
"> 	c #E98E80",
", 	c #E98D7F",
"' 	c #E98C7E",
") 	c #E88A7C",
"! 	c #E8897B",
"~ 	c #E8897A",
"{ 	c #E88778",
"] 	c #B0C5E4",
"^ 	c #AEC5E4",
"/ 	c #ADC4E3",
"( 	c #BDD2EC",
"_ 	c #1D2938",
": 	c #709DD6",
"< 	c #D31C00",
"[ 	c #6791CA",
"} 	c #6790C9",
"| 	c #A9C0E1",
"1 	c #BACFEB",
"2 	c #6F9BD4",
"3 	c #6E9AD3",
"4 	c #FFFFFF",
"5 	c #658EC7",
"6 	c #658DC7",
"7 	c #A6BDDE",
"8 	c #B6CCE9",
"9 	c #6D98D1",
"0 	c #6C97D0",
"a 	c #638BC5",
"b 	c #638AC4",
"c 	c #A1B9DB",
"d 	c #B2C9E6",
"e 	c #6B95CE",
"f 	c #6A94CE",
"g 	c #FBFBFB",
"h 	c #EFEFEF",
"i 	c #F7F7F7",
"j 	c #6188C2",
"k 	c #6187C1",
"l 	c #9EB6D8",
"m 	c #AFC5E4",
"n 	c #6992CC",
"o 	c #6891CB",
"p 	c #5F85BF",
"q 	c #5F85BE",
"r 	c #99B1D6",
"s 	c #ACC2E2",
"t 	c #000000",
"u 	c #668FC8",
"v 	c #FDFDFD",
"w 	c #F5F5F5",
"x 	c #FAFAFA",
"y 	c #5D83BC",
"z 	c #5D82BC",
"A 	c #96ADD3",
"B 	c #A7BEDF",
"C 	c #FEFEFE",
"D 	c #F9F9F9",
"E 	c #FCFCFC",
"F 	c #5B80BA",
"G 	c #5A7FB9",
"H 	c #92AAD0",
"I 	c #A4BBDD",
"J 	c #597DB7",
"K 	c #587CB6",
"L 	c #8DA5CD",
"M 	c #A0B7DA",
"N 	c #577AB4",
"O 	c #5679B4",
"P 	c #89A1CA",
"Q 	c #9CB3D7",
"R 	c #5577B2",
"S 	c #5477B1",
"T 	c #849DC6",
"U 	c #97AFD4",
"V 	c #5375AF",
"W 	c #5274AE",
"X 	c #8098C3",
"Y 	c #94ABD1",
"Z 	c #525252",
"` 	c #5173AD",
" .	c #5172AC",
"..	c #5071AB",
"+.	c #7B93C0",
"@.	c #90A8CF",
"#.	c #587BB5",
"$.	c #B8B8B8",
"%.	c #C9C9C9",
"&.	c #C8C8C8",
"*.	c #C2C2C2",
"=.	c #BCBCBC",
"-.	c #B7B7B7",
";.	c #B1B1B1",
">.	c #4F70AA",
",.	c #4F6FA9",
"'.	c #4E6EA9",
").	c #778FBC",
"!.	c #8BA3CB",
"~.	c #5679B3",
"{.	c #5578B2",
"].	c #C3C3C3",
"^.	c #4967A2",
"/.	c #BFBFBF",
"(.	c #B9B9B9",
"_.	c #B3B3B3",
":.	c #AEAEAE",
"<.	c #A8A8A8",
"[.	c #A2A2A2",
"}.	c #4D6DA7",
"|.	c #4D6CA7",
"1.	c #4C6BA6",
"2.	c #728BB8",
"3.	c #879FC8",
"4.	c #5476B0",
"5.	c #5375B0",
"6.	c #C7C7C7",
"7.	c #B0B0B0",
"8.	c #AAAAAA",
"9.	c #A5A5A5",
"0.	c #9F9F9F",
"a.	c #999999",
"b.	c #939393",
"c.	c #4B6AA5",
"d.	c #4B69A4",
"e.	c #4A69A3",
"f.	c #6D86B4",
"g.	c #819AC4",
"h.	c #5273AE",
"i.	c #A1A1A1",
"j.	c #9C9C9C",
"k.	c #969696",
"l.	c #909090",
"m.	c #8A8A8A",
"n.	c #858585",
"o.	c #4867A1",
"p.	c #4866A0",
"q.	c #6881B1",
"r.	c #7D96C1",
"s.	c #8D8D8D",
"t.	c #878787",
"u.	c #818181",
"v.	c #7C7C7C",
"w.	c #767676",
"x.	c #47659F",
"y.	c #46649E",
"z.	c #46639E",
"A.	c #637BAD",
"B.	c #4E6EA8",
"C.	c #9B9B9B",
"D.	c #959595",
"E.	c #8F8F8F",
"F.	c #848484",
"G.	c #7E7E7E",
"H.	c #787878",
"I.	c #737373",
"J.	c #6D6D6D",
"K.	c #6B6B6B",
"L.	c #45629D",
"M.	c #44619C",
"N.	c #44609B",
"O.	c #5E76A9",
"                                                ",
"    . . . . . . . . . . . . . . . . . . . .     ",
"  . + @ # $ % & * = - ; > , ' ) ! ~ { ] ^ / .   ",
"  . ( _ : < < < < < < < < < < < < < < [ } | .   ",
"  . 1 2 3 4 4 4 4 4 4 4 4 4 4 4 4 4 4 5 6 7 .   ",
"  . 8 9 0 4 4 4 4 4 4 4 4 4 4 4 4 4 4 a b c .   ",
"  . d e f g h h h h h h h h h h h h i j k l .   ",
"  . m n o 4 4 4 4 4 4 4 4 4 4 4 4 4 4 p q r .   ",
"  . s t u v w w w w w w w w w w w w x y z A .   ",
"  . B t t C D D D D D D D D D D D D E F G H .   ",
"  . I t t t 4 4 4 4 4 4 4 4 4 4 4 4 4 J K L .   ",
"  . M t t t t h h h h h h h h h h h i N O P .   ",
"  . Q t t t t 4 4 4 4 4 4 4 4 4 4 4 4 R S T .   ",
"  . U t t t 4 4 4 4 4 4 4 4 4 4 4 4 4 V W X .   ",
"  . Y t t J K Z Z Z Z Z Z Z Z Z Z Z `  ...+..   ",
"  . @.t #.N Z $.Z Z Z %.&.*.=.-.;.Z >.,.'.)..   ",
"  . !.~.{.R Z ].Z ^.^./.(._.:.<.[.Z }.|.1.2..   ",
"  . 3.4.5.V Z 6.Z ^.^.7.8.9.0.a.b.Z c.d.e.f..   ",
"  . g.h.`  .Z $.Z ^.^.i.j.k.l.m.n.Z ^.o.p.q..   ",
"  . r...>.,.Z 8.Z ^.^.b.s.t.u.v.w.Z x.y.z.A..   ",
"    . B.}.|.Z C.D.E.m.F.G.H.I.J.K.Z L.M.N.O..   ",
"      . . . Z Z Z Z Z Z Z Z Z Z Z Z . . . .     ",
"                                                ",
"                                                "};
