/* XPM */
static char * delete_xpm[] = {
"24 24 241 2",
"  	c None",
". 	c #6D6D6D",
"+ 	c #4D5506",
"@ 	c #D6DBDC",
"# 	c #FFFFFF",
"$ 	c #C8CDCE",
"% 	c #C0C4C5",
"& 	c #B7BCBD",
"* 	c #E4E9EA",
"= 	c #D5DADB",
"- 	c #F9F9F9",
"; 	c #B0B0B0",
"> 	c #C4C9CA",
", 	c #BCC0C1",
"' 	c #747671",
") 	c #757773",
"! 	c #C9CCC5",
"~ 	c #BDC0C1",
"{ 	c #FAFAFA",
"] 	c #C6CBCC",
"^ 	c #ABAFB0",
"/ 	c #979797",
"( 	c #C2C2C2",
"_ 	c #C9CDCE",
": 	c #C0C5C6",
"< 	c #B8BCBD",
"[ 	c #AFB4B5",
"} 	c #949494",
"| 	c #B1B1B1",
"1 	c #CECECE",
"2 	c #EFF3F4",
"3 	c #F2F2F2",
"4 	c #EAEAEA",
"5 	c #E2E2E2",
"6 	c #D9D9D9",
"7 	c #D1D1D1",
"8 	c #BDBDBD",
"9 	c #C1C1C1",
"0 	c #CDD2D3",
"a 	c #C5C9CA",
"b 	c #BCC1C2",
"c 	c #B4B8B9",
"d 	c #ABB0B1",
"e 	c #A3A7A8",
"f 	c #ABABAB",
"g 	c #C8C8C8",
"h 	c #E6E6E6",
"i 	c #BBBBBB",
"j 	c #B5B5B5",
"k 	c #B9B9B9",
"l 	c #BABFC0",
"m 	c #ACB0B1",
"n 	c #B0B4B5",
"o 	c #A7ACAD",
"p 	c #9FA3A4",
"q 	c #EFF4F5",
"r 	c #E3E8E9",
"s 	c #D7DCDD",
"t 	c #CACFD1",
"u 	c #E7ECED",
"v 	c #DEE3E5",
"w 	c #D3D8DA",
"x 	c #BFC2C3",
"y 	c #BEC1C2",
"z 	c #BCBFC0",
"A 	c #BBBEBF",
"B 	c #BABDBE",
"C 	c #BABCBD",
"D 	c #B9BCBD",
"E 	c #DDE2E3",
"F 	c #CED3D4",
"G 	c #C3C8CA",
"H 	c #525C07",
"I 	c #787F36",
"J 	c #767D35",
"K 	c #747B34",
"L 	c #717833",
"M 	c #6F7532",
"N 	c #6C7331",
"O 	c #697030",
"P 	c #676D2F",
"Q 	c #646B2E",
"R 	c #61682D",
"S 	c #5F652C",
"T 	c #D2D7D9",
"U 	c #CDD2D4",
"V 	c #C6CBCD",
"W 	c #B5C051",
"X 	c #B1BC50",
"Y 	c #ADB84E",
"Z 	c #A9B44D",
"` 	c #A5B04B",
" .	c #A2AC4A",
"..	c #9EA848",
"+.	c #9AA447",
"@.	c #969F45",
"#.	c #929B44",
"$.	c #727935",
"%.	c #6B7232",
"&.	c #6A7232",
"*.	c #B4BB74",
"=.	c #B4BF51",
"-.	c #B0BB4F",
";.	c #ACB74E",
">.	c #A8B34C",
",.	c #A4AE4B",
"'.	c #CED3A2",
").	c #CCD1A1",
"!.	c #98A246",
"~.	c #949E45",
"{.	c #919A43",
"].	c #8D9642",
"^.	c #858E3F",
"/.	c #5E6808",
"(.	c #ADB46F",
"_.	c #B3BE50",
":.	c #AFB94F",
"<.	c #ABB54D",
"[.	c #C2C983",
"}.	c #C7CCA0",
"|.	c #CCD1A0",
"1.	c #CACFA0",
"2.	c #939D44",
"3.	c #8F9943",
"4.	c #8B9541",
"5.	c #879140",
"6.	c #8D964C",
"7.	c #8D954B",
"8.	c #5C6608",
"9.	c #AAB44D",
"0.	c #C2C883",
"a.	c #BFC682",
"b.	c #CBD0A0",
"c.	c #C9CE9F",
"d.	c #959E4E",
"e.	c #919A4D",
"f.	c #8D964A",
"g.	c #8C954A",
"h.	c #8C944A",
"i.	c #5A6407",
"j.	c #D6DCA5",
"k.	c #D4DAA4",
"l.	c #D5DBA9",
"m.	c #AAB457",
"n.	c #A6B155",
"o.	c #A2AC53",
"p.	c #9FA852",
"q.	c #9BA450",
"r.	c #97A04E",
"s.	c #939C4C",
"t.	c #8F984A",
"u.	c #8B9449",
"v.	c #8B9348",
"w.	c #959B68",
"x.	c #586207",
"y.	c #566007",
"z.	c #B8C25C",
"A.	c #B4BF5B",
"B.	c #D7DBAA",
"C.	c #D5DAA9",
"D.	c #A8B255",
"E.	c #A4AE53",
"F.	c #A0AA51",
"G.	c #9CA64F",
"H.	c #99A24E",
"I.	c #B6BC83",
"J.	c #909A4A",
"K.	c #8D9648",
"L.	c #8A9247",
"M.	c #8F9564",
"N.	c #545E07",
"O.	c #BBC279",
"P.	c #BAC45C",
"Q.	c #B9C45B",
"R.	c #B7C05A",
"S.	c #ABB454",
"T.	c #A7B053",
"U.	c #A3AC51",
"V.	c #9EA84F",
"W.	c #9BA44D",
"X.	c #B4BB82",
"Y.	c #B1B781",
"Z.	c #8A9346",
"`.	c #899245",
" +	c #889144",
".+	c #545D07",
"++	c #C2CA7E",
"@+	c #B9C35B",
"#+	c #B8C25A",
"$+	c #C2C886",
"%+	c #C3CA88",
"&+	c #C1C786",
"*+	c #A1AA4F",
"=+	c #9DA64D",
"-+	c #CBCFA2",
";+	c #8C9545",
">+	c #879043",
",+	c #9BA16C",
"'+	c #525B07",
")+	c #515A07",
"!+	c #CAD283",
"~+	c #B8C359",
"{+	c #B6C158",
"]+	c #BFC685",
"^+	c #9EA74C",
"/+	c #CBD0A3",
"(+	c #C9CEA1",
"_+	c #C5CA9F",
":+	c #8A9343",
"<+	c #879042",
"[+	c #868F41",
"}+	c #A1A771",
"|+	c #505907",
"1+	c #4F5706",
"2+	c #B8C257",
"3+	c #B4BF55",
"4+	c #B1BA54",
"5+	c #ACB652",
"6+	c #A8B250",
"7+	c #A4AE4E",
"8+	c #A0AA4C",
"9+	c #9CA64B",
"0+	c #98A148",
"a+	c #8B9543",
"b+	c #879141",
"c+	c #858E40",
"d+	c #A8AE76",
"e+	c #4E5706",
"f+	c #B6C155",
"g+	c #B2BD53",
"h+	c #AEB851",
"i+	c #ABB450",
"j+	c #A6B04E",
"k+	c #A2AC4C",
"l+	c #9EA84A",
"m+	c #9AA448",
"n+	c #96A046",
"o+	c #919A44",
"p+	c #8D9643",
"q+	c #899241",
"r+	c #495106",
"              .                                 ",
"          . .           . .                     ",
"    + + + @ . + + + + + + # $ % & + + + +       ",
"    + * * = - . ; ; . . . . > , . ' ) . ! +     ",
"    + ~ # { ] ^ / ( . ; ; _ : < [ ; . } | 1     ",
"  + 2 ~ { 3 4 5 6 7 8 9 0 a b c d e f g h # . . ",
"  + 2 ~ ~ ~ ~ ~ ~ i j k ~ l m n o p q r s t .   ",
"  + 2 2 2 2 2 2 2 2 2 2 2 2 2 2 2 2 u v w $ .   ",
"  + x y y y ~ ~ ~ z z A A A B B C D E s F G .   ",
"    H I I I I I J K L M N O P Q R S T U V .     ",
"    H W W W W W X Y Z `  ...+.@.#.$.. %.&.&.    ",
"    H *.W W W =.-.;.>.,.'.).!.~.{.].. ^.^./.    ",
"    H (.W W W _.:.<.[.}.'.|.1.2.3.4.5.6.7.8.    ",
"    H *.W W W X Y 9.0.a...b.c.#.d.e.f.g.h.i.    ",
"    H *.W W =.j.k.l.m.n.o.p.q.r.s.t.u.v.w.x.    ",
"    y.*.W W z.A.B.C.D.E.F.G.H.I.J.K.L.L.M.y.    ",
"    N.O.P.Q.R.C.C.S.T.U.V.W.}.X.Y.Z.`. +w..+    ",
"    H ++@+#+#+C.$+%+&+*+=+-+}.}.;+ + +>+,+'+    ",
"    )+!+~+{+{+C.C.$+]+^+/+(+}._+:+<+[+[+}+|+    ",
"    1+!+2+3+4+5+6+7+8+9+0+}.}.a+b+[+c+^.d+e+    ",
"    + !+f+g+h+i+j+k+l+m+n+o+p+q+^.^.^.^.d+H     ",
"      H !+!+!+!+!+!+++*.*.*.d+d+d+d+d+d+H       ",
"        r+r+r+r+r+r+r+r+r+r+r+r+r+r+r+r+        ",
"                                                "};
