/* XPM */
static char * describe_xpm[] = {
"24 24 28 1",
" 	c None",
".	c #7C7E7A",
"+	c #7C7F7A",
"@	c #A8A8A8",
"#	c #9D9D9C",
"$	c #7D7E7A",
"%	c #9F9F9D",
"&	c #CECECE",
"*	c #737471",
"=	c #A1A19F",
"-	c #C4C4C3",
";	c #698FBA",
">	c #A3A3A1",
",	c #C2C2C1",
"'	c #888A85",
")	c #FFFFFF",
"!	c #EEEEEC",
"~	c #C8C8C4",
"{	c #C9C9C8",
"]	c #EFEFEE",
"^	c #729FCF",
"/	c #F2F2F0",
"(	c #CBCBC9",
"_	c #F4F4F3",
":	c #CCCCCC",
"<	c #F7F7F6",
"[	c #FAFAF9",
"}	c #FCFCFC",
"                        ",
"      .........         ",
"     +@@@@@@@@@+        ",
"    +######$$$$$$$$$    ",
"   +@%%%%%$&&&&&&&&&*   ",
"   +@====$&---;;;----$  ",
"   +@>>>>$,,,,--,;,,,&$ ",
"   ''''''''''---;;---&$ ",
"  ')!!!!!!!))'~;{{~~~&$ ",
" ']]]]^^^]]]])';{{{{{&$ ",
" '///////^///)'&(((((&$ ",
" '______^^___)';:::::&$ ",
" '<<<<<^<<<<<)'&&&&&&&$ ",
" '[[[[[^[[[[[)'&&&&.$$  ",
" '}}}}}}}}}}})'$&&&&.   ",
" ')))))^))))))' $&&&.   ",
"  '))))))))))'   $$&.   ",
"   ''''))))''      $$   ",
"       '))))'           ",
"         '))'           ",
"          ')'           ",
"           ''           ",
"                        ",
"                        "};
