/* XPM */
static char * diropen_xpm[] = {
"19 24 134 2",
"  	c None",
". 	c #3465A4",
"+ 	c #B1C9E5",
"@ 	c #B5CDE5",
"# 	c #B8CFE6",
"$ 	c #B7CDE5",
"% 	c #B3CBE5",
"& 	c #AEC8E4",
"* 	c #AAC5E2",
"= 	c #A6C2E1",
"- 	c #A0BDE0",
"; 	c #9BBADF",
"> 	c #A7C3E1",
", 	c #9FBDDF",
"' 	c #A4C1E0",
") 	c #A9C5E2",
"! 	c #ABC6E2",
"~ 	c #ABC5E2",
"{ 	c #A0BDDF",
"] 	c #9ABADD",
"^ 	c #95B6DC",
"/ 	c #8EB1DA",
"( 	c #99B9DE",
"_ 	c #86ABDA",
": 	c #769FD5",
"< 	c #7BA3D6",
"[ 	c #7FA6D7",
"} 	c #84A9D8",
"| 	c #87ABD9",
"1 	c #86AAD9",
"2 	c #81A7D8",
"3 	c #7DA4D7",
"4 	c #78A1D6",
"5 	c #739DD5",
"6 	c #6E9AD4",
"7 	c #6997D3",
"8 	c #7BA3D8",
"9 	c #84AADA",
"0 	c #4074B9",
"a 	c #4577BA",
"b 	c #4578BA",
"c 	c #4678BB",
"d 	c #3A70B7",
"e 	c #83A8DA",
"f 	c #78A0D9",
"g 	c #79A1DA",
"h 	c #79A2DA",
"i 	c #7AA2DB",
"j 	c #78A1DA",
"k 	c #76A0D8",
"l 	c #749DD8",
"m 	c #7AA2D8",
"n 	c #80A6DA",
"o 	c #6B98D8",
"p 	c #6A97D8",
"q 	c #6996D7",
"r 	c #6896D7",
"s 	c #6595D7",
"t 	c #6493D6",
"u 	c #79A1D8",
"v 	c #7DA5D9",
"w 	c #555753",
"x 	c #6393D6",
"y 	c #6192D5",
"z 	c #77A0D7",
"A 	c #6A98D8",
"B 	c #6997D7",
"C 	c #FEFEFE",
"D 	c #F8F8F7",
"E 	c #F1F1F0",
"F 	c #EBEBE8",
"G 	c #6090D4",
"H 	c #5E8FD4",
"I 	c #749ED7",
"J 	c #76A0D7",
"K 	c #6795D6",
"L 	c #6694D6",
"M 	c #5D89C6",
"N 	c #5C8ED4",
"O 	c #5B8DD4",
"P 	c #729CD6",
"Q 	c #739DD6",
"R 	c #6392D6",
"S 	c #6090D2",
"T 	c #5D8BCD",
"U 	c #5B89CC",
"V 	c #5988CB",
"W 	c #5788CB",
"X 	c #598CD1",
"Y 	c #598CD3",
"Z 	c #578BD3",
"` 	c #6E9BD5",
" .	c #6F9BD5",
"..	c #6B98D4",
"+.	c #6895D4",
"@.	c #6795D4",
"#.	c #7FA5D9",
"$.	c #80A6DB",
"%.	c #81A7DC",
"&.	c #82A8DD",
"*.	c #81A7DB",
"=.	c #7DA4D9",
"-.	c #6493D3",
";.	c #6292D3",
">.	c #6795D7",
",.	c #6594D6",
"'.	c #6190D2",
").	c #5F90D2",
"!.	c #6392D5",
"~.	c #6191D5",
"{.	c #6190D3",
"].	c #FCFCFC",
"^.	c #5F8FD5",
"/.	c #5E8ED4",
"(.	c #6291D3",
"_.	c #6292D4",
":.	c #6694D7",
"<.	c #5B8ED4",
"[.	c #5A8CD4",
"}.	c #6493D4",
"|.	c #6494D6",
"1.	c #5D8BCE",
"2.	c #5884C3",
"3.	c #5683C3",
"4.	c #5582C2",
"5.	c #5481C1",
"6.	c #5685C9",
"7.	c #598BD2",
"8.	c #578AD2",
"9.	c #6694D4",
"0.	c #6795D5",
"a.	c #6695D4",
"b.	c #6594D4",
"c.	c #6895D5",
"                                      ",
"          . . . . . . . . . .         ",
"        . + @ # $ % & * = - ; .       ",
"      . > , ' ) ! ~ = { ] ^ / ( .     ",
"    . _ : < [ } | 1 2 3 4 5 6 7 8 .   ",
"    . 9 0 a a b c c c c a a a d 8 .   ",
"    . e d f g h i i i i j k l d m .   ",
"    . n d o o o o o p q r s t d u .   ",
"    . v d o o w w w w w w x y d z .   ",
"    . m d A B w C D E F w G H d I .   ",
"    . J d K L M w w w w w N O d P .   ",
"    . Q d t R S T U V W X Y Z d ` .   ",
"    .  .d d d d d d d d d d d d ...   ",
"    . ..d d d d d d d d d d d d +..   ",
"    . @.d #.$.%.%.&.&.%.*.n =.d -..   ",
"    . ;.d o o o o o o p r >.,.d '..   ",
"    . ).d o o w w w w w w !.~.d S .   ",
"    . {.d o p w ].F F F w ^./.d (..   ",
"    . _.d r :.:.w w w w w <.[.d _..   ",
"    . }.d |.R 1.2.3.4.5.6.7.8.d }..   ",
"    . 9.d d d d d d d d d d d d 9..   ",
"    . 0.0.a.a.9.9.b.b.9.9.a.a.0.c..   ",
"      . . . . . . . . . . . . . .     ",
"                                      "};
