/* XPM */
static char * disconnect_xpm[] = {
"24 24 54 1",
" 	c None",
".	c #888A85",
"+	c #FFFFFF",
"@	c #F5F6F4",
"#	c #F4F5F4",
"$	c #F4F5F3",
"%	c #F4F5F2",
"&	c #F3F4F2",
"*	c #F3F4F1",
"=	c #F2F4F1",
"-	c #F2F3F1",
";	c #F2F3F0",
">	c #F1F3F0",
",	c #000000",
"'	c #F1F2EF",
")	c #F0F2EF",
"!	c #F0F1EF",
"~	c #EFF1EE",
"{	c #EFF0EE",
"]	c #EFF0ED",
"^	c #BBA703",
"/	c #EEF0ED",
"(	c #EEF0EC",
"_	c #EEEFEC",
":	c #EDEFEB",
"<	c #EDEEEB",
"[	c #555753",
"}	c #ECEEEB",
"|	c #ECEEEA",
"1	c #ECEDEA",
"2	c #EFEFED",
"3	c #F7F7F6",
"4	c #F8F9F8",
"5	c #EBEDE9",
"6	c #EBECE9",
"7	c #EAECE9",
"8	c #D9D9D8",
"9	c #EAEBE8",
"0	c #D0D2CD",
"a	c #BABCB6",
"b	c #D3D7CF",
"c	c #BCBFB9",
"d	c #ADB0A9",
"e	c #F9F9F8",
"f	c #D8DAD6",
"g	c #3465A4",
"h	c #9EBDDE",
"i	c #DADBD8",
"j	c #3969A6",
"k	c #3E6DAA",
"l	c #4171AC",
"m	c #4572AD",
"n	c #3564A4",
"o	c #4372AC",
"                        ",
"        ...........     ",
"       .+++++++++++.    ",
"       .@@@@@#$$$$+.    ",
"       .$$$%&&&&&&+.    ",
"       .&*=------;+.    ",
"       .>>>,,,,,')+.    ",
"       .))!,,,,,~~+.    ",
"       .~{],^,^,/(+.    ",
"       .___+++++:<+.    ",
"      [[[[[}}||||1+.    ",
"     [23+4[5555567+.    ",
"    [890$a[++++++++.    ",
"    [!bbcd[........     ",
"    [e,,df[             ",
"    ghg+i[              ",
"   ghg[[[     gggg      ",
"  ghg    ggggggjklm     ",
"  ghhgggggggg   nll     ",
"   ggggg        ll      ",
"                ll      ",
"               mm       ",
"              mmm       ",
"             mmo        "};
