/* XPM */
static char * exit_xpm[] = {
"24 24 122 2",
"  	c None",
". 	c #555753",
"+ 	c #888888",
"@ 	c #797979",
"# 	c #6D6D6D",
"$ 	c #656565",
"% 	c #5D5D5D",
"& 	c #565656",
"* 	c #515151",
"= 	c #505050",
"- 	c #FFFFFF",
"; 	c #979797",
"> 	c #898989",
", 	c #7B7B7B",
"' 	c #6F6F6F",
") 	c #636363",
"! 	c #575757",
"~ 	c #4E4E4E",
"{ 	c #9B9B9B",
"] 	c #8E8E8E",
"^ 	c #818181",
"/ 	c #747474",
"( 	c #676767",
"_ 	c #5A5A5A",
": 	c #9F9F9F",
"< 	c #929292",
"[ 	c #858585",
"} 	c #787878",
"| 	c #6B6B6B",
"1 	c #5E5E5E",
"2 	c #A2A2A2",
"3 	c #959595",
"4 	c #626262",
"5 	c #555555",
"6 	c #A40000",
"7 	c #A6A6A6",
"8 	c #999999",
"9 	c #8C8C8C",
"0 	c #7F7F7F",
"a 	c #727272",
"b 	c #585858",
"c 	c #F45F31",
"d 	c #FAAF98",
"e 	c #7C0000",
"f 	c #A9A9A9",
"g 	c #9D9D9D",
"h 	c #909090",
"i 	c #838383",
"j 	c #767676",
"k 	c #CECECE",
"l 	c #4F4F4F",
"m 	c #F79494",
"n 	c #EF2929",
"o 	c #ABABAB",
"p 	c #A0A0A0",
"q 	c #939393",
"r 	c #868686",
"s 	c #606060",
"t 	c #ED592B",
"u 	c #F18F8F",
"v 	c #E21F1F",
"w 	c #A4A4A4",
"x 	c #8A8A8A",
"y 	c #7D7D7D",
"z 	c #707070",
"A 	c #E78888",
"B 	c #CF1111",
"C 	c #E15022",
"D 	c #A7A7A7",
"E 	c #9A9A9A",
"F 	c #9E0000",
"G 	c #D5481A",
"H 	c #BB0303",
"I 	c #DD8181",
"J 	c #950000",
"K 	c #9E9E9E",
"L 	c #919191",
"M 	c #6A6A6A",
"N 	c #EA8585",
"O 	c #D8481A",
"P 	c #C00303",
"Q 	c #6E6E6E",
"R 	c #616161",
"S 	c #8C0000",
"T 	c #EFA58E",
"U 	c #DE4A1C",
"V 	c #A5A5A5",
"W 	c #989898",
"X 	c #8B8B8B",
"Y 	c #8B8E88",
"Z 	c #E9E9E9",
"` 	c #830000",
" .	c #D50B0B",
"..	c #9C9C9C",
"+.	c #8F8F8F",
"@.	c #828282",
"#.	c #757575",
"$.	c #686868",
"%.	c #686A66",
"&.	c #8E908A",
"*.	c #B2B5AE",
"=.	c #BABDB6",
"-.	c #636561",
";.	c #737470",
">.	c #8B8D88",
",.	c #A6A9A3",
"'.	c #B7BAB3",
").	c #A3A3A3",
"!.	c #ABACAA",
"~.	c #7C7E79",
"{.	c #92948F",
"].	c #A6A8A2",
"^.	c #B9BCB5",
"/.	c #545652",
"(.	c #898B86",
"_.	c #9B9E98",
":.	c #ABAEA8",
"<.	c #B5B8B1",
"[.	c #535551",
"}.	c #A5A8A1",
"|.	c #B1B3AD",
"1.	c #525450",
"                                                ",
"                                                ",
"      . . . . . . . . . . . . .                 ",
"    . + @ # $ % & * = - - - - - .               ",
"    . ; > , ' ) ! ~ ~ - - - - - .               ",
"    . { ] ^ / ( _ ~ ~ - - - - - .               ",
"    . : < [ } | 1 * ~ - - - - - .               ",
"    . 2 3 + , ' 4 5 ~ - - - - - 6 6             ",
"    . 7 8 9 0 a $ b ~ - - - - 6 c d e           ",
"    . f g h i j k k l - - - 6 c m n 6           ",
"    . o p q r @ # s k - - 6 t u v t 6 6 6 6     ",
"    . o w ; x y z k k - 6 t A B C C C C C C 6   ",
"    . o D E ] ^ k k _ - F G H H H H H H H I G J ",
"    . o o K L k k M 1 - - J B N O O O O O P J   ",
"    . o o 2 3 + , Q R - - - S B T U S J J J     ",
"    . o o V W X 0 a $ Y Z Z - `  .N e           ",
"    . o o f ..+.@.#.$.%.&.*.=.=.e e             ",
"    . o o o p q r -.;.>.,.'.=.=..               ",
"    . o o o ).!.~.{.].*.^.=.=.=..               ",
"    /.o o k (._.:.<.^.=.=.=.=.=..               ",
"    [.k k }.|.'.^.=.=.=.=.=.=.=..               ",
"      1.[./.. . . . . . . . . .                 ",
"                                                ",
"                                                "};
