/* XPM */
static char * fwd_arrow_xpm[] = {
"24 24 49 1",
" 	c None",
".	c #4E9A06",
"+	c #F6FDF0",
"@	c #D6F5B8",
"#	c #F1FCE6",
"$	c #D8F5BB",
"%	c #C7F19E",
"&	c #ECFADD",
"*	c #CCF2A8",
"=	c #B7ED83",
"-	c #E6F9D4",
";	c #E1F8CA",
">	c #A8E968",
",	c #DCF6C2",
"'	c #9AE551",
")	c #4D9806",
"!	c #8EDF40",
"~	c #B0E979",
"{	c #4B9406",
"]	c #CCEFA9",
"^	c #83D92E",
"/	c #A8E46C",
"(	c #489005",
"_	c #AAE76D",
":	c #77D41C",
"<	c #CFF0AF",
"[	c #B2E77D",
"}	c #A0E160",
"|	c #468B05",
"1	c #76D41A",
"2	c #C5ED9E",
"3	c #9FE15E",
"4	c #448705",
"5	c #7CD821",
"6	c #D1F2B1",
"7	c #3B7504",
"8	c #B6EA82",
"9	c #A3E463",
"0	c #428205",
"a	c #81DB28",
"b	c #D3F3B4",
"c	c #A7E668",
"d	c #3F7E05",
"e	c #AAE96C",
"f	c #86DF2E",
"g	c #D5F4B6",
"h	c #3D7A04",
"i	c #ADEB71",
"j	c #8AE234",
"                        ",
"                        ",
"                        ",
"                        ",
"                        ",
"              ...       ",
"             .+++.      ",
"             .@@@#.     ",
"             .$%%%&.    ",
"     ..........*===-.   ",
"   ..;;;;;;;;;;;;>>>;.  ",
"  .,,'''''''''''''''',. ",
"  )!!!!!!!!!!!!!!!!!!~) ",
" {]^^^///////////^^^/{  ",
" (_:^<((((((((([:::}(   ",
" |_1<|       |21113|    ",
" 4_55647777  485594     ",
" 0_aaabbbbb0 08cc0      ",
"  defffffffgd 777       ",
"   hijjjjjjih           ",
"    7iiiiii7            ",
"     777777             ",
"                        ",
"                        "};
