/* XPM */
static char * help_xpm[] = {
"24 24 104 2",
"  	c None",
". 	c #E9B96E",
"+ 	c #FFFFFF",
"@ 	c #CED2CA",
"# 	c #CCD0C9",
"$ 	c #CBCEC7",
"% 	c #C9CDC5",
"& 	c #C7CBC3",
"* 	c #C5C9C2",
"= 	c #A40000",
"- 	c #EED2D0",
"; 	c #F2F4F1",
"> 	c #F6F7F5",
", 	c #F7F8F7",
"' 	c #BA3D3D",
") 	c #F1D4D1",
"! 	c #F38B8A",
"~ 	c #FCFCFB",
"{ 	c #FAFAFA",
"] 	c #F49695",
"^ 	c #F1D0CE",
"/ 	c #F2D3D1",
"( 	c #F48989",
"_ 	c #F04444",
": 	c #EF2929",
"< 	c #F2F2F0",
"[ 	c #F0F0EE",
"} 	c #F03131",
"| 	c #F36464",
"1 	c #F59696",
"2 	c #F2D0CE",
"3 	c #F1CFCD",
"4 	c #F48787",
"5 	c #F04141",
"6 	c #F2F2F1",
"7 	c #F02F2F",
"8 	c #F26160",
"9 	c #F49493",
"0 	c #F1CCCA",
"a 	c #ECCAC7",
"b 	c #F18281",
"c 	c #F04040",
"d 	c #F25656",
"e 	c #F35D5D",
"f 	c #B1B4AD",
"g 	c #AFB2AB",
"h 	c #F46868",
"i 	c #F36565",
"j 	c #EF2C2C",
"k 	c #F25F5F",
"l 	c #F18F8E",
"m 	c #EDC7C5",
"n 	c #BABDB6",
"o 	c #EFF1EE",
"p 	c #F36161",
"q 	c #C35757",
"r 	c #EF2B2B",
"s 	c #9B9E98",
"t 	c #B4B8B1",
"u 	c #F3F4F1",
"v 	c #FEFEFE",
"w 	c #F3F3F2",
"x 	c #F3F3F1",
"y 	c #F4F4F3",
"z 	c #969993",
"A 	c #AFB2AC",
"B 	c #F1F2F0",
"C 	c #FCFCFC",
"D 	c #F1F1F0",
"E 	c #C3C4C0",
"F 	c #91938E",
"G 	c #A3A6A0",
"H 	c #A5A8A1",
"I 	c #EFF0ED",
"J 	c #888A85",
"K 	c #A0A29C",
"L 	c #F7F7F6",
"M 	c #F5E1E0",
"N 	c #9A9D97",
"O 	c #EAECE8",
"P 	c #F15555",
"Q 	c #F19291",
"R 	c #D07B7B",
"S 	c #DEA2A2",
"T 	c #F2B5B3",
"U 	c #F47171",
"V 	c #F35C5C",
"W 	c #F15353",
"X 	c #F7C5C4",
"Y 	c #D3C3C1",
"Z 	c #DCDDDB",
"` 	c #FAE3E3",
" .	c #F26D6D",
"..	c #F15151",
"+.	c #F28E8E",
"@.	c #F9F9F9",
"#.	c #FBFBFB",
"$.	c #F3B2B2",
"%.	c #F36B6A",
"&.	c #FAFAF9",
"*.	c #F3F5F2",
"=.	c #E6E8E3",
"-.	c #E9EBE7",
";.	c #E4E7E2",
"                                                ",
"            . .                                 ",
"          . + + . @ # $ % & *   . . . .         ",
"      . . + + = - ; > , , > ; ' = . + + .       ",
"  . . + . . = ) ! + ~ { { ~ + ] ^ = . + .       ",
"  . + .   = / ( _ : < [ [ < } | 1 2 = . + .     ",
"  . + + = 3 4 5 : : < < < 6 : 7 8 9 0 = . + .   ",
"    . . a b c : d e = f g = h i j k l m + .     ",
"      n o ~ : : p =         = q : r ~ o s       ",
"      t u v w x =             = y w v u z       ",
"      A B C D E                 E D C B F       ",
"      A B C D G                 G D C B F       ",
"      H I v w E                 E w v I J       ",
"      K o C L M =             = L L C o J       ",
"      N O : P Q R =         = S T U : O J       ",
"    . . V : : W X Y = J J = Z `  .: : V .       ",
"    . + = V : : ..+.@.@.{ #.$.%.: : V = + .     ",
"  . + . . = V : : + #.&.&.#.+ : : V = . . + .   ",
"    . + + . = V : I *.> > *.I : V =   . + .     ",
"      . + . . = V =.-.;.;.-.=.V = . . + .       ",
"        . + + .   J J J J J J   . + + .         ",
"        . . .                     . .           ",
"                                                ",
"                                                "};
