/* XPM */
static char * home_xpm[] = {
"24 24 110 2",
"  	c None",
". 	c #A40000",
"+ 	c #F14040",
"@ 	c #E72828",
"# 	c #F14747",
"$ 	c #F14343",
"% 	c #E62727",
"& 	c #E42727",
"* 	c #9C0000",
"= 	c #F24E4E",
"- 	c #F24B4B",
"; 	c #F14646",
"> 	c #E52727",
", 	c #E32727",
"' 	c #E22727",
") 	c #F25555",
"! 	c #F25252",
"~ 	c #EF2929",
"{ 	c #E02626",
"] 	c #DF2626",
"^ 	c #F35D5D",
"/ 	c #F35959",
"( 	c #DD2626",
"_ 	c #DC2626",
": 	c #F46767",
"< 	c #F36464",
"[ 	c #F36060",
"} 	c #F35C5C",
"| 	c #D9D9D9",
"1 	c #D8D8D8",
"2 	c #DB2626",
"3 	c #D92525",
"4 	c #F46F6F",
"5 	c #F46B6B",
"6 	c #DBDBDB",
"7 	c #D7D7D7",
"8 	c #D6D6D6",
"9 	c #D72525",
"0 	c #D62525",
"a 	c #F57575",
"b 	c #F57373",
"c 	c #DDDDDD",
"d 	c #DADADA",
"e 	c #F0F0F0",
"f 	c #DCDCDC",
"g 	c #D52424",
"h 	c #D32424",
"i 	c #F57A7A",
"j 	c #DFDFDF",
"k 	c #EEEEEE",
"l 	c #EDEDED",
"m 	c #D22424",
"n 	c #D12424",
"o 	c #F57F7F",
"p 	c #F57C7C",
"q 	c #E4E4E4",
"r 	c #E1E1E1",
"s 	c #EBEBEB",
"t 	c #EAEAEA",
"u 	c #E9E9E9",
"v 	c #CF2424",
"w 	c #F57B7B",
"x 	c #E6E6E6",
"y 	c #E3E3E3",
"z 	c #E8E8E8",
"A 	c #E7E7E7",
"B 	c #E5E5E5",
"C 	c #757575",
"D 	c #A5A5A5",
"E 	c #E2E2E2",
"F 	c #9F9F9F",
"G 	c #E0E0E0",
"H 	c #7D7F7A",
"I 	c #7E807B",
"J 	c #7F817C",
"K 	c #80827D",
"L 	c #81837E",
"M 	c #7C9BC4",
"N 	c #7D9DC5",
"O 	c #7496C1",
"P 	c #6A8EBC",
"Q 	c #DEDEDE",
"R 	c #848681",
"S 	c #848781",
"T 	c #7193BF",
"U 	c #7194BF",
"V 	c #6D90BD",
"W 	c #658ABA",
"X 	c #858782",
"Y 	c #858882",
"Z 	c #3465A4",
"` 	c #868883",
" .	c #D6BF00",
"..	c #868983",
"+.	c #D4D4D4",
"@.	c #D5D5D5",
"#.	c #878984",
"$.	c #878A84",
"%.	c #D3D3D3",
"&.	c #D2D2D2",
"*.	c #888A85",
"=.	c #888B85",
"-.	c #D1D1D1",
";.	c #D0D0D0",
">.	c #CFCFCF",
",.	c #898B86",
"'.	c #898C86",
").	c #CECECE",
"!.	c #CDCDCD",
"~.	c #CCCCCC",
"                                                ",
"                      . .                       ",
"                    . + @ .                     ",
"                  . # $ % & *                   ",
"                . = - ; > , ' .                 ",
"              . ) ! = ~ ~ ~ { ] .               ",
"          . . ^ / ) ~ . . ~ ~ ( _ . .           ",
"        . : < [ } ~ . | 1 . ~ ~ 2 3 3 .         ",
"      . 4 5 : ~ ~ . 6 7 8 | . ~ ~ 3 9 0 .       ",
"    . a b 4 ~ ~ . c d 7 e e f . ~ ~ 0 g h .     ",
"  . i i a ~ . . j f k k l l l c . . ~ h m n .   ",
"  . o p ~ . q r j s s s s t t t u r . ~ n v .   ",
"  . w ~ . x y u u z z z z A A A A x y . ~ ~ .   ",
"  . ~ . A x x x x x B B B q q q q y y y . ~ .   ",
"  . . C q D D D D D D E E F C C C C C G C . .   ",
"      C r r H I J K L j j C M N O P C c C       ",
"      C Q Q R R R R S f f C T U V W C d C       ",
"      C 6 6 X X X Y Y | | C Z Z Z Z C 7 C       ",
"      C 1 1 ` ` `  ...7 8 C Z Z Z Z C +.C       ",
"      C @.@.#.#.$.$.$.+.%.r r r G G G &.C       ",
"      C %.&.*.=.=.=.=.-.-.;.;.;.>.>.>.>.C       ",
"      C ;.>.,.'.'.'.'.).).!.!.!.!.~.~.~.C       ",
"        C C C C C C C C C C C C C C C C         ",
"                                                "};
