/* XPM */
static char * index_xpm[] = {
"24 24 138 2",
"  	c None",
". 	c #BBBBB6",
"+ 	c #BBBBB8",
"@ 	c #BBBFB8",
"# 	c #B8BBB4",
"$ 	c #B8B8B0",
"% 	c #B4B8B0",
"& 	c #B1B6B1",
"* 	c #B9BEB7",
"= 	c #BABDB6",
"- 	c #B9BCB5",
"; 	c #B7BAB3",
"> 	c #B6B9B2",
", 	c #B5B8B1",
"' 	c #B4B7B0",
") 	c #B3B6AF",
"! 	c #B2B5AE",
"~ 	c #B1B4AD",
"{ 	c #B1B3AE",
"] 	c #B9BDB6",
"^ 	c #FEFEFE",
"/ 	c #FBFBFA",
"( 	c #C8CBC5",
"_ 	c #AFB0A9",
": 	c #C9CBC6",
"< 	c #A9ADA6",
"[ 	c #B8B9B3",
"} 	c #CBCBCB",
"| 	c #C7CAC4",
"1 	c #A8A9A3",
"2 	c #B4B8B1",
"3 	c #C5C7C2",
"4 	c #A3A49F",
"5 	c #B1B3AC",
"6 	c #FDFDFD",
"7 	c #FCFCFC",
"8 	c #C3C5C1",
"9 	c #9FA39D",
"0 	c #ACAFA8",
"a 	c #C2C4C0",
"b 	c #9C9D98",
"c 	c #A8ACA7",
"d 	c #C1C3BE",
"e 	c #989A95",
"f 	c #A5A7A2",
"g 	c #DCC9BE",
"h 	c #BFC1BD",
"i 	c #959791",
"j 	c #A2A3A0",
"k 	c #CCCCCC",
"l 	c #FFE8E8",
"m 	c #BEC0BC",
"n 	c #91938E",
"o 	c #9EA09B",
"p 	c #FCE5E4",
"q 	c #BCBFBB",
"r 	c #8E908B",
"s 	c #9B9C97",
"t 	c #E9D3CB",
"u 	c #FDE7E6",
"v 	c #B1A194",
"w 	c #C0BCB6",
"x 	c #8B8C87",
"y 	c #979994",
"z 	c #DDC7BC",
"A 	c #FAE3E2",
"B 	c #DDC8BC",
"C 	c #878984",
"D 	c #949691",
"E 	c #F3DCD8",
"F 	c #F8E1DF",
"G 	c #85857F",
"H 	c #91928D",
"I 	c #DECBBE",
"J 	c #D9C7BC",
"K 	c #F2DCD7",
"L 	c #E8D2CB",
"M 	c #8D8F8A",
"N 	c #FDE6E5",
"O 	c #D7C8BE",
"P 	c #FFE7E6",
"Q 	c #F5DDD8",
"R 	c #8A8B86",
"S 	c #FEE7E7",
"T 	c #FAE3E1",
"U 	c #F8E1DE",
"V 	c #FFE7E4",
"W 	c #FFE6E3",
"X 	c #F7DFD7",
"Y 	c #868883",
"Z 	c #FFE7E7",
"` 	c #FFE8E7",
" .	c #FFE6E1",
"..	c #FFE5DF",
"+.	c #F7DDD5",
"@.	c #83857F",
"#.	c #FEE7E6",
"$.	c #FFE6E2",
"%.	c #FFE5DE",
"&.	c #FFE4DC",
"*.	c #F9DFD4",
"=.	c #7F817C",
"-.	c #FCE3DF",
";.	c #FFE5DD",
">.	c #FFE4DA",
",.	c #A8A8A8",
"'.	c #7A7E79",
").	c #F7F7F7",
"!.	c #F1F0EF",
"~.	c #FFFFFF",
"{.	c #787B76",
"].	c #7B7D78",
"^.	c #82847F",
"/.	c #81837F",
"(.	c #80827E",
"_.	c #7F817D",
":.	c #7F807C",
"<.	c #7E7F7B",
"[.	c #7D7F7A",
"}.	c #7C7E79",
"|.	c #7C7D78",
"1.	c #F6F6F6",
"2.	c #F5F5F5",
"3.	c #F4F4F4",
"4.	c #D7D6D5",
"5.	c #787872",
"6.	c #747870",
"7.	c #747470",
"8.	c #707470",
"9.	c #70746D",
"0.	c #70706D",
"a.	c #6D7069",
"b.	c #6D6D69",
"c.	c #E3E3E3",
"d.	c #E5E5E5",
"e.	c #E4E4E4",
"f.	c #E2E2E2",
"g.	c #E1E0E0",
"    . + + + + + @ + + + + + + # # # $ % % &     ",
"  * = = = = = = = = = - - # ; > , , ' ) ! ~ {   ",
"  ] ^ / / / / / / / / / / / / / / / / / / ( _   ",
"  ] ^ ^ ^ ^ ^ ^ ^ ^ ^ ^ ^ ^ ^ ^ ^ ^ ^ ^ ^ : <   ",
"  [ ^ ^ ^ } } } } } } } } } } } } } } ^ ^ | 1   ",
"  2 ^ ^ ^ } } } } } } } } } } } } } } ^ ^ 3 4   ",
"  5 ^ ^ ^ 6 7 7 7 7 7 7 7 7 7 7 7 7 6 ^ ^ 8 9   ",
"  0 ^ ^ ^ } } } } } } } } } } } } } } ^ ^ a b   ",
"  c ^ ^ ^ } } } } } } } } } } } } } } ^ ^ d e   ",
"  f ^ ^ ^ ^ ^ ^ ^ ^ ^ g g ^ ^ ^ ^ ^ ^ ^ ^ h i   ",
"  j ^ ^ ^ } k k k k k g l g k k } } } ^ ^ m n   ",
"  o ^ ^ ^ } } } } } } g p g } } } } } ^ ^ q r   ",
"  s ^ ^ ^ ^ ^ ^ ^ ^ ^ g t u g g g g g g v w x   ",
"  y ^ ^ ^ } } } } } } } g l g g p z A B u v C   ",
"  D ^ ^ ^ ^ ^ ^ ^ ^ ^ ^ g E F g l g l g l v G   ",
"  H ^ ^ ^ } } } } I I J } g l K l l l l l L v   ",
"  M ^ ^ ^ } } } } I N J J O A l l l l l P Q v   ",
"  R ^ ^ ^ 6 7 7 7 7 I S T J U l l l P V W X v   ",
"  Y ^ ^ ^ } } } } } } I Z l l ` P V W  ...+.v   ",
"  @.^ ^ ^ } } } } } } } I #.P V $. ...%.&.*.v   ",
"  =.^ ^ ^ ^ ^ ^ ^ ^ ^ ^ ^ I -. ...;.&.>.,.,.,.,.",
"  '.^ ^ ^ ^ ^ ^ ^ ^ ^ ^ ^ ^ I I &.>.,.,.).!.~.,.",
"  {.].^./.(._.:.<.[.}.}.].].|.I I ,.).).1.2.3.4.",
"    5.6.7.7.8.9.9.0.0.0.a.a.b.b.,.c.d.e.f.g.4.4."};
