/* XPM */
static char * info_xpm[] = {
"24 24 36 1",
" 	c None",
".	c #BABDB6",
"+	c #FFFFFF",
"@	c #FFFFFD",
"#	c #FFFFFC",
"$	c #BBBEB6",
"%	c #BABDB5",
"&	c #BBBEB5",
"*	c #FFFDF2",
"=	c #1E1A09",
"-	c #FFFBEA",
";	c #BCBEB4",
">	c #FFFDF9",
",	c #1E1E09",
"'	c #F8F8F8",
")	c #323232",
"!	c #545454",
"~	c #636363",
"{	c #BABEB6",
"]	c #BABCB5",
"^	c #676767",
"/	c #CCCCCC",
"(	c #CACACA",
"_	c #7F817C",
":	c #B6B9B2",
"<	c #959792",
"[	c #BEC1BA",
"}	c #D6D7D3",
"|	c #E1E2DF",
"1	c #C7C9C3",
"2	c #8D8F8A",
"3	c #DADBD7",
"4	c #E6E7E4",
"5	c #C9CBC5",
"6	c #888A85",
"7	c #2E3436",
"                        ",
"                        ",
"                        ",
"                        ",
"         .++++.         ",
"        +     +.        ",
"       .        .       ",
"       @        #       ",
"      $          %      ",
"      &  +    +  %      ",
"       * =++++= -       ",
"       ;  =  =  &       ",
"        > =  ,  &       ",
"        .  = = .        ",
"         ' )!~ {        ",
"         ]^^/({         ",
"         ])^__:         ",
"         <[}|1<         ",
"         2[3452         ",
"         6[3456         ",
"          6666          ",
"           77           ",
"                        ",
"                        "};
