/* XPM */
static char * jump_to_xpm[] = {
"24 24 78 1",
" 	c None",
".	c #BABDB6",
"+	c #BBBEB7",
"@	c #FAFAF9",
"#	c #E8E8E6",
"$	c #DADAD8",
"%	c #B0B3AC",
"&	c #B6B9B3",
"*	c #E0E0DE",
"=	c #D3D4D1",
"-	c #CDCFCA",
";	c #ABAEA7",
">	c #DDDEDB",
",	c #F7F7F6",
"'	c #E7E8E6",
")	c #B8BBB4",
"!	c #B3B6AF",
"~	c #C7C8C4",
"{	c #CED1CB",
"]	c #A9ACA5",
"^	c #F0F0EF",
"/	c #D8D9D6",
"(	c #ABADA7",
"_	c #A8ABA4",
":	c #B9BCB5",
"<	c #DCDCDA",
"[	c #C9CBC7",
"}	c #AEB1AA",
"|	c #B3B6B0",
"1	c #7C7E79",
"2	c #777974",
"3	c #747671",
"4	c #5C5E59",
"5	c #595B56",
"6	c #555752",
"7	c #7A7C77",
"8	c #FFFFFF",
"9	c #F7F7F7",
"0	c #676964",
"a	c #585A55",
"b	c #F1F1F1",
"c	c #828480",
"d	c #DBDCDA",
"e	c #DBDBD9",
"f	c #E9E9E8",
"g	c #C2C3C1",
"h	c #FEFEFE",
"i	c #DADBD9",
"j	c #FCFCFC",
"k	c #6C6E69",
"l	c #F8F8F8",
"m	c #DCDDDA",
"n	c #EFEFEE",
"o	c #A7A9A6",
"p	c #FDFDFD",
"q	c #DCDDDB",
"r	c #E8E9E8",
"s	c #6F716C",
"t	c #E9EAE7",
"u	c #E0E1DE",
"v	c #F5F5F4",
"w	c #E1E2DF",
"x	c #E1E1DF",
"y	c #ECECEB",
"z	c #7C7E7A",
"A	c #EBEBEA",
"B	c #E3E4E1",
"C	c #E5E6E4",
"D	c #E3E4E2",
"E	c #E5E5E3",
"F	c #EEEFED",
"G	c #7B7D79",
"H	c #E8E9E7",
"I	c #E9EAE8",
"J	c #F1F2F1",
"K	c #8D8E8B",
"L	c #F3F3F3",
"M	c #ADAEAC",
"                        ",
"                        ",
"         ..+            ",
"        +@#$%           ",
"   ...  &*=-;           ",
"  .>,') !~{)]           ",
"  .,^/!  (__            ",
"  :<=[}     ..+         ",
"   |||     +@#$%        ",
"           &*=-;        ",
"           !~{)]        ",
"            (__         ",
"         123    456     ",
"        78980  a8b86    ",
"        cdefg45hiij6    ",
"        klmdnopqmmr6    ",
"         stuuvwuxy6     ",
"         azABCDEFG6     ",
"          6zyHIJG6      ",
"           6KbLG6       ",
"            6MM6        ",
"             66         ",
"                        ",
"                        "};
