/* XPM */
static char * last_page_xpm[] = {
"24 24 82 1",
" 	c None",
".	c #CCCCCC",
"+	c #3E263B",
"@	c #FFFFFF",
"#	c #FEFEFE",
"$	c #EFF1EE",
"%	c #EDEDED",
"&	c #FCFCFC",
"*	c #FAFAFA",
"=	c #FDFDFD",
"-	c #DDDFDA",
";	c #C6C9C3",
">	c #AEB0AB",
",	c #E4E5E2",
"'	c #F8F8F8",
")	c #F6F6F6",
"!	c #F4F4F4",
"~	c #CBCBCB",
"{	c #C6C6C6",
"]	c #FBFBFB",
"^	c #F9F9F9",
"/	c #F7F7F7",
"(	c #F5F5F5",
"_	c #F2F2F2",
":	c #C0C0C0",
"<	c #F3F3F3",
"[	c #F1F1F1",
"}	c #BBBBBB",
"|	c #4E9A06",
"1	c #E3E4E1",
"2	c #B5B5B5",
"3	c #523856",
"4	c #F6FDEF",
"5	c #B0B0B0",
"6	c #EEFBE1",
"7	c #CDF3A9",
"8	c #DCF7C3",
"9	c #F0F0F0",
"0	c #EEEEEE",
"a	c #E6F9D3",
"b	c #B7ED82",
"c	c #CCF2A7",
"d	c #DEF7C6",
"e	c #A0E75B",
"f	c #EFEFEF",
"g	c #BCBCBC",
"h	c #4D9906",
"i	c #B0E97A",
"j	c #8FDF41",
"k	c #9B9B9B",
"l	c #B6B6B6",
"m	c #B4B4B4",
"n	c #4A9206",
"o	c #A4E367",
"p	c #7ED727",
"q	c #A9E56F",
"r	c #A6E46A",
"s	c #C7EEA1",
"t	c #3C7904",
"u	c #8B8D88",
"v	c #C3C4C0",
"w	c #C0C3BE",
"x	c #478C05",
"y	c #9FE15E",
"z	c #76D419",
"A	c #AECC91",
"B	c #8E908B",
"C	c #C4C7C2",
"D	c #B6E885",
"E	c #B4B7B1",
"F	c #B1B3AE",
"G	c #888A85",
"H	c #438505",
"I	c #A4E465",
"J	c #C1ED97",
"K	c #D2F2B2",
"L	c #ADE774",
"M	c #407F05",
"N	c #85DE2D",
"O	c #8AE234",
"P	c #ADEB71",
"Q	c #3A7404",
"                        ",
"                        ",
"                        ",
"      .....   ....      ",
"   +..@@#$@%%#&*=&..+   ",
"  +.@@@@=$-;>,&*')!*~+  ",
"  +.@@@@=$-;>,&*')!*{+  ",
"  +.@@@@=$-;>,]^/(!_:+  ",
"  +.@@@@=$-;>,]^/(<[}+  ",
"  +.@@@|||-;>1*^/(<[23  ",
"  +@@@|444|;>1*')!_[53  ",
"  +@@|6778|;>1*')!_903  ",
"  +@|abbc|||||||)!_9^3  ",
"  +|deeeeeeeeeed|<[f^3  ",
" +ghijjjjjjjjjjjdh*^^k3 ",
" +lmnoppqnnnnnnrostkkk3 ",
" +uvwxyzzAtuuBChyDtEFG3 ",
" +3333HIIJHHHHHKILt3333 ",
"       MMMMNNNNNNM      ",
"          tOOOOPt       ",
"           QQQQQ        ",
"                        ",
"                        ",
"                        "};
