/* XPM */
static char * left_arrow_xpm[] = {
"24 24 47 1",
" 	c None",
".	c #4E9A06",
"+	c #F6FDEF",
"@	c #F1FCE7",
"#	c #D7F5BA",
"$	c #E3F8CF",
"%	c #EDFBDF",
"&	c #CBF2A4",
"*	c #DAF6BF",
"=	c #E8FAD8",
"-	c #BEEF8F",
";	c #D1F4B0",
">	c #E4F9D0",
",	c #B1EC79",
"'	c #C8F2A1",
")	c #E0F7C8",
"!	c #A5E863",
"~	c #C0EF91",
"{	c #DCF6C2",
"]	c #9AE551",
"^	c #B8ED85",
"/	c #4E9906",
"(	c #B1E97B",
"_	c #90E043",
":	c #4C9506",
"<	c #ABE671",
"[	c #87DB34",
"}	c #4A9206",
"|	c #A4E367",
"1	c #7DD726",
"2	c #AAE571",
"3	c #AAE572",
"4	c #488E05",
"5	c #9DDF5C",
"6	c #74D217",
"7	c #B5E784",
"8	c #468B05",
"9	c #A0E25F",
"0	c #77D51B",
"a	c #C8EEA2",
"b	c #448705",
"c	c #A2E463",
"d	c #7BD821",
"e	c #C8EFA2",
"f	c #428405",
"g	c #A5E667",
"h	c #408005",
"                        ",
"                        ",
"                        ",
"                        ",
"        ...             ",
"       .+++.            ",
"      .@@##$.           ",
"     .%%&&&*.           ",
"    .==---;*.           ",
"   .>>,,,''...........  ",
"  .))!!!~))))))))))))~. ",
" .{{]]]]]]]]]]]]]]]]]]^.",
" /((__________________(/",
"  :<<[[[<<<<<<<<<<<<<<: ",
"   }||11123}}}}}}}}}}}  ",
"    455666774           ",
"     899000a8           ",
"      bccddeb           ",
"       fgggh            ",
"        hhh             ",
"                        ",
"                        ",
"                        ",
"                        "};
