/* XPM */
static char * letter_xpm[] = {
"24 24 48 1",
" 	c None",
".	c #A1A29E",
"+	c #A6A8A4",
"@	c #A5A7A3",
"#	c #A4A6A2",
"$	c #A3A5A1",
"%	c #9C9E9A",
"&	c #888A85",
"*	c #A2A2A2",
"=	c #FDFDFD",
"-	c #FBFBFB",
";	c #FAFAFA",
">	c #F8F8F8",
",	c #F7F7F7",
"'	c #F6F6F6",
")	c #F5F5F5",
"!	c #F4F4F4",
"~	c #F3F3F3",
"{	c #B1B1B1",
"]	c #FFFFFF",
"^	c #F2F2F2",
"/	c #FCFCFC",
"(	c #F1F1F1",
"_	c #F0F0F0",
":	c #EBEBEB",
"<	c #A7A7A7",
"[	c #EFEFEF",
"}	c #EAEAEA",
"|	c #E9E9E9",
"1	c #EEEEEE",
"2	c #E8E8E8",
"3	c #EDEDED",
"4	c #ECECEC",
"5	c #F9F9F9",
"6	c #E7E7E7",
"7	c #E6E6E6",
"8	c #DFE0DF",
"9	c #E5E5E5",
"0	c #C5C7C5",
"a	c #E1E1E1",
"b	c #E4E4E4",
"c	c #E3E3E3",
"d	c #EDEFEE",
"e	c #DEDFDE",
"f	c #DDDEDD",
"g	c #E2E2E2",
"h	c #DBDCDB",
"i	c #E1E2E1",
"                        ",
"                        ",
"                        ",
"                        ",
" ..++++++++@#####$$$$%& ",
" .*=----;;>>,,''')!~~{& ",
" .]*;>>,,'')))!!~~^~{]& ",
" .]*/,'''))!!~~^^^^^{]& ",
" .]^*/))!!~~^^^(__({:]& ",
" .](_<-~~^^^(___[^{}|]& ",
" .][[1{;^(___[[1^{|22]& ",
" .]1334{5([[111~{2667]& ",
" .]44:::{>5)~(_{87799]& ",
" .]:}}|{0{{{{{{0{abbc]& ",
" .]||2{d^67799bbe{fgg]& ",
" .]2b{,:999bbccggg{hg]& ",
" .]i{!7bbcccggggggg{f]& ",
" .{{2bccgggggggggggg{{& ",
" &&&&&&&&&&&&&&&&&&&&&& ",
"                        ",
"                        ",
"                        ",
"                        ",
"                        "};
