/* XPM */
static char * lock_broken_xpm[] = {
"24 24 181 2",
"  	c None",
". 	c #888A85",
"+ 	c #AEAFAB",
"@ 	c #EAEBEA",
"# 	c #E2E3E2",
"$ 	c #CFD0CE",
"% 	c #A8A9A5",
"& 	c #9FA09C",
"* 	c #EFF0ED",
"= 	c #FFFFFF",
"- 	c #F6F6F5",
"; 	c #F8F9F8",
"> 	c #EAECEA",
", 	c #E0E4DD",
"' 	c #E5E7E3",
") 	c #D8DCD5",
"! 	c #8E908B",
"~ 	c #939590",
"{ 	c #F1F2F0",
"] 	c #F3F4F2",
"^ 	c #E5E7E2",
"/ 	c #8B8D88",
"( 	c #E4E7E2",
"_ 	c #D9DDD6",
": 	c #F3F4F3",
"< 	c #ECEEEB",
"[ 	c #D4D6D4",
"} 	c #8C8E89",
"| 	c #949591",
"1 	c #E5E8E3",
"2 	c #D3D7CF",
"3 	c #858782",
"4 	c #B4B6B2",
"5 	c #F0F2F0",
"6 	c #949691",
"7 	c #CFD3CB",
"8 	c #868883",
"9 	c #CED3CB",
"0 	c #EFF0EE",
"a 	c #7D6400",
"b 	c #CED2CA",
"c 	c #775F00",
"d 	c #B2B3B0",
"e 	c #EDEEEC",
"f 	c #DDDFDC",
"g 	c #FFF8B5",
"h 	c #98946C",
"i 	c #C3BE8A",
"j 	c #FFF8B6",
"k 	c #92948F",
"l 	c #E0E3DD",
"m 	c #CCCFC8",
"n 	c #E7E0A5",
"o 	c #F3EDAE",
"p 	c #AFB1AD",
"q 	c #EAECE9",
"r 	c #FFFACB",
"s 	c #FFF9BE",
"t 	c #FFF9C0",
"u 	c #C3BE94",
"v 	c #FFF9BF",
"w 	c #E5E1AD",
"x 	c #969793",
"y 	c #8E8F8B",
"z 	c #CAC89C",
"A 	c #F6F0B9",
"B 	c #F7F2C8",
"C 	c #ACAEAA",
"D 	c #E8EAE7",
"E 	c #CFD1CD",
"F 	c #F8EF9F",
"G 	c #FEFCED",
"H 	c #FFFDF2",
"I 	c #FFFEF5",
"J 	c #FEFDF3",
"K 	c #FDFCF0",
"L 	c #FFFFFA",
"M 	c #FBF9EC",
"N 	c #FAF8EB",
"O 	c #F9F8EA",
"P 	c #F8F6E8",
"Q 	c #FAF8E8",
"R 	c #E8D849",
"S 	c #AAABA8",
"T 	c #E7EAE6",
"U 	c #999B97",
"V 	c #F4E136",
"W 	c #FBEE73",
"X 	c #FDF391",
"Y 	c #F6EA77",
"Z 	c #CDC048",
"` 	c #C5B83B",
" .	c #BEB030",
"..	c #B7A927",
"+.	c #B0A21C",
"@.	c #A99A13",
"#.	c #A29409",
"$.	c #9E8E00",
"%.	c #CDB800",
"&.	c #EADA4A",
"*.	c #A6A8A4",
"=.	c #E7E9E5",
"-.	c #D5DAD3",
";.	c #ECDE52",
">.	c #E4D544",
",.	c #DCCC38",
"'.	c #790000",
").	c #989A95",
"!.	c #ADAFAB",
"~.	c #8F918C",
"{.	c #F8EE9E",
"].	c #A40000",
"^.	c #F5BBBB",
"/.	c #FADDDD",
"(.	c #FAD4D4",
"_.	c #F9C8C8",
":.	c #F8BABA",
"<.	c #F7ABAB",
"[.	c #F69A9A",
"}.	c #F04848",
"|.	c #900000",
"1.	c #F7EE99",
"2.	c #FAD6D6",
"3.	c #F4A0A0",
"4.	c #F39595",
"5.	c #F38787",
"6.	c #F27777",
"7.	c #F16565",
"8.	c #F15353",
"9.	c #F57A7A",
"0.	c #8B0000",
"a.	c #F7ED95",
"b.	c #F9C9C9",
"c.	c #F38C8C",
"d.	c #F16969",
"e.	c #F04747",
"f.	c #F36B6B",
"g.	c #860000",
"h.	c #F7EC91",
"i.	c #A10000",
"j.	c #F8B9B9",
"k.	c #F03A3A",
"l.	c #F35B5B",
"m.	c #820000",
"n.	c #F7EC8E",
"o.	c #FBEE72",
"p.	c #FDF390",
"q.	c #F6EA76",
"r.	c #9C0000",
"s.	c #F7A7A7",
"t.	c #F16363",
"u.	c #F15C5C",
"v.	c #EF2C2C",
"w.	c #F25252",
"x.	c #7D0000",
"y.	c #F6EB89",
"z.	c #F4E033",
"A.	c #FBEC67",
"B.	c #FDF182",
"C.	c #F5E96C",
"D.	c #ECDD51",
"E.	c #980000",
"F.	c #F69595",
"G.	c #F04D4D",
"H.	c #EF2929",
"I.	c #F14A4A",
"J.	c #806705",
"K.	c #930000",
"L.	c #F57F7F",
"M.	c #F03838",
"N.	c #F14141",
"O.	c #740000",
"P.	c #8F0000",
"Q.	c #F46B6B",
"R.	c #F03939",
"S.	c #6F0000",
"T.	c #830000",
"U.	c #800000",
"V.	c #7C0000",
"W.	c #750000",
"X.	c #720000",
"                              . . .             ",
"                            + @ # $ % %         ",
"                          & * = - ; ; > %       ",
"                        . , ' ) ! ~ { ] ^ /     ",
"                        . ( _ .     ~ : < [ }   ",
"                        | 1 2 3       4 5 [ }   ",
"                        6 1 7 8       4 { [ }   ",
"                        6 1 9 8       4 0 [ }   ",
"      a a a a a a a a a 6 1 b 8 c a   d e f }   ",
"    a g g h i g j j j j k l m 3 n o a p q [ }   ",
"    a r s t u t v v v v w x y z A B a C D E }   ",
"    a F G H I J K L L L M N O P Q R a S T U }   ",
"    a F V W X Y Z `  ...+.@.#.$.%.&.a *.=.-.}   ",
"    a F V W X Y ;.>.,.'.'.'.'.'.'.'.'.).!.~.}   ",
"    a {.V W X Y ;.>.].^./.(._.:.<.[.}.|.        ",
"    a 1.V W X Y ;.>.].2.3.4.5.6.7.8.9.0.        ",
"    a a.V W X Y ;.>.].b.c.= 6.d.= e.f.g.        ",
"    a h.V W X Y ;.>.i.j.6.= = = = k.l.m.        ",
"    a n.V o.p.q.;.>.r.s.t.u.= = k.v.w.x.        ",
"    a y.z.A.B.C.D.>.E.F.G.= = = = H.I.'.        ",
"      a a J.a a a a K.L.M.= v.H.= H.N.O.        ",
"                    P.Q.H.H.H.H.H.H.R.S.        ",
"                      g.T.U.V.'.W.X.S.          ",
"                                                "};
