/* XPM */
static char * lock_xpm[] = {
"24 24 223 2",
"  	c None",
". 	c #B1B1B1",
"+ 	c #ACACA9",
"@ 	c #A9A9A5",
"# 	c #B0B0AA",
"$ 	c #BDBDBA",
"% 	c #BBBBB9",
"& 	c #D1D1CF",
"* 	c #DFDFDD",
"= 	c #DEDFDC",
"- 	c #CFD0CE",
"; 	c #AFB0AD",
"> 	c #9B9D99",
", 	c #ACADAA",
"' 	c #F8F9F8",
") 	c #FCFCFC",
"! 	c #F6F7F6",
"~ 	c #F6F6F5",
"{ 	c #F3F4F2",
"] 	c #F1F3F0",
"^ 	c #E9EBE7",
"/ 	c #C3C5C0",
"( 	c #9B9E9A",
"_ 	c #AEAEAC",
": 	c #C8CAC6",
"< 	c #EBEDEB",
"[ 	c #949894",
"} 	c #D6D8D3",
"| 	c #DFE2DC",
"1 	c #B8BAB3",
"2 	c #9D9D9A",
"3 	c #ABAEAA",
"4 	c #E9EBE8",
"5 	c #E5E7E4",
"6 	c #D7DBD5",
"7 	c #D4D8D1",
"8 	c #9B9F9A",
"9 	c #B3B4B2",
"0 	c #F0F1EF",
"a 	c #C6C7C4",
"b 	c #C4C6C2",
"c 	c #D6D9D3",
"d 	c #9D9F9B",
"e 	c #B9BAB7",
"f 	c #F1F2F0",
"g 	c #AEB2AD",
"h 	c #B9BBB7",
"i 	c #D5D9D2",
"j 	c #9E9F9B",
"k 	c #806000",
"l 	c #9D8A42",
"m 	c #B9B9B3",
"n 	c #EFF0EE",
"o 	c #A9AAA0",
"p 	c #887313",
"q 	c #89710A",
"r 	c #886E07",
"s 	c #886E06",
"t 	c #846C05",
"u 	c #8F7D27",
"v 	c #B4B6AE",
"w 	c #D4D8D2",
"x 	c #9A9C96",
"y 	c #8C7313",
"z 	c #806800",
"A 	c #8B7201",
"B 	c #C2B149",
"C 	c #DCCF75",
"D 	c #BCBCB3",
"E 	c #EBEDEA",
"F 	c #AEAEA3",
"G 	c #E6DF95",
"H 	c #E9E193",
"I 	c #EDE598",
"J 	c #ECE496",
"K 	c #E8DE8F",
"L 	c #DCD68B",
"M 	c #B9BAB0",
"N 	c #D4D7D1",
"O 	c #A0A095",
"P 	c #CFC15F",
"Q 	c #B9A63E",
"R 	c #8B7200",
"S 	c #AA962D",
"T 	c #FFF9B8",
"U 	c #FAF4B8",
"V 	c #AFAFA7",
"W 	c #D9DCD8",
"X 	c #A1A299",
"Y 	c #E5E0A8",
"Z 	c #EEE8AD",
"` 	c #F3EDB0",
" .	c #F0EAAE",
"..	c #E8E2AD",
"+.	c #ADAFA8",
"@.	c #C9CDC6",
"#.	c #9A9B93",
"$.	c #F3EDB2",
"%.	c #FFF9BA",
"&.	c #9C871A",
"*.	c #AF9D40",
"=.	c #FFFBD1",
"-.	c #FFFAC9",
";.	c #D7D3B4",
">.	c #B5B6A4",
",.	c #CFCDA9",
"'.	c #F3EDB9",
").	c #F5EFBA",
"!.	c #F8F2BD",
"~.	c #F6F0BB",
"{.	c #F4EEBC",
"].	c #CDCBAB",
"^.	c #B4B4A3",
"/.	c #D3CFAE",
"(.	c #FFFBC9",
"_.	c #FFFBD3",
":.	c #9D871A",
"<.	c #9B841A",
"[.	c #F9F1A3",
"}.	c #FBF5B2",
"|.	c #FEFACE",
"1.	c #FDFBDF",
"2.	c #FBF9E1",
"3.	c #F9F6D7",
"4.	c #F9F6D9",
"5.	c #F8F5D8",
"6.	c #F5F2D3",
"7.	c #F3EFD0",
"8.	c #F2EECC",
"9.	c #EEE9BF",
"0.	c #E7E1A7",
"a.	c #EAE196",
"b.	c #EADD77",
"c.	c #907703",
"d.	c #F5E86C",
"e.	c #F7E549",
"f.	c #FDF07F",
"g.	c #FDF390",
"h.	c #F7EB79",
"i.	c #EFE057",
"j.	c #E5D546",
"k.	c #DECE3D",
"l.	c #D6C732",
"m.	c #CEBD28",
"n.	c #C5B51E",
"o.	c #BDAC14",
"p.	c #B6A50B",
"q.	c #AC9C01",
"r.	c #BCA900",
"s.	c #DCCA34",
"t.	c #E7D747",
"u.	c #E0D03D",
"v.	c #D9C933",
"w.	c #D2C129",
"x.	c #CBBA1F",
"y.	c #C4B215",
"z.	c #BDAB0B",
"A.	c #B5A401",
"B.	c #C7B300",
"C.	c #DBCA34",
"D.	c #F5E76B",
"E.	c #D6C632",
"F.	c #DECB34",
"G.	c #F5E768",
"H.	c #C5B200",
"I.	c #DAC934",
"J.	c #9A841A",
"K.	c #F5E767",
"L.	c #B6A40B",
"M.	c #BDAA00",
"N.	c #DFCD34",
"O.	c #F5E665",
"P.	c #C4B000",
"Q.	c #D9C734",
"R.	c #8F7603",
"S.	c #988218",
"T.	c #F5E663",
"U.	c #D7C733",
"V.	c #C7B61E",
"W.	c #BFAC00",
"X.	c #E0CE34",
"Y.	c #8E7503",
"Z.	c #947F17",
"`.	c #F5E661",
" +	c #F7E548",
".+	c #FDF07E",
"++	c #FDF38F",
"@+	c #F7EA77",
"#+	c #EFE056",
"$+	c #B4A301",
"%+	c #C2AF00",
"&+	c #D8C634",
"*+	c #8B7303",
"=+	c #8F770F",
"-+	c #F5E76D",
";+	c #F7E653",
">+	c #FCF078",
",+	c #FDF183",
"'+	c #F6E96D",
")+	c #EEE054",
"!+	c #C6B61E",
"~+	c #B6A40C",
"{+	c #B0A009",
"]+	c #C4B20E",
"^+	c #E1CF39",
"/+	c #866F01",
"(+	c #645300",
"_+	c #9C8830",
":+	c #AF9E4E",
"<+	c #BBAC62",
"[+	c #C7BA70",
"}+	c #CABE6E",
"|+	c #C9BC66",
"1+	c #C8B95D",
"2+	c #C8B858",
"3+	c #C4B450",
"4+	c #BCAB48",
"5+	c #B7A745",
"6+	c #B1A140",
"7+	c #AA983C",
"8+	c #9F8D32",
"9+	c #9B872B",
"0+	c #5E4B00",
"                    . + @ #                     ",
"                $ % & * = - ; >                 ",
"              , ' ) ! ~ { ] ^ / (               ",
"            _ : ! < [ [ [ [ } | 1 2             ",
"            3 4 5 [         [ 6 7 8             ",
"            9 0 a [         [ b c d             ",
"            e f g [         [ h i j             ",
"        k l m n o p q r s t u v w x y z         ",
"      A B C D E F G H I J K L M N O P Q R       ",
"      S T U V W X Y Z ` `  ...+.@.#.$.%.&.      ",
"      *.=.-.;.>.,.'.).!.!.~.{.].^./.(._.:.      ",
"      <.[.}.|.1.2.3.4.5.5.6.7.8.9.0.a.b.c.      ",
"      <.d.e.f.g.h.i.j.k.l.m.n.o.p.q.r.s.c.      ",
"      <.d.e.f.g.h.i.t.u.v.w.x.y.z.A.B.C.c.      ",
"      <.D.e.f.g.h.i.j.k.E.m.n.o.p.q.r.F.c.      ",
"      <.G.e.f.g.h.i.t.u.v.w.x.y.z.A.H.I.c.      ",
"      J.K.e.f.g.h.i.j.k.E.m.n.o.L.q.M.N.c.      ",
"      J.O.e.f.g.h.i.t.u.v.w.x.y.z.A.P.Q.R.      ",
"      S.T.e.f.g.h.i.t.k.U.m.V.o.L.q.W.X.Y.      ",
"      Z.`. +.+++@+#+t.u.v.w.x.y.z.$+%+&+*+      ",
"      =+-+;+>+,+'+)+j.k.E.m.!+o.~+{+]+^+/+      ",
"      (+_+:+<+[+}+|+1+2+3+4+5+6+7+8+9+/+0+      ",
"        /+/+=+Z.Z.Z.Z.Z.Z.Z.Z.Z./+/+/+/+        ",
"                                                "};
