/* XPM */
static char * lock_ok_xpm[] = {
"24 24 115 2",
"  	c None",
". 	c #9A9C98",
"+ 	c #ACADA9",
"@ 	c #B5B6B3",
"# 	c #AAACA8",
"$ 	c #979894",
"% 	c #A7A9A5",
"& 	c #F8F9F8",
"* 	c #F7F8F7",
"= 	c #F8F8F7",
"- 	c #F6F7F5",
"; 	c #F3F5F3",
"> 	c #E7EAE6",
", 	c #9C9E9A",
"' 	c #A4A5A1",
") 	c #A6A7A3",
"! 	c #9A9B97",
"~ 	c #E4E7E2",
"{ 	c #DDE1DA",
"] 	c #9B9C98",
"^ 	c #A2A39F",
"/ 	c #ECEEEA",
"( 	c #EEEFED",
"_ 	c #D6DAD2",
": 	c #939590",
"< 	c #EFF0EE",
"[ 	c #9FA19D",
"} 	c #D4D7D0",
"| 	c #A4A6A2",
"1 	c #B8B9B6",
"2 	c #AEB0AC",
"3 	c #4E9A06",
"4 	c #A5A6A3",
"5 	c #B7B8B5",
"6 	c #9E9F9B",
"7 	c #CCF2A6",
"8 	c #7D6400",
"9 	c #826A0A",
"0 	c #B6B7B4",
"a 	c #806806",
"b 	c #8AE234",
"c 	c #7E6502",
"d 	c #FFF8B7",
"e 	c #FFF9B9",
"f 	c #9D9F9B",
"g 	c #AAABA8",
"h 	c #969793",
"i 	c #E2DCA4",
"j 	c #EEE8AC",
"k 	c #F2ECAF",
"l 	c #F3EDB0",
"m 	c #F0EAAE",
"n 	c #8F918C",
"o 	c #F8F2B5",
"p 	c #FFF9BA",
"q 	c #FFFBD4",
"r 	c #FFF9C0",
"s 	c #E0DBB0",
"t 	c #F3EDB7",
"u 	c #F5EFB8",
"v 	c #F7F1BB",
"w 	c #F8F2BC",
"x 	c #E9E4B3",
"y 	c #FFFAC2",
"z 	c #FFFCD6",
"A 	c #F9F0A2",
"B 	c #F5E33C",
"C 	c #FBFBF7",
"D 	c #FCFCF7",
"E 	c #FCFBF6",
"F 	c #FDFCF7",
"G 	c #CAB600",
"H 	c #E8D74A",
"I 	c #F5E33F",
"J 	c #A89A11",
"K 	c #A29308",
"L 	c #9E8E00",
"M 	c #FCEF77",
"N 	c #CAB91E",
"O 	c #C3B214",
"P 	c #BCAA09",
"Q 	c #B7A500",
"R 	c #D2C44A",
"S 	c #F8F0A0",
"T 	c #D8D07C",
"U 	c #B2A422",
"V 	c #F8EF9D",
"W 	c #FEF492",
"X 	c #D2C96A",
"Y 	c #B9AA2B",
"Z 	c #D1C128",
"` 	c #F8EE99",
" .	c #F7EC7D",
"..	c #CBBF4C",
"+.	c #C5B83D",
"@.	c #BFB134",
"#.	c #D9C833",
"$.	c #F8EE95",
"%.	c #EFE059",
"&.	c #E7D848",
"*.	c #E0D03D",
"=.	c #F7ED92",
"-.	c #F7EC7C",
";.	c #F7ED8E",
">.	c #F5E33E",
",.	c #FCEF74",
"'.	c #FEF38F",
").	c #F7EB79",
"!.	c #F7EC8B",
"~.	c #F5E239",
"{.	c #FBED65",
"].	c #FDF17E",
"^.	c #F6E96B",
"/.	c #EEE055",
"(.	c #7F6603",
"                                                ",
"                  . + @ @ # $                   ",
"                % & * = - ; > ,                 ",
"              % - * ' ' ) ! ~ { ]               ",
"            ^ / ( !         ! { _ :             ",
"            ^ < [             ! } :             ",
"            | 1 [             2 3 3             ",
"            4 5 6             3 7 7 3           ",
"        8 9 4 0 , a a a a a 3 7 b 3 c 8         ",
"      8 d e f g h i j k l m 3 b 3 n o p 8       ",
"      8 q r 3 3 s t u v w 3 b b 3 x y z 8       ",
"      8 A B 3 7 3 C D D 3 b b 3 E F G H 8       ",
"      8 A I 3 b b 3 3 3 b b 3 J K L G H 8       ",
"      8 A I M 3 b b 7 7 b 3 N O P Q G R 8       ",
"      8 S I M T 3 b b b 3 U N O P Q G H 8       ",
"      8 V I M W X 3 3 3 Y Z N O P Q G R 8       ",
"      8 ` I M W  ...+.@.#.Z N O P Q G H 8       ",
"      8 $.I M W  .%.&.*.#.Z N O P Q G R 8       ",
"      8 =.I M W -.%.&.*.#.Z N O P Q G H 8       ",
"      8 ;.>.,.'.).%.&.*.#.Z N O P Q G R 8       ",
"      8 !.~.{.].^./.&.*.#.Z N O P Q G H 8       ",
"        8 8 (.a a a a a a a a a a 8 8 8         ",
"                                                ",
"                                                "};
