/* XPM */
static char * new_xpm[] = {
"24 24 114 2",
"  	c None",
". 	c #969696",
"+ 	c #9B9B9B",
"@ 	c #9F9F9F",
"# 	c #A0A0A0",
"$ 	c #9C9C9C",
"% 	c #979797",
"& 	c #939393",
"* 	c #8E8E8E",
"= 	c #898989",
"- 	c #848484",
"; 	c #808080",
"> 	c #93936B",
", 	c #A9A858",
"' 	c #B9B84A",
") 	c #C1C044",
"! 	c #BCBB42",
"~ 	c #ACAB47",
"{ 	c #90904D",
"] 	c #DDDDDD",
"^ 	c #DEDEDE",
"/ 	c #E5E5E5",
"( 	c #E0E0E0",
"_ 	c #E1E1E1",
": 	c #E2E2E2",
"< 	c #E3E3E3",
"[ 	c #E6E6C5",
"} 	c #EBEA94",
"| 	c #F0EE67",
"1 	c #F3F144",
"2 	c #FFFFFF",
"3 	c #F4F236",
"4 	c #F1EF4E",
"5 	c #F7F57E",
"6 	c #959595",
"7 	c #DFDFDF",
"8 	c #E6E6E6",
"9 	c #E4E4E4",
"0 	c #EAE9AA",
"a 	c #EFEE71",
"b 	c #F3F23B",
"c 	c #F7F666",
"d 	c #F6F546",
"e 	c #F6F551",
"f 	c #F5F32A",
"g 	c #929292",
"h 	c #E8E8E8",
"i 	c #ECEB99",
"j 	c #F2F15C",
"k 	c #F5F42A",
"l 	c #8F8F8F",
"m 	c #E9E9E9",
"n 	c #E7E7E7",
"o 	c #EEED97",
"p 	c #F2F157",
"q 	c #F8F654",
"r 	c #F6F42C",
"s 	c #F6F42A",
"t 	c #8B8B8B",
"u 	c #EDECA1",
"v 	c #F1F064",
"w 	c #F5F328",
"x 	c #F5F33E",
"y 	c #F5F32B",
"z 	c #878787",
"A 	c #EAEAEA",
"B 	c #EDECBA",
"C 	c #F0EF83",
"D 	c #F3F250",
"E 	c #F6F565",
"F 	c #F4F12B",
"G 	c #838383",
"H 	c #EBEBEB",
"I 	c #ECECEC",
"J 	c #EEEEAC",
"K 	c #F0EF81",
"L 	c #F2F162",
"M 	c #F3F152",
"N 	c #F4F256",
"O 	c #F2F16C",
"P 	c #F8F797",
"Q 	c #7F7F7F",
"R 	c #EDEDED",
"S 	c #EEEEEE",
"T 	c #F0EFBB",
"U 	c #F1F0A1",
"V 	c #F1F195",
"W 	c #F0EF96",
"X 	c #EFEFA8",
"Y 	c #F8F8CF",
"Z 	c #7A7A7A",
"` 	c #EFEFEF",
" .	c #F9F9F9",
"..	c #767676",
"+.	c #F0F0F0",
"@.	c #F1F1F1",
"#.	c #727272",
"$.	c #F2F2F2",
"%.	c #6D6D6D",
"&.	c #F3F3F3",
"*.	c #F8F8F8",
"=.	c #696969",
"-.	c #C1C1C1",
";.	c #F4F4F4",
">.	c #F5F5F5",
",.	c #656565",
"'.	c #F6F6F6",
").	c #606060",
"!.	c #F7F7F7",
"~.	c #5C5C5C",
"{.	c #575757",
"].	c #535353",
"^.	c #4E4E4E",
"/.	c #4C4C4C",
"                                                ",
"      . + @ # $ % & * = - ; > , ' ) ! ~ {       ",
"      . ] ^ / ( _ : : < < [ } | 1 2 3 4 5       ",
"      6 7 7 8 _ : < 9 9 / 0 a b c 2 2 d e f     ",
"      g ( _ h : < 9 / / 8 i j 2 2 2 2 2 2 k     ",
"      l _ : m 9 / / 8 n n o p q 2 2 2 2 r s     ",
"      t : < m / 8 n n h m u v w 2 2 2 2 x y     ",
"      z : 9 A 8 n h m m A B C D 2 D D 2 E F     ",
"      G < / H n h m A H H I J K L M N O P z     ",
"      Q 9 / I h m A H I I R S T U V W X Y G     ",
"      Z / 8 I m A H I R S S ` ` ` ` ` S  .Q     ",
"      ..8 n R A H I R S ` +.+.@.@.@.+.+. .Z     ",
"      #.8 h R A I R S ` +.@.$.$.$.$.@.@. ...    ",
"      %.n h S H I S ` +.@.$.&.&.&.&.&.$.*.#.    ",
"      =.n -.S H R S +.@.$.&.;.>.>.>.;.&.*.%.    ",
"      ,.n m S I R ` +.$.&.;.>.'.'.'.>.;.*.=.    ",
"      ).h m ` I S ` @.$.;.>.'.!.*.!.'.>.*.,.    ",
"      ~.h m ` I S ` @.$.;.>.!.*. .*.!.>.*.).    ",
"      {.h m ` I S ` @.&.;.'.!. . .*.!.>.*.~.    ",
"      ].h m ` I S ` @.$.;.>.!.*.*.!.'.>.*.{.    ",
"      ^.h m ` I R ` +.$.&.;.'.'.!.'.>.;.*.].    ",
"      /.n m A I R S +.@.$.&.;.>.>.>.;.&.$.^.    ",
"      /././././././././././././././././././.    ",
"                                                "};
