/* XPM */
static char * next_node_xpm[] = {
"24 24 90 1",
" 	c None",
".	c #BABDB6",
"+	c #B9BCB5",
"@	c #B8BBB4",
"#	c #B7BAB3",
"$	c #B6B9B2",
"%	c #B5B8B1",
"&	c #B4B7B0",
"*	c #B3B6AF",
"=	c #B0B3AC",
"-	c #C2C5BE",
";	c #FFFFFF",
">	c #BEC0B9",
",	c #ADB1A9",
"'	c #C2C5BD",
")	c #BBBFB9",
"!	c #A9ABA5",
"~	c #BFC2BB",
"{	c #CCCCCC",
"]	c #B9BDB6",
"^	c #A3A5A1",
"/	c #BDC0B8",
"(	c #4E9A06",
"_	c #B7BAB4",
":	c #9FA19D",
"<	c #F3FCEB",
"[	c #B6B8B3",
"}	c #9B9F97",
"|	c #B7B9B3",
"1	c #DAF6BE",
"2	c #CAF2A3",
"3	c #EDFBDF",
"4	c #B6B9B3",
"5	c #979993",
"6	c #CCF2A7",
"7	c #B6ED82",
"8	c #E6F9D3",
"9	c #B5B7B3",
"0	c #91938F",
"a	c #BEEF8F",
"b	c #DFF7C7",
"c	c #A3E860",
"d	c #B5B7B2",
"e	c #8D8F8B",
"f	c #B3EA7E",
"g	c #93E147",
"h	c #B4B6B2",
"i	c #898B87",
"j	c #85DA31",
"k	c #A9E56E",
"l	c #407F05",
"m	c #B4B5B1",
"n	c #858783",
"o	c #76D31A",
"p	c #9FE05E",
"q	c #B3B5B1",
"r	c #81837E",
"s	c #ABADA7",
"t	c #458A05",
"u	c #CDF0AB",
"v	c #78D61D",
"w	c #A0E260",
"x	c #B2B3AF",
"y	c #7E7F7A",
"z	c #A8AAA5",
"A	c #BCEC8D",
"B	c #A5E566",
"C	c #B1B2AE",
"D	c #7A7C76",
"E	c #A5A7A2",
"F	c #AFB0AC",
"G	c #747672",
"H	c #A2A59E",
"I	c #ABADA9",
"J	c #70726E",
"K	c #9C9E99",
"L	c #A3A4A0",
"M	c #6C6E68",
"N	c #767873",
"O	c #757772",
"P	c #747671",
"Q	c #72746F",
"R	c #71736E",
"S	c #70726D",
"T	c #6F716C",
"U	c #6E706B",
"V	c #6D6F6A",
"W	c #6C6E69",
"X	c #6A6C67",
"Y	c #696B66",
"                        ",
"                        ",
"                        ",
"       .......+@#$%&*=  ",
"      -;;;;;;;;;;;;;;>, ",
"      ';;;;;;;;;;;;;;)! ",
"      ~;;{{{{{{{{{{;;]^ ",
"      /;(((;;;;;;;;;;_: ",
"      +(<<<({{{{{{{;;[} ",
"      |(1223(;;;;;;;;45 ",
" ((((((((6778({{{{{;;90 ",
"(aabbbbbbbaccb(;;;;;;de ",
"(fgggggggggggg(;;;;;;hi ",
"(fgggggggjjjjkl{{{{;;mn ",
" ((((((((ooopl;;;;;;;qr ",
"      stuvvwl{{{{{{;;xy ",
"      ztABBl;;;;;;;;;CD ",
"      E;lll{{{{{{{{;;FG ",
"      H;;;;;;;;;;;;;;IJ ",
"      K;;;;;;;;;;;;;;LM ",
"       NOPQRSSTUVWXXYX  ",
"                        ",
"                        ",
"                        "};
