/* XPM */
static char * next_page_xpm[] = {
"24 24 79 1",
" 	c None",
".	c #CCCCCC",
"+	c #3E263B",
"@	c #FFFFFF",
"#	c #FEFEFE",
"$	c #EFF1EE",
"%	c #EDEDED",
"&	c #FCFCFC",
"*	c #FAFAFA",
"=	c #FDFDFD",
"-	c #DDDFDA",
";	c #C6C9C3",
">	c #AEB0AB",
",	c #E4E5E2",
"'	c #F8F8F8",
")	c #F6F6F6",
"!	c #F4F4F4",
"~	c #CBCBCB",
"{	c #C6C6C6",
"]	c #FBFBFB",
"^	c #F9F9F9",
"/	c #F7F7F7",
"(	c #F5F5F5",
"_	c #F2F2F2",
":	c #C0C0C0",
"<	c #F3F3F3",
"[	c #F1F1F1",
"}	c #BBBBBB",
"|	c #E3E4E1",
"1	c #4E9A06",
"2	c #B5B5B5",
"3	c #523856",
"4	c #F6FDEF",
"5	c #B0B0B0",
"6	c #DCF7C3",
"7	c #CDF3A9",
"8	c #EEFBE1",
"9	c #F0F0F0",
"0	c #EEEEEE",
"a	c #CCF2A7",
"b	c #B7ED82",
"c	c #E6F9D3",
"d	c #DEF7C6",
"e	c #A0E75B",
"f	c #BCBCBC",
"g	c #4D9906",
"h	c #8FDF41",
"i	c #B0E97A",
"j	c #9B9B9B",
"k	c #B6B6B6",
"l	c #B4B4B4",
"m	c #3C7904",
"n	c #C7EEA1",
"o	c #A4E367",
"p	c #A6E46A",
"q	c #4A9206",
"r	c #A9E56F",
"s	c #7ED727",
"t	c #8B8D88",
"u	c #C3C4C0",
"v	c #C0C3BE",
"w	c #B6E885",
"x	c #9FE15E",
"y	c #AECC91",
"z	c #76D419",
"A	c #478C05",
"B	c #B4B7B1",
"C	c #B1B3AE",
"D	c #888A85",
"E	c #ADE774",
"F	c #A4E465",
"G	c #D2F2B2",
"H	c #438505",
"I	c #C1ED97",
"J	c #407F05",
"K	c #85DE2D",
"L	c #ADEB71",
"M	c #8AE234",
"N	c #3A7404",
"                        ",
"                        ",
"                        ",
"      .....   ....      ",
"   +..@@#$@%%#&*=&..+   ",
"  +.@@@@=$-;>,&*')!*~+  ",
"  +.@@@@=$-;>,&*')!*{+  ",
"  +.@@@@=$-;>,]^/(!_:+  ",
"  +.@@@@=$-;>,]^/(<[}+  ",
"  +.@@@@=$-;>|111(<[23  ",
"  +@@@@@=$-;>14441_[53  ",
"  +@@@@@=$-;>167781903  ",
"  +@@@@@1111111abbc1^3  ",
"  +@@@@1deeeeeeeeeed13  ",
" +f@@@gdhhhhhhhhhhhigj3 ",
" +kl@mnopqqqqqqrssoqjj3 ",
" +tuvmwxgffttmyzzxABCD3 ",
" +333mEFGHHHHHIFFH33333 ",
"      JKKKKKKJJJJ       ",
"       mLMMMMm          ",
"        NNNNN           ",
"                        ",
"                        ",
"                        "};
