/* XPM */
static char * open_xpm[] = {
"24 24 92 2",
"  	c None",
". 	c #4C4C4C",
"+ 	c #4F4F4F",
"@ 	c #545454",
"# 	c #595959",
"$ 	c #5D5D5D",
"% 	c #626262",
"& 	c #666666",
"* 	c #6A6A6A",
"= 	c #6E6E6E",
"- 	c #727272",
"; 	c #767676",
"> 	c #797979",
", 	c #FAFAFA",
"' 	c #717171",
") 	c #5A5A5A",
"! 	c #EDEDED",
"~ 	c #A1A1A1",
"{ 	c #F1F1F1",
"] 	c #D9D9D9",
"^ 	c #DFDFDF",
"/ 	c #E0E0E0",
"( 	c #E1E1E1",
"_ 	c #E2E2E2",
": 	c #E3E3E3",
"< 	c #6C6C6C",
"[ 	c #DADADA",
"} 	c #9F9F9F",
"| 	c #D1D1D1",
"1 	c #D4D4D4",
"2 	c #D5D5D5",
"3 	c #686868",
"4 	c #DCDCDC",
"5 	c #C2C2C2",
"6 	c #C3C3C3",
"7 	c #C4C4C4",
"8 	c #C5C5C5",
"9 	c #C6C6C6",
"0 	c #9E9E9E",
"a 	c #B4B4B4",
"b 	c #B5B5B5",
"c 	c #B6B6B6",
"d 	c #B7B7B7",
"e 	c #B8B8B8",
"f 	c #DBDBDB",
"g 	c #A9A9A9",
"h 	c #3465A4",
"i 	c #B0B0B0",
"j 	c #BCD1E8",
"k 	c #BBD1E8",
"l 	c #BAD0E8",
"m 	c #585858",
"n 	c #84ABD5",
"o 	c #83AAD5",
"p 	c #81AAD4",
"q 	c #80A9D4",
"r 	c #7FA8D3",
"s 	c #7EA7D3",
"t 	c #7DA6D3",
"u 	c #7BA5D2",
"v 	c #7AA4D2",
"w 	c #B0CAE4",
"x 	c #888888",
"y 	c #BDBDBD",
"z 	c #83ABD5",
"A 	c #7FA8D4",
"B 	c #7AA5D2",
"C 	c #729FCF",
"D 	c #A7C3E1",
"E 	c #82AAD4",
"F 	c #81A9D4",
"G 	c #7DA7D3",
"H 	c #CACACA",
"I 	c #80A8D4",
"J 	c #7CA6D2",
"K 	c #CDCDCD",
"L 	c #89AFD7",
"M 	c #82AAD5",
"N 	c #719ECF",
"O 	c #709ECF",
"P 	c #709ECE",
"Q 	c #709DCE",
"R 	c #6F9DCE",
"S 	c #6E9DCE",
"T 	c #6999CD",
"U 	c #6899CD",
"V 	c #6898CD",
"W 	c #6798CD",
"X 	c #6798CC",
"Y 	c #6295CB",
"Z 	c #6294CB",
"` 	c #6194CB",
"                                                ",
"                                                ",
"                                                ",
"            . . . . + @ # $ % & * = - ; >       ",
"            . , , , , , , , , , , , , , '       ",
"  ) ) ) ) ) . ! ~ ~ ~ ~ ~ ~ ~ ~ ~ ~ ~ { '       ",
"    ) ] ] ] . ^ ^ / / / ( ( ( _ _ _ : : <       ",
"    ) [ } } . | ~ ~ ~ ~ ~ ~ ~ ~ ~ ~ 1 2 3       ",
"    ) 4 } . 5 5 6 6 6 7 7 7 8 8 8 9 9 9 3       ",
"    ) [ 0 . a a a b b b c c c d d d e $         ",
"    ) f . g h h h h h h h h h h h h h h h h h   ",
"    ) | . i h j j j j j j j j j j j k k l l h   ",
"    m | . c h n n n n n n o p q r s t u v w h   ",
"    m x . y h n n n n n z p q A s t u B C D h   ",
"    ) . 6 h n n n n n z E F A s G u C C C D h   ",
"    ) . H h n n n n n E F I s G J C C C D h     ",
"      . K h n n n n C C C C C C C C C C L h     ",
"      . h M N O O O O P Q R R R R R R S S h     ",
"      . h T T T T T T U U U V V V W X X h       ",
"      . h Y Y Z ` ` ` ` ` ` ` ` ` ` ` ` h       ",
"      ) h h h h h h h h h h h h h h h h         ",
"                                                ",
"                                                ",
"                                                "};
