/* XPM */
static char * paste_xpm[] = {
"24 24 120 2",
"  	c None",
". 	c #BABDB6",
"+ 	c #BBBCB6",
"@ 	c #BABBB4",
"# 	c #BDBFB9",
"$ 	c #D7D9D5",
"% 	c #D8D9D5",
"& 	c #D5D7D3",
"* 	c #AAADA8",
"= 	c #B8BAB5",
"- 	c #F4F4F3",
"; 	c #DADBD7",
"> 	c #E1E2DF",
", 	c #9C9F99",
"' 	c #BD8A39",
") 	c #BC8938",
"! 	c #B58436",
"~ 	c #A3A6A0",
"{ 	c #D1D3CF",
"] 	c #BCBFB8",
"^ 	c #C9CCC6",
"/ 	c #95896F",
"( 	c #B38233",
"_ 	c #B78432",
": 	c #B68331",
"< 	c #BA8736",
"[ 	c #EBC995",
"} 	c #E2B369",
"| 	c #DAAE68",
"1 	c #A09479",
"2 	c #EAEAE9",
"3 	c #F2F2F1",
"4 	c #E8E9E7",
"5 	c #948870",
"6 	c #D8AC68",
"7 	c #EAC790",
"8 	c #B07D2A",
"9 	c #B88433",
"0 	c #EAC994",
"a 	c #E1B269",
"b 	c #C09E66",
"c 	c #A4A49D",
"d 	c #B1AFA6",
"e 	c #B1AEA5",
"f 	c #B0AEA5",
"g 	c #B0ADA5",
"h 	c #AFADA5",
"i 	c #9D9D97",
"j 	c #B99863",
"k 	c #E9C68F",
"l 	c #B58230",
"m 	c #EAC893",
"n 	c #D2A662",
"o 	c #97825F",
"p 	c #8C7B5B",
"q 	c #8A795A",
"r 	c #89785A",
"s 	c #887759",
"t 	c #877658",
"u 	c #867557",
"v 	c #877555",
"w 	c #917C57",
"x 	c #D1A562",
"y 	c #E9C58D",
"z 	c #AE7A27",
"A 	c #B27F2C",
"B 	c #EAC791",
"C 	c #DEB067",
"D 	c #D8AB64",
"E 	c #D5A863",
"F 	c #E9C58C",
"G 	c #AB7724",
"H 	c #AF7C29",
"I 	c #E9C48B",
"J 	c #A87420",
"K 	c #AD7926",
"L 	c #AFB3AB",
"M 	c #AA7622",
"N 	c #FFFFFF",
"O 	c #A7731F",
"P 	c #E7C48C",
"Q 	c #E0B268",
"R 	c #E0B168",
"S 	c #CCCCCC",
"T 	c #9EA09C",
"U 	c #A4701C",
"V 	c #E6C289",
"W 	c #DFB067",
"X 	c #9A9B99",
"Y 	c #A26D18",
"Z 	c #E4C086",
"` 	c #DDAF65",
" .	c #969795",
"..	c #9F6A15",
"+.	c #E3BE84",
"@.	c #DCAD64",
"#.	c #939491",
"$.	c #9C6712",
"%.	c #E1BD82",
"&.	c #DAAC63",
"*.	c #8F908D",
"=.	c #99640E",
"-.	c #E0BB80",
";.	c #D8AB62",
">.	c #D8AA62",
",.	c #8B8C89",
"'.	c #97610B",
").	c #DEB97E",
"!.	c #D7A961",
"~.	c #878886",
"{.	c #945E08",
"].	c #DCB77B",
"^.	c #D5A860",
"/.	c #848582",
"(.	c #8F5902",
"_.	c #DBB579",
":.	c #DBB478",
"<.	c #DBB477",
"[.	c #80817F",
"}.	c #6A6C68",
"                                                ",
"                  . + + + @                     ",
"                # $ % % % & *                   ",
"                = - ; ; ; > ,                   ",
"        ' ) ) ! ~ { ] ] ] ^ / ( _ _ :           ",
"      < [ } | 1 2 3 3 3 3 3 4 5 6 } 7 8         ",
"      9 0 a b c d d e f g g h i j a k 8         ",
"      l m a n o p q r s t u v w x a y z         ",
"      A B } C D E E E E E E E D C } F G         ",
"      H 7 } } } } } } } } } } } } } I J         ",
"      K k } } } } } } L L L L L L L L L L       ",
"      M y } } } } } L N N N N N N N N N N L     ",
"      O P Q Q R R R L N N S S S S S S S N T     ",
"      U V W W W W W X N N N N N N N N N N X     ",
"      Y Z ` ` ` ` `  .N N S S S S S S S N  .    ",
"      ..+.@.@.@.@.@.#.N N N N N N N N N N #.    ",
"      $.%.&.&.&.&.&.*.N N S S S S S S S N *.    ",
"      =.-.;.;.>.>.>.,.N N N N N N N N N N ,.    ",
"      '.).!.!.!.!.!.~.N N S S S S S S S N ~.    ",
"      {.].^.^.^.^.^./.N N N N N N N N N N /.    ",
"      (._.:.:.<.<.<.[.N N S S S N N N N N [.    ",
"        (.(.(.(.(.(.}.N N N N N N N N N N }.    ",
"                      }.}.}.}.}.}.}.}.}.}.      ",
"                                                "};
