/* XPM */
static char * preferences_xpm[] = {
"24 24 66 1",
" 	c None",
".	c #888A85",
"+	c #EAEAEA",
"@	c #878F9D",
"#	c #C5D1DE",
"$	c #C3D0DD",
"%	c #EBEBEB",
"&	c #C2CFDC",
"*	c #F2F2F2",
"=	c #F1F1F1",
"-	c #BBBCB9",
";	c #B9C4D0",
">	c #B7C3CF",
",	c #B6C1CD",
"'	c #ECECEC",
")	c #EEEEEE",
"!	c #ABB5C0",
"~	c #A9B3BE",
"{	c #E0E0E0",
"]	c #DFDFDF",
"^	c #EDEDED",
"/	c #B9BEC6",
"(	c #B2B7C0",
"_	c #F6F6F6",
":	c #C7C7C7",
"<	c #F4F4F4",
"[	c #C6C9D0",
"}	c #BFC4CB",
"|	c #FCFCFC",
"1	c #D4D4D4",
"2	c #D6D6D6",
"3	c #F9F9F9",
"4	c #C8CCD2",
"5	c #FAFAFA",
"6	c #D7D7D7",
"7	c #204A87",
"8	c #82A4D0",
"9	c #7A9DC9",
"0	c #5A85BC",
"a	c #507CB4",
"b	c #4672AC",
"c	c #DDDDDD",
"d	c #3C6193",
"e	c #6387B7",
"f	c #DCDCDC",
"g	c #E2E2E2",
"h	c #82A3CC",
"i	c #3A5F8F",
"j	c #DBDBDB",
"k	c #DEDEDE",
"l	c #7A9FCD",
"m	c #ADC2DE",
"n	c #395D8C",
"o	c #E6E6E6",
"p	c #DADADA",
"q	c #D3D3D3",
"r	c #A3BCDC",
"s	c #D7E1EF",
"t	c #375A88",
"u	c #3D6AA6",
"v	c #E1E1E1",
"w	c #CBCBCB",
"x	c #A1A1A1",
"y	c #365884",
"z	c #C4C4C4",
"A	c #3C69A4",
"                        ",
"                        ",
"      ....              ",
"      .+++.        @@   ",
"       .+++.      @#$@  ",
"        .%+.     @$$&@  ",
"   ..   .*=-    @;>,@   ",
"   .-.  .')-    @!~@    ",
"   .))..{{]^-  @/(@     ",
"   ._)))^^:'<-@[}@      ",
"    .|||||123@44@       ",
"     .....56@44@        ",
"         77@44@-        ",
"        78974@{=-       ",
"       780ab7*c{+.      ",
"      780ade7.)f]g.     ",
"     78haie7  .+jkj.    ",
"    7lmane7    .oppq.   ",
"   7rsatu7      .vwxg.  ",
"   70ayu7        .cxz.  ",
"   7abA7          ...   ",
"    777                 ",
"                        ",
"                        "};
