/* XPM */
static char * prev_node_xpm[] = {
"24 24 72 1",
" 	c None",
".	c #BABDB6",
"+	c #B9BCB5",
"@	c #B8BBB4",
"#	c #B7BAB3",
"$	c #B6B9B2",
"%	c #B5B8B1",
"&	c #B4B7B0",
"*	c #B3B6AF",
"=	c #C5C7C0",
"-	c #FFFFFF",
";	c #B9BCB6",
">	c #C4C7C1",
",	c #C2C5BE",
"'	c #CCCCCC",
")	c #B5B7B0",
"!	c #BFC3BC",
"~	c #4E9A06",
"{	c #B2B5AE",
"]	c #BDC0B9",
"^	c #F3FCEB",
"/	c #B0B2AD",
"(	c #BABDB7",
"_	c #EDFBDF",
":	c #CAF2A3",
"<	c #DAF6BE",
"[	c #B0B2AC",
"}	c #BABCB6",
"|	c #E6F9D3",
"1	c #B6ED81",
"2	c #CCF2A7",
"3	c #B8BAB5",
"4	c #DFF7C7",
"5	c #A3E860",
"6	c #BEEF8F",
"7	c #B7BAB4",
"8	c #93E147",
"9	c #4B9506",
"0	c #B5B8B3",
"a	c #84DA31",
"b	c #A9E56E",
"c	c #B4B6B2",
"d	c #76D31A",
"e	c #488F05",
"f	c #B3B5B0",
"g	c #407F05",
"h	c #78D61D",
"i	c #CDF0AC",
"j	c #458A05",
"k	c #A6A7A4",
"l	c #B0B2AE",
"m	c #A5E566",
"n	c #BCEC8D",
"o	c #A4A6A1",
"p	c #AEB0AB",
"q	c #A2A39F",
"r	c #ACAEA9",
"s	c #9D9F9B",
"t	c #A5A7A2",
"u	c #969894",
"v	c #767873",
"w	c #757772",
"x	c #747671",
"y	c #72746F",
"z	c #71736E",
"A	c #70726D",
"B	c #6F716C",
"C	c #6E706B",
"D	c #6D6F6A",
"E	c #6C6E69",
"F	c #6A6C67",
"G	c #696B66",
"                        ",
"                        ",
"                        ",
"   .......+@#$%&*       ",
"  =--------------;      ",
"  >--------------@      ",
"  ,--''''''''''--)      ",
"  !----------~~~-{      ",
"  ]--'''''''~^^^~/      ",
"  (--------~_::<~[      ",
"  }--'''''~|112~~~~~~~  ",
"  3------~455555555556~ ",
"  7------~8888888888889 ",
"  0--'''''~aaabbbbbbbb9 ",
"  c--------~dddeeeeeee  ",
"  f--'''''''ghhijk      ",
"  l----------gmngo      ",
"  p--'''''''''gg-q      ",
"  r--------------s      ",
"  t--------------u      ",
"   vwxyzAABCDEFFG       ",
"                        ",
"                        ",
"                        "};
