/* XPM */
static char * print_xpm[] = {
"24 24 83 1",
" 	c None",
".	c #898989",
"+	c #F8F8F8",
"@	c #E0E0E0",
"#	c #E4E4E4",
"$	c #C7C7C7",
"%	c #E3E3E3",
"&	c #EAEAEA",
"*	c #CDCDCD",
"=	c #CCCCCC",
"-	c #E9E9E9",
";	c #F1F1F1",
">	c #D3D3D3",
",	c #D2D2D2",
"'	c #F0F0F0",
")	c #F7F7F7",
"!	c #D8D8D8",
"~	c #F6F6F6",
"{	c #FEFEFE",
"]	c #FDFDFD",
"^	c #C8C8C8",
"/	c #C9C9C9",
"(	c #CACACA",
"_	c #E8E8E8",
":	c #676767",
"<	c #C5C5C5",
"[	c #ACACAC",
"}	c #ADADAD",
"|	c #AEAEAE",
"1	c #AFAFAF",
"2	c #FCFCFC",
"3	c #FBFBFB",
"4	c #EBEBEB",
"5	c #595959",
"6	c #DBDBD9",
"7	c #DADAD8",
"8	c #D8D8D6",
"9	c #D6D6D4",
"0	c #D4D4D2",
"a	c #D3D2D0",
"b	c #D1D1CF",
"c	c #CFCFCD",
"d	c #CECDCB",
"e	c #CCCBC9",
"f	c #CACAC8",
"g	c #C8C8C6",
"h	c #C7C6C4",
"i	c #C5C4C2",
"j	c #C3C2C0",
"k	c #C1C1BF",
"l	c #C0BFBD",
"m	c #BEBDBB",
"n	c #BCBBB9",
"o	c #BABAB8",
"p	c #9A9997",
"q	c #F5F5F3",
"r	c #F4F3F2",
"s	c #F4F3F1",
"t	c #F3F2F1",
"u	c #767676",
"v	c #F7F6F5",
"w	c #686868",
"x	c #666666",
"y	c #E0E0DF",
"z	c #C4C4C2",
"A	c #9D9C96",
"B	c #A9A7A0",
"C	c #B4B2AB",
"D	c #BFBDB6",
"E	c #CAC8C0",
"F	c #C7C5BD",
"G	c #C3C1B9",
"H	c #BEBDB5",
"I	c #BAB8B1",
"J	c #B6B4AD",
"K	c #B2B0A9",
"L	c #ADACA5",
"M	c #A9A8A1",
"N	c #A5A39D",
"O	c #A19F99",
"P	c #9C9B95",
"Q	c #989791",
"R	c #94938C",
"                        ",
"      ............      ",
"     .++++++++++++.     ",
"     .@@@@@@@@@@@@.     ",
"     .#$$$$$$$$$%%.     ",
"     .&*******==--.     ",
"     .;>>>,,,,,,''.     ",
"     .)!!!!!))))~~.     ",
"     .{{{{{{]]]]]].     ",
"     .%$$$^^//((__.     ",
"   ::.<[[}}}|||1^^.::   ",
"  :2................2:  ",
" :{333333333333333344{5 ",
" :67890abcdefghijklmno5 ",
" :6pqrrrrrrrrsttttttpo5 ",
" :6uv:vvvvvvvvvvvvvvwo5 ",
" :67xxxxxxxxxxxxxxxxno5 ",
" :67890abcdefghijklmno5 ",
" :67890abcdefghijklmno5 ",
" :y7890abcdefghijklmnz5 ",
"  5ABCDEFGHIJKLMNOPQR5  ",
"                        ",
"                        ",
"                        "};
