/* XPM */
static char * redo_xpm[] = {
"24 24 52 1",
" 	c None",
".	c #4E9A06",
"+	c #F7FDF1",
"@	c #D6F5B9",
"#	c #F1FCE7",
"$	c #D7F5BA",
"%	c #C6F19C",
"&	c #EBFADD",
"*	c #CCF2A6",
"=	c #B6ED80",
"-	c #E6F9D3",
";	c #E0F8C9",
">	c #C0F092",
",	c #A5E964",
"'	c #DBF5C1",
")	c #97E34D",
"!	c #4C9706",
"~	c #D5F3B8",
"{	c #8BDD3A",
"]	c #AEE775",
"^	c #458905",
"/	c #C8EEA2",
"(	c #7FD828",
"_	c #A6E469",
":	c #4A9206",
"<	c #A9E56F",
"[	c #A5E468",
"}	c #488E05",
"|	c #B9E889",
"1	c #73D216",
"2	c #BFEA94",
"3	c #B8E888",
"4	c #9DDF5B",
"5	c #B2E77E",
"6	c #79D61E",
"7	c #D0F1B0",
"8	c #A1E261",
"9	c #408005",
"0	c #ABE771",
"a	c #7EDA25",
"b	c #84DE2C",
"c	c #D2F2B3",
"d	c #438405",
"e	c #A4E566",
"f	c #A9E86B",
"g	c #D4F4B5",
"h	c #3E7B04",
"i	c #ACEA70",
"j	c #89E133",
"k	c #3B7604",
"l	c #ADEB71",
"m	c #3A7404",
"                        ",
"                        ",
"                        ",
"                        ",
"               ..       ",
"              .++.      ",
"              .@@#.     ",
"              .$%%&.    ",
"      ..........*==-.   ",
"     .;;;;;;;;;;;>,,;.  ",
"    .')))))))))))))))'. ",
"   !~{{{{{{{{{{{{{{{{]! ",
"  ^/(({_::::::::<((([:  ",
"  }|112:      }31114}   ",
"  ^5667:      .6668^    ",
"  90aabcddddd daaed     ",
"   9fbbbbbbbg9 999      ",
"    hijjjjjjih          ",
"     klllllllh          ",
"      mmmmmmm           ",
"                        ",
"                        ",
"                        ",
"                        "};
