/* XPM */
static char * refresh_xpm[] = {
"24 24 118 2",
"  	c None",
". 	c #BABEB6",
"+ 	c #BBBCB5",
"@ 	c #BABDB7",
"# 	c #B9BAB3",
"$ 	c #9FA19B",
"% 	c #9B9E98",
"& 	c #BBBDB6",
"* 	c #BABDB6",
"= 	c #FFFFFF",
"- 	c #B0B3AC",
"; 	c #ACAFA8",
"> 	c #A9ADA5",
", 	c #9C9F99",
"' 	c #92958F",
") 	c #FDFDFD",
"! 	c #A0A29C",
"~ 	c #9C9E99",
"{ 	c #969993",
"] 	c #8C8F89",
"^ 	c #FAFAFA",
"/ 	c #C8C9C6",
"( 	c #FCFCFC",
"_ 	c #868983",
": 	c #F8F8F8",
"< 	c #FBFBFB",
"[ 	c #81837E",
"} 	c #F5F5F5",
"| 	c #7B7D78",
"1 	c #BBBDB5",
"2 	c #F2F2F2",
"3 	c #F9F9F9",
"4 	c #A3A5A0",
"5 	c #A0A29D",
"6 	c #9A9B97",
"7 	c #979893",
"8 	c #92948F",
"9 	c #F9F9F8",
"0 	c #757772",
"a 	c #B6B9B2",
"b 	c #F1F1F0",
"c 	c #A1A39E",
"d 	c #8A8D87",
"e 	c #878984",
"f 	c #6F726D",
"g 	c #B3B7AF",
"h 	c #EFEFEE",
"i 	c #F7F7F7",
"j 	c #9EA09B",
"k 	c #888A85",
"l 	c #EFEFED",
"m 	c #6A6C67",
"n 	c #AEB1AA",
"o 	c #EDEDEB",
"p 	c #F6F6F5",
"q 	c #989A95",
"r 	c #82847F",
"s 	c #646661",
"t 	c #A7AAA4",
"u 	c #EAEAE8",
"v 	c #969893",
"w 	c #797B76",
"x 	c #757873",
"y 	c #72746F",
"z 	c #6F716C",
"A 	c #6B6E69",
"B 	c #686A66",
"C 	c #656762",
"D 	c #61635F",
"E 	c #5E605C",
"F 	c #E6E6E4",
"G 	c #F5F5F4",
"H 	c #90928D",
"I 	c #9B9D98",
"J 	c #E2E3E1",
"K 	c #8A8C87",
"L 	c #959793",
"M 	c #DFE0DE",
"N 	c #F6F7F6",
"O 	c #5F605B",
"P 	c #5B5D58",
"Q 	c #575954",
"R 	c #F8F9F8",
"S 	c #DBDCDA",
"T 	c #F7F8F7",
"U 	c #5C5E59",
"V 	c #555752",
"W 	c #868883",
"X 	c #F6F6F6",
"Y 	c #DADBD9",
"Z 	c #71736E",
"` 	c #595B55",
" .	c #555751",
"..	c #80827D",
"+.	c #DDDEDB",
"@.	c #FDFDFC",
"#.	c #686A65",
"$.	c #636661",
"%.	c #60625E",
"&.	c #5C5E5A",
"*.	c #595C56",
"=.	c #EEEFED",
"-.	c #777974",
";.	c #F4F4F3",
">.	c #E0E1DE",
",.	c #F0F0EF",
"'.	c #545851",
").	c #6D6F6A",
"!.	c #F3F4F3",
"~.	c #E3E4E2",
"{.	c #F1F2F1",
"].	c #F3F3F2",
"^.	c #E6E7E5",
"/.	c #5A5C57",
"(.	c #EAEAE9",
"_.	c #555753",
":.	c #EDEEED",
"<.	c #565752",
"                                                ",
"                    . + @ #             $ %     ",
"              + & * = = = = - ; >     , = = '   ",
"            * = = = ) ) ) ) ) = = ! ~ { = = ]   ",
"          * = ^ ^ ^ ^ ^ ^ ^ ^ ^ ^ = = / = ( _   ",
"        * = : : : : : : : : : : : : = = = < [   ",
"      * = } } } } ^ ^ ^ ^ ^ ^ } } } } = = ^ |   ",
"    1 = 2 2 2 2 3 4 5 % 6 7 8 3 3 2 2 2 3 9 0   ",
"    a = b b b : c           d e : b b b b b f   ",
"  g = h h h i j           k = l l h h h h l m   ",
"  n = o o o p q           r = p p p p p p p s   ",
"  t = u u u v               w x y z A B C D E   ",
"  c = F F G H                                   ",
"  I ) J J G K                                   ",
"  L < M M M N [                   O P Q         ",
"  H R S S S T |                 U T T T V       ",
"    W X Y Y Y ^ Z             ` Y ^ Y Y ^  .    ",
"    ..G +.+.+.+.@.#.$.%.&.*.Q @.@.+.+.+.=.V     ",
"      -.;.>.>.>.>.= = = = = = >.>.>.>.,.,.'.    ",
"        ).!.~.~.~.~.~.~.~.~.~.~.~.~.~.{.V       ",
"          s ].^.^.^.^.^.^.^.^.^.^.].].V         ",
"            /.G G (.(.(.(.(.(.G G V _.          ",
"               .V :.N N N N N V V               ",
"                  <.<.V V V  .                  "};
