/* XPM */
static char * right_arrow_xpm[] = {
"24 24 47 1",
" 	c None",
".	c #4E9A06",
"+	c #F6FDEF",
"@	c #E3F8CF",
"#	c #D7F5BA",
"$	c #F1FCE7",
"%	c #DAF6BF",
"&	c #CBF2A4",
"*	c #EDFBDF",
"=	c #D1F4B0",
"-	c #BEEF8F",
";	c #E8FAD8",
">	c #C8F2A1",
",	c #B1EC79",
"'	c #E4F9D0",
")	c #C0EF91",
"!	c #E0F7C8",
"~	c #A5E863",
"{	c #B8ED85",
"]	c #9AE551",
"^	c #DCF6C2",
"/	c #4E9906",
"(	c #B1E97B",
"_	c #90E043",
":	c #4C9506",
"<	c #ABE671",
"[	c #87DB34",
"}	c #4A9206",
"|	c #AAE572",
"1	c #AAE571",
"2	c #7DD726",
"3	c #A4E367",
"4	c #488E05",
"5	c #B5E784",
"6	c #74D217",
"7	c #9DDF5C",
"8	c #468B05",
"9	c #C8EEA2",
"0	c #77D51B",
"a	c #A0E25F",
"b	c #448705",
"c	c #C8EFA2",
"d	c #7BD821",
"e	c #A2E463",
"f	c #408005",
"g	c #A5E667",
"h	c #428405",
"                        ",
"                        ",
"                        ",
"                        ",
"             ...        ",
"            .+++.       ",
"           .@##$$.      ",
"           .%&&&**.     ",
"           .%=---;;.    ",
"  ...........>>,,,''.   ",
" .)!!!!!!!!!!!!)~~~!!.  ",
".{]]]]]]]]]]]]]]]]]]^^. ",
"/(__________________((/ ",
" :<<<<<<<<<<<<<<[[[<<:  ",
"  }}}}}}}}}}}|122233}   ",
"           455666774    ",
"           89000aa8     ",
"           bcddeeb      ",
"            fgggh       ",
"             fff        ",
"                        ",
"                        ",
"                        ",
"                        "};
