/* XPM */
static char * save_xpm[] = {
"24 24 142 2",
"  	c None",
". 	c #25375F",
"+ 	c #C1D5EF",
"@ 	c #BFD4EE",
"# 	c #EB9689",
"$ 	c #EA9588",
"% 	c #EA9386",
"& 	c #EA9284",
"* 	c #EA9183",
"= 	c #E98F81",
"- 	c #E98E80",
"; 	c #E98C7E",
"> 	c #E88A7C",
", 	c #E8897A",
"' 	c #E88879",
") 	c #E88677",
"! 	c #E78475",
"~ 	c #E78374",
"{ 	c #E78172",
"] 	c #AAC1E1",
"^ 	c #A9C0E1",
"/ 	c #A7BEE0",
"( 	c #7E96C1",
"_ 	c #1D2938",
": 	c #D31C00",
"< 	c #658DC7",
"[ 	c #648CC6",
"} 	c #648BC5",
"| 	c #6F9BD5",
"1 	c #FFFFFF",
"2 	c #638BC4",
"3 	c #628AC3",
"4 	c #6289C2",
"5 	c #6D99D2",
"6 	c #6188C2",
"7 	c #6087C1",
"8 	c #6086C0",
"9 	c #6B96CF",
"0 	c #5F85BF",
"a 	c #5E84BE",
"b 	c #5E83BD",
"c 	c #6993CD",
"d 	c #5D83BD",
"e 	c #5C82BC",
"f 	c #5C81BB",
"g 	c #6791CA",
"h 	c #DEDEDE",
"i 	c #5B80BA",
"j 	c #5A7FB9",
"k 	c #5A7EB8",
"l 	c #658EC8",
"m 	c #597DB7",
"n 	c #597CB6",
"o 	c #587BB5",
"p 	c #577BB5",
"q 	c #577AB4",
"r 	c #5679B3",
"s 	c #5578B2",
"t 	c #5577B1",
"u 	c #5476B0",
"v 	c #5375B0",
"w 	c #5374AF",
"x 	c #5273AE",
"y 	c #5D82BC",
"z 	c #5B7FB9",
"A 	c #587CB6",
"B 	c #5477B1",
"C 	c #5375AF",
"D 	c #5274AE",
"E 	c #5173AD",
"F 	c #5172AC",
"G 	c #5071AB",
"H 	c #5B80B9",
"I 	c #525252",
"J 	c #4F70AA",
"K 	c #4F6FA9",
"L 	c #4E6EA8",
"M 	c #B8B8B8",
"N 	c #CACACA",
"O 	c #C6C6C6",
"P 	c #C0C0C0",
"Q 	c #BABABA",
"R 	c #B4B4B4",
"S 	c #AEAEAE",
"T 	c #4E6EA9",
"U 	c #4D6DA8",
"V 	c #4D6CA7",
"W 	c #4C6BA6",
"X 	c #C3C3C3",
"Y 	c #4967A2",
"Z 	c #BEBEBE",
"` 	c #B2B2B2",
" .	c #ACACAC",
"..	c #A6A6A6",
"+.	c #A0A0A0",
"@.	c #4C6CA6",
"#.	c #4B6BA5",
"$.	c #4B6AA4",
"%.	c #4A69A3",
"&.	c #5476B1",
"*.	c #C8C8C8",
"=.	c #B0B0B0",
"-.	c #AAAAAA",
";.	c #A4A4A4",
">.	c #9E9E9E",
",.	c #979797",
"'.	c #919191",
").	c #4A69A4",
"!.	c #4A68A3",
"~.	c #4866A1",
"{.	c #A2A2A2",
"].	c #9C9C9C",
"^.	c #959595",
"/.	c #8F8F8F",
"(.	c #898989",
"_.	c #838383",
":.	c #4865A0",
"<.	c #47649F",
"[.	c #46639E",
"}.	c #5273AD",
"|.	c #939393",
"1.	c #8D8D8D",
"2.	c #878787",
"3.	c #818181",
"4.	c #7B7B7B",
"5.	c #757575",
"6.	c #46649E",
"7.	c #46639D",
"8.	c #45629C",
"9.	c #44619B",
"0.	c #989898",
"a.	c #8B8B8B",
"b.	c #858585",
"c.	c #7F7F7F",
"d.	c #797979",
"e.	c #737373",
"f.	c #6D6D6D",
"g.	c #6B6B6B",
"h.	c #44619C",
"i.	c #44609B",
"j.	c #435F9A",
"k.	c #425E99",
"                                                ",
"    . . . . . . . . . . . . . . . . . . . .     ",
"  . + @ # $ % & * = - ; > , ' ) ! ~ { ] ^ / .   ",
"  . ( _ : : : : : : : : : : : : : : : < [ } .   ",
"  . ( | 1 1 1 1 1 1 1 1 1 1 1 1 1 1 1 2 3 4 .   ",
"  . ( 5 1 1 1 1 1 1 1 1 1 1 1 1 1 1 1 6 7 8 .   ",
"  . ( 9 1 1 1 1 1 1 1 1 1 1 1 1 1 1 1 0 a b .   ",
"  . ( c 1 1 1 1 1 1 1 1 1 1 1 1 1 1 1 d e f .   ",
"  . ( g 1 h h h h h h h h h h h h h 1 i j k .   ",
"  . ( l 1 1 1 1 1 1 1 1 1 1 1 1 1 1 1 m n o .   ",
"  . ( } 1 1 1 1 1 1 1 1 1 1 1 1 1 1 1 p q r .   ",
"  . ( 4 1 1 1 1 1 1 1 1 1 1 1 1 1 1 1 s t u .   ",
"  . ( 8 1 1 1 1 1 1 1 1 1 1 1 1 1 1 1 v w x .   ",
"  . ( b y f i z k m A o q r s B u C D E F G .   ",
"  . ( f H k I I I I I I I I I I I I G J K L .   ",
"  . ( k m A I M I I I N O P Q R S I T U V W .   ",
"  . ( o q r I X Y Y I Z M `  ...+.I @.#.$.%..   ",
"  . ( r s &.I *.Y Y I =.-.;.>.,.'.I ).!.Y ~..   ",
"  . ( u C D I Q Y Y I {.].^./.(._.I ~.:.<.[..   ",
"  . ( }.F G I  .Y Y I |.1.2.3.4.5.I 6.7.8.9..   ",
"    . ( ( ( I >.0.I a.b.c.d.e.f.g.I h.i.j.k..   ",
"      . . . I I I I I I I I I I I I . . . .     ",
"                                                ",
"                                                "};
