/* XPM */
static char * saveas_xpm[] = {
"24 24 172 2",
"  	c None",
". 	c #EF2929",
"+ 	c #888A85",
"@ 	c #25375F",
"# 	c #C0D4EE",
"$ 	c #BFD3EE",
"% 	c #BED3ED",
"& 	c #EA9588",
"* 	c #EA9386",
"= 	c #EA9285",
"- 	c #EA9183",
"; 	c #E99082",
"> 	c #E98F81",
", 	c #CE5C00",
"' 	c #FDC574",
") 	c #F8BD6D",
"! 	c #E88778",
"~ 	c #E78576",
"{ 	c #AEC4E3",
"] 	c #ADC3E3",
"^ 	c #BCD1EC",
"/ 	c #1D2837",
"( 	c #6F9BD5",
"_ 	c #D31C00",
": 	c #EAA45A",
"< 	c #668FC9",
"[ 	c #A9BFE0",
"} 	c #B8CDE9",
"| 	c #6E99D3",
"1 	c #6D98D2",
"2 	c #FFFFFF",
"3 	c #648CC6",
"4 	c #A4BBDD",
"5 	c #B4CAE7",
"6 	c #6C96CF",
"7 	c #6B95CF",
"8 	c #F9F9F9",
"9 	c #F4F4F4",
"0 	c #F6F6F6",
"a 	c #6289C2",
"b 	c #A0B7DA",
"c 	c #B0C6E5",
"d 	c #6993CC",
"e 	c #6992CC",
"f 	c #FDFDFD",
"g 	c #FCFCFC",
"h 	c #5F86BF",
"i 	c #9BB3D7",
"j 	c #ACC3E2",
"k 	c #6790C9",
"l 	c #FAFAFA",
"m 	c #E9B96E",
"n 	c #D8D8D8",
"o 	c #E6E6E6",
"p 	c #FBFBFB",
"q 	c #5D82BC",
"r 	c #96AFD3",
"s 	c #A7BFDF",
"t 	c #658DC6",
"u 	c #648CC5",
"v 	c #F5F5F5",
"w 	c #C5C5C5",
"x 	c #D3D3D3",
"y 	c #E2E2E2",
"z 	c #F7F7F7",
"A 	c #5B7FB9",
"B 	c #92AAD0",
"C 	c #A3BADC",
"D 	c #628AC3",
"E 	c #000000",
"F 	c #A1A1A1",
"G 	c #587CB6",
"H 	c #8DA5CD",
"I 	c #6086C0",
"J 	c #F1F1F1",
"K 	c #5679B3",
"L 	c #88A0C9",
"M 	c #9BB2D6",
"N 	c #5E83BD",
"O 	c #5476B0",
"P 	c #839BC5",
"Q 	c #96AED3",
"R 	c #5B80BA",
"S 	c #5A7EB8",
"T 	c #597DB7",
"U 	c #577BB5",
"V 	c #577AB4",
"W 	c #5578B2",
"X 	c #5577B1",
"Y 	c #5476B1",
"Z 	c #5375B0",
"` 	c #5375AF",
" .	c #5274AE",
"..	c #5173AD",
"+.	c #7E96C1",
"@.	c #587BB5",
"#.	c #B1B1B1",
"$.	c #B6B6B6",
"%.	c #BABABA",
"&.	c #BFBFBF",
"*.	c #C4C4C4",
"=.	c #C9C9C9",
"-.	c #C8C8C8",
";.	c #C2C2C2",
">.	c #BBBBBB",
",.	c #B5B5B5",
"'.	c #5071AC",
").	c #5071AB",
"!.	c #4F70AA",
"~.	c #7891BE",
"{.	c #8CA5CD",
"].	c #BDBDBD",
"^.	c #4967A2",
"/.	c #BEBEBE",
"(.	c #B8B8B8",
"_.	c #ABABAB",
":.	c #A4A4A4",
"<.	c #4E6EA9",
"[.	c #4D6DA8",
"}.	c #4D6CA7",
"|.	c #738CBA",
"1.	c #5477B1",
"2.	c #C7C7C7",
"3.	c #B4B4B4",
"4.	c #ADADAD",
"5.	c #A7A7A7",
"6.	c #9A9A9A",
"7.	c #949494",
"8.	c #4C6BA6",
"9.	c #4B6AA5",
"0.	c #4B69A4",
"a.	c #6E86B5",
"b.	c #5172AC",
"c.	c #B7B7B7",
"d.	c #A3A3A3",
"e.	c #9D9D9D",
"f.	c #979797",
"g.	c #909090",
"h.	c #8A8A8A",
"i.	c #838383",
"j.	c #4A68A3",
"k.	c #4866A1",
"l.	c #6981B1",
"m.	c #7D96C1",
"n.	c #5070AB",
"o.	c #4E6FA9",
"p.	c #A6A6A6",
"q.	c #939393",
"r.	c #8C8C8C",
"s.	c #868686",
"t.	c #808080",
"u.	c #797979",
"v.	c #737373",
"w.	c #47659F",
"x.	c #47649F",
"y.	c #46639E",
"z.	c #637BAD",
"A.	c #4C6CA6",
"B.	c #9C9C9C",
"C.	c #969696",
"D.	c #8F8F8F",
"E.	c #898989",
"F.	c #828282",
"G.	c #7C7C7C",
"H.	c #767676",
"I.	c #6F6F6F",
"J.	c #6B6B6B",
"K.	c #45629C",
"L.	c #44619C",
"M.	c #44609B",
"N.	c #5E76A8",
"O.	c #525252",
"                                                ",
"                              . . .             ",
"                            + + + .             ",
"      @ @ @ @ @ @ @ @ @ @ + + + + . @ @ @       ",
"    @ # $ % & * = - ; > , ' ) + + ! ~ { ] @     ",
"    @ ^ / ( _ _ _ _ _ , ' ) : + _ _ _ < [ @     ",
"    @ } | 1 2 2 2 2 , ' ) : , 2 2 2 2 3 4 @     ",
"    @ 5 6 7 8 9 9 , ' ) : , 9 9 9 0 2 a b @     ",
"    @ c d e f g g ' ) : , g g g g g 2 h i @     ",
"    @ j k < g l m 2 : , n o 9 l l p 2 q r @     ",
"    @ s t u 8 v m m , w x y v v v z 2 A B @     ",
"    @ C D a 2 E F 2 2 2 2 2 2 2 2 2 2 G H @     ",
"    @ b I h z J J J J J J J J J J 9 2 K L @     ",
"    @ M N q 2 2 2 2 2 2 2 2 2 2 2 2 2 O P @     ",
"    @ Q R A S T T G U V K W X Y Z `  ...+.@     ",
"    @ B T G @.#.$.%.&.*.=.-.;.>.,.'.).!.~.@     ",
"    @ {.V K W ].;.^.^.*./.(.#._.:.<.[.}.|.@     ",
"    @ L 1.O ` =.2.^.^.3.4.5.F 6.7.8.9.0.a.@     ",
"    @ P  ...b.].c.^.^.d.e.f.g.h.i.j.^.k.l.@     ",
"    @ m.n.!.o.4.p.^.^.q.r.s.t.u.v.w.x.y.z.@     ",
"      @ [.}.A.B.C.D.E.F.G.H.I.J.J.K.L.M.N.@     ",
"        @ @ @ O.O.O.O.O.O.O.O.O.O.@ @ @ @       ",
"                                                ",
"                                                "};
