/* XPM */
static char * search_xpm[] = {
"24 24 85 1",
" 	c None",
".	c #8A8A8A",
"+	c #FFFFFF",
"@	c #3063A3",
"#	c #DCDCDC",
"$	c #72A0D0",
"%	c #E6EFF7",
"&	c #E0EAF4",
"*	c #D7E5F2",
"=	c #CEDEEF",
"-	c #FBFBFB",
";	c #DFEAF4",
">	c #E2EBF5",
",	c #DAE5F3",
"'	c #CFE0EF",
")	c #C5D7EC",
"!	c #DAE6F3",
"~	c #E1EBF5",
"{	c #E4EDF6",
"]	c #E1EAF5",
"^	c #DAE6F2",
"/	c #D0DFEF",
"(	c #C3D6EA",
"_	c #F9F9F9",
":	c #EBEBEB",
"<	c #CBDCED",
"[	c #D4E2F0",
"}	c #DDE8F3",
"|	c #DDE9F4",
"1	c #D8E5F2",
"2	c #CFDFEF",
"3	c #729FD0",
"4	c #729FCE",
"5	c #F1F1F1",
"6	c #E5E5E5",
"7	c #C2D6EA",
"8	c #D3E1EF",
"9	c #D8E4F2",
"0	c #D9E6F2",
"a	c #D5E2F1",
"b	c #CDDCED",
"c	c #729FCF",
"d	c #ECECEC",
"e	c #729ECF",
"f	c #C3D6EB",
"g	c #CADAEC",
"h	c #D1DFF0",
"i	c #D3E0F0",
"j	c #72A1D0",
"k	c #739FCF",
"l	c #E6E6E6",
"m	c #73A0CF",
"n	c #70A1CE",
"o	c #719FCD",
"p	c #709ECE",
"q	c #729DCF",
"r	c #EEEEEE",
"s	c #7D7D7D",
"t	c #FCFCFC",
"u	c #719ECE",
"v	c #739ECD",
"w	c #719ECD",
"x	c #719ECF",
"y	c #729ECD",
"z	c #719FCF",
"A	c #739ECF",
"B	c #72A0CF",
"C	c #6B6B6B",
"D	c #585858",
"E	c #BABABA",
"F	c #A9A9A9",
"G	c #484848",
"H	c #C0C0C0",
"I	c #AEAEAE",
"J	c #8C8C8C",
"K	c #BDBDBD",
"L	c #A8A8A8",
"M	c #949494",
"N	c #ABABAB",
"O	c #A3A3A3",
"P	c #9B9B9B",
"Q	c #AFAFAF",
"R	c #B7B7B7",
"S	c #9E9E9E",
"T	c #B5B5B5",
"                        ",
"                        ",
"       .....            ",
"      .+++++..          ",
"     .+@@@@@#+.         ",
"    .#@$%&*=@@+.        ",
"   .-@;++>,')$@+.       ",
"   .#@!~{]^/($@_.       ",
"  .:@<[!}|1234@5.       ",
"  .6@7<890ab4c@#.       ",
"  .d@efgh[ijck@l.       ",
"   .#@e3mnopq4@rs       ",
"   .t@uvwxyzz@#s        ",
"   .#+@ckA3B@++CD       ",
"    .#+@@@@@#+:EFG      ",
"     ..#++++ssHIJFG     ",
"       ....s  GKLMNG    ",
"               GEOPQG   ",
"                GRSO:G  ",
"                 GT##G  ",
"                  GGGG  ",
"                        ",
"                        ",
"                        "};
