/* XPM */
static char * search_replace_xpm[] = {
"24 24 72 1",
" 	c None",
".	c #8A8A8A",
"+	c #FFFFFF",
"@	c #DCDCDC",
"#	c #3063A3",
"$	c #E4ECF6",
"%	c #DFE9F4",
"&	c #D6E4F1",
"*	c #CADCED",
"=	c #E6EEF6",
"-	c #EDF2F9",
";	c #E2ECF5",
">	c #D7E4F1",
",	c #CCDDEF",
"'	c #72A0D0",
")	c #727272",
"!	c #F9F9F9",
"~	c #DBE6F3",
"{	c #E1EBF5",
"]	c #DDE9F4",
"^	c #D3E2F0",
"/	c #C8DAED",
"(	c #5F5F5F",
"_	c #F0F0F0",
":	c #DBE6F4",
"<	c #D9E5F2",
"[	c #D2E0EF",
"}	c #CBDCED",
"|	c #C1D6EA",
"1	c #ECECEC",
"2	c #E7E7E7",
"3	c #D4E2F0",
"4	c #D4E2F1",
"5	c #CFDEEE",
"6	c #C7DAEC",
"7	c #C0D4E9",
"8	c #E4E4E4",
"9	c #EAEAEA",
"0	c #719FD1",
"a	c #CADAEC",
"b	c #C5D8EB",
"c	c #BDD2E8",
"d	c #73A0CF",
"e	c #749ED1",
"f	c #729ECD",
"g	c #739ECD",
"h	c #719FCF",
"i	c #729FCF",
"j	c #F6F6F6",
"k	c #484848",
"l	c #5C410C",
"m	c #FF9A9A",
"n	c #FCFCFC",
"o	c #729FCE",
"p	c #FF8585",
"q	c #FF3636",
"r	c #D51414",
"s	c #EBEBEB",
"t	c #C0C0C0",
"u	c #B7B7B7",
"v	c #C31111",
"w	c #B5B5B5",
"x	c #CB9022",
"y	c #DEB873",
"z	c #AFAFAF",
"A	c #525252",
"B	c #815B16",
"C	c #7D7D7D",
"D	c #EEE7C9",
"E	c #E0CF97",
"F	c #E0CF96",
"G	c #A49566",
"                        ",
"          ....          ",
"        ..++++..        ",
"       .+@####++.       ",
"      .+@#$%&*#@.       ",
"      .@#=-;>,'#+)      ",
"     .!#~{{]^/''#(      ",
"     ._#>:<[}|''#1(     ",
"     .2#34567'''#8(     ",
"     .9#0abcd'''#@(     ",
"      .#efghi''#jk  lml ",
"      .n#foh''#@@k lpqr ",
"      .s+#####+kk ltuvl ",
"     .wws@+++@k  xyxzl  ",
"    .www.AAAkk lyyxBl   ",
"   .www.      lyyxBl    ",
"  .wCC.      lyyxBl     ",
"  .@C.      lyxxBl      ",
"  ...      lDxxBl       ",
"           EFxBl        ",
"          lGlll         ",
"          l             ",
"                        ",
"                        "};
