/* XPM */
static char * show_xpm[] = {
"24 24 59 1",
" 	c None",
".	c #989898",
"+	c #9C9C9C",
"@	c #A0A0A0",
"#	c #9B9B9B",
"$	c #979797",
"%	c #929292",
"&	c #8E8E8E",
"*	c #898989",
"=	c #848484",
"-	c #808080",
";	c #7B7B7B",
">	c #767676",
",	c #727272",
"'	c #6D6D6D",
")	c #686868",
"!	c #646464",
"~	c #5F5F5F",
"{	c #FEFEFE",
"]	c #DEDEDE",
"^	c #DFDFDF",
"/	c #E5E5E5",
"(	c #E0E0E0",
"_	c #E1E1E1",
":	c #E2E2E2",
"<	c #E3E3E3",
"[	c #E4E4E4",
"}	c #F9F9F9",
"|	c #E7E7E7",
"1	c #E8E8E8",
"2	c #BBBBBB",
"3	c #BCBCBC",
"4	c #BDBDBD",
"5	c #E6E6E6",
"6	c #E9E9E9",
"7	c #BEBEBE",
"8	c #EAEAEA",
"9	c #FDFDFD",
"0	c #EBEBEB",
"a	c #BFBFBF",
"b	c #ECECEC",
"c	c #4C4C4C",
"d	c #EDEDED",
"e	c #C0C0C0",
"f	c #C1C1C1",
"g	c #EEEEEE",
"h	c #FCFCFC",
"i	c #F0F0F0",
"j	c #EFEFEF",
"k	c #F1F1F1",
"l	c #F2F2F2",
"m	c #F3F3F3",
"n	c #FBFBFB",
"o	c #F4F4F4",
"p	c #F8F8F8",
"q	c #F5F5F5",
"r	c #F6F6F6",
"s	c #F7F7F7",
"t	c #FAFAFA",
"                        ",
"   .+@@#$%&*=-;>,')!~   ",
"  ${]^/(_::<<<[[[[[[}$  ",
"  %{^(|_:<<[[///////}%  ",
"  &{(_1<233344444455}&  ",
"  ={_:6[[[[[[[[[[[11}=  ",
"  -{:<6/444777777766}-  ",
"  >{<[85||||||||||88}>  ",
"  )9</0|77aaaaaaaab0})  ",
"  c9[/b1dddddddddddd}c  ",
"  c9/5b6aaaeeeefffgg}c  ",
"  ch5|d66666666666ij}c  ",
"  ch51d8aeeffikklkkk}c  ",
"  ch|1g0bdjikllmmmll}c  ",
"  cn|6gbdgjklmooooompc  ",
"  cn16jbffffffffffqopc  ",
"  cn16jbgjklmqrsssrqpc  ",
"  ct18jdffffffffffsqpc  ",
"  ct18jdgikmorspt}srpc  ",
"  c}18jdfffffffp}psqpc  ",
"  c}18jbgjkloqrspsrqpc  ",
"  c}16jbgjilmoqrrrqopc  ",
"   cccccccccccccccccc   ",
"                        "};
