/* XPM */
static char * sort_descending_xpm[] = {
"24 24 33 1",
" 	c None",
".	c #958906",
"+	c #9A8E06",
"@	c #2E3436",
"#	c #8E8305",
"$	c #E5DB6E",
"%	c #EBE281",
"&	c #F8F4CD",
"*	c #BABDB6",
"=	c #565854",
"-	c #6F716D",
";	c #777975",
">	c #777974",
",	c #555753",
"'	c #877C05",
")	c #807605",
"!	c #EEE69C",
"~	c #E8DF87",
"{	c #F4F0B8",
"]	c #F9F6D6",
"^	c #D8C821",
"/	c #D2C217",
"(	c #F0E99A",
"_	c #F6F2C4",
":	c #646662",
"<	c #646661",
"[	c #636561",
"}	c #DACC30",
"|	c #E3D64C",
"1	c #EAE070",
"2	c #757773",
"3	c #757772",
"4	c #747672",
"                        ",
"                        ",
"     ..+      @@@@@@    ",
"    #$%&+     @****@    ",
"    #$%&+      @@=*@    ",
"    #$%&+       @==@    ",
"    #$%&+       @=@     ",
"    #$%&+      @=@      ",
"    #$%&+     @*-@@@    ",
"    #$%&+     @;;;>@    ",
"    #$%&+     @@@@@@    ",
"    #$%&+               ",
"    #$%&+               ",
"    #$%&+               ",
"    #$%&+       @@@     ",
"    #$%&+      @,,@     ",
"   '#$%&++     @,@,@    ",
"  )!~$%&{]+   @*@@,@    ",
"  )^/$%&(_+   @:<*[@    ",
"   '/}|1(+   @*2@@34@   ",
"    #}|1+    @@@  @@@   ",
"     .%+                ",
"      +                 ",
"                        "};
