/* XPM */
static char * sort_criteria_xpm[] = {
"24 24 33 1",
" 	c None",
".	c #2E3436",
"+	c #BABDB6",
"@	c #555753",
"#	c #5A5C58",
"$	c #696B66",
"%	c #777974",
"&	c #9A8E06",
"*	c #FCFAE9",
"=	c #7F7505",
"-	c #F4EFB6",
";	c #F0E897",
">	c #FAF7DB",
",	c #EADF6D",
"'	c #F8F4CC",
")	c #E2D54A",
"!	c #EBE280",
"~	c #585A56",
"{	c #575955",
"]	c #DACB2E",
"^	c #E5DA6C",
"/	c #646661",
"(	c #636561",
"_	c #E9E28D",
":	c #D3C318",
"<	c #E0D55D",
"[	c #70726D",
"}	c #6F716D",
"|	c #EDE699",
"1	c #E4D964",
"2	c #7C7E79",
"3	c #7B7D79",
"4	c #7B7D78",
"                        ",
"                        ",
"              ..        ",
"              .+.       ",
"              .@...     ",
"              .++@@.    ",
"              .#..#+.   ",
"              .+..$$.   ",
"              .+++%.    ",
"              .....     ",
"                        ",
"                        ",
"              .....     ",
"    &&&       .+++.     ",
"   &***=      .@@@+.    ",
"  &&-;;>=    .+@@@@.    ",
" &,''',,'=   .@@..@..   ",
" &)))))))!= ..~{..{{.   ",
" &]^^^]]^=  .+//++((.   ",
"  &&_::<=   .[[[[}}}+.  ",
"   =|11=   .+22....34.  ",
"    ===    ....   ....  ",
"                        ",
"                        "};
