/* XPM */
static char * sort_ascending_xpm[] = {
"24 24 33 1",
" 	c None",
".	c #4B9506",
"+	c #4E9A06",
"@	c #2E3436",
"#	c #478E05",
"$	c #A9E56E",
"%	c #B6EB81",
"&	c #E2F8CD",
"*	c #555753",
"=	c #BABDB6",
"-	c #646662",
";	c #646661",
">	c #636561",
",	c #757773",
"'	c #757772",
")	c #747672",
"!	c #565854",
"~	c #448705",
"{	c #408005",
"]	c #C5EE9C",
"^	c #B7E887",
"/	c #D6F4B8",
"(	c #E7F9D6",
"_	c #7CD821",
":	c #74D217",
"<	c #C5F09A",
"[	c #DDF6C4",
"}	c #84DA30",
"|	c #97E34C",
"1	c #ACEA70",
"2	c #6F716D",
"3	c #777975",
"4	c #777974",
"                        ",
"                        ",
"     ..+       @@@      ",
"    #$%&+     @**@      ",
"    #$%&+     @*@*@     ",
"    #$%&+    @=@@*@     ",
"    #$%&+    @-;=>@     ",
"    #$%&+   @=,@@')@    ",
"    #$%&+   @@@  @@@    ",
"    #$%&+               ",
"    #$%&+               ",
"    #$%&+               ",
"    #$%&+               ",
"    #$%&+    @@@@@@     ",
"    #$%&+    @====@     ",
"    #$%&+     @@!=@     ",
"   ~#$%&++     @!!@     ",
"  {]^$%&/(+    @!@      ",
"  {_:$%&<[+   @!@       ",
"   ~:}|1<+   @=2@@@     ",
"    #}|1+    @3334@     ",
"     .%+     @@@@@@     ",
"      +                 ",
"                        "};
