/* XPM */
static char * spell_xpm[] = {
"24 24 9 1",
" 	c None",
".	c #2E3436",
"+	c #BABDB6",
"@	c #555753",
"#	c #585A56",
"$	c #676964",
"%	c #757773",
"&	c #4E9A06",
"*	c #8AE234",
"                        ",
"                        ",
"                        ",
"                        ",
"                        ",
"      ..   .            ",
"     .++. .+.           ",
"     .@@...@...  ...    ",
"    .+@.@..++@@..+++.   ",
"    .#..#..#..#.+#..    ",
"   .+++++..$..$.$$..    ",
"   .%%..%%++++%..%++.   ",
"   ...  .......  ...    ",
"   && && && && && &&    ",
"  &**&**&**&**&**&**&&  ",
" &*&&*&&*&&*&&*&&*&&**& ",
"  &  &  &  &  &  &  &&  ",
"                        ",
"                        ",
"                        ",
"                        ",
"                        ",
"                        ",
"                        "};
