/* XPM */
static char * undo_xpm[] = {
"24 24 45 1",
" 	c None",
".	c #C4A000",
"+	c #FFFFFF",
"@	c #FEF6B5",
"#	c #FFFBDA",
"$	c #FDF299",
"%	c #FEF9CC",
"&	c #FDEF7E",
"*	c #FEF7BF",
"=	c #FCEB62",
"-	c #FAE749",
";	c #BF9C00",
">	c #FAF09A",
",	c #F5E034",
"'	c #BB9900",
")	c #F7EC90",
"!	c #EFD920",
"~	c #FEFDF1",
"{	c #B79500",
"]	c #F4E985",
"^	c #E9D20B",
"/	c #F7EFA7",
"(	c #F7F0AA",
"_	c #B29100",
":	c #F3E780",
"<	c #E7CF00",
"[	c #FBF8D9",
"}	c #FEFDF6",
"|	c #AE8E00",
"1	c #F4E880",
"2	c #E8D000",
"3	c #FEFCF0",
"4	c #AA8A00",
"5	c #F5E880",
"6	c #FAF3BB",
"7	c #EAD100",
"8	c #F6EB8F",
"9	c #A58700",
"0	c #EBD200",
"a	c #F5E980",
"b	c #A18300",
"c	c #EDD400",
"d	c #F6EA80",
"e	c #9D8000",
"f	c #9C7F00",
"                        ",
"                        ",
"                        ",
"       ...              ",
"      .+++.             ",
"     .+@@#.             ",
"    .+$$$%.             ",
"   .+&&&*..........     ",
"  .+===++++++++++++.    ",
" .+----------------+.   ",
" ;>,,,,,,,,,,,,,,,,,+;  ",
"  ')!!!)))))))))))!!!~' ",
"   {]^^^/{{{{{{{{{(^^^{ ",
"    _:<<<[_       _}<<_ ",
"     |1223|  44444+222| ",
"      45564 4++++++7784 ",
"       999 9+00000000a4 ",
"           bccccccccdb  ",
"           edddddddee   ",
"            fffffff     ",
"                        ",
"                        ",
"                        ",
"                        "};
