/* XPM */
static char * up_arrow_xpm[] = {
"24 24 53 1",
" 	c None",
".	c #4E9A06",
"+	c #DBF5C1",
"@	c #4D9806",
"#	c #DEF7C5",
"$	c #B0E978",
"%	c #4B9506",
"&	c #E2F8CC",
"*	c #97E34D",
"=	c #8EDF3F",
"-	c #AAE66F",
";	c #4A9206",
">	c #E6F9D3",
",	c #A0E75A",
"'	c #86DB32",
")	c #A4E366",
"!	c #488E05",
"~	c #EAFADA",
"{	c #ABEA6E",
"]	c #7DD725",
"^	c #9DE05D",
"/	c #468B05",
"(	c #EEFBE1",
"_	c #B7ED82",
":	c #74D318",
"<	c #9FE15E",
"[	c #458805",
"}	c #F2FCE8",
"|	c #C2F096",
"1	c #76D41A",
"2	c #A2E362",
"3	c #438505",
"4	c #F6FDEF",
"5	c #CDF3A9",
"6	c #7AD71F",
"7	c #A4E565",
"8	c #418105",
"9	c #D9F5BD",
"0	c #ABE571",
"a	c #7EDA24",
"b	c #A7E669",
"c	c #3F7E05",
"d	c #CCF2A7",
"e	c #B4E783",
"f	c #E4F8D1",
"g	c #DCF7C3",
"h	c #D4F4B5",
"i	c #C5ED9D",
"j	c #CCF0A8",
"k	c #BEEC91",
"l	c #C4F099",
"m	c #BCEE8B",
"n	c #B6EB82",
"                        ",
"                        ",
"           .            ",
"          .+@           ",
"         .#+$%          ",
"        .&#*=-;         ",
"       .>&,*=')!        ",
"      .~>{,*=']^/       ",
"     .(~_{,*=']:<[      ",
"    .}(|_{,*=']:123     ",
"   .4}5|_{,*=-]:1678    ",
"   .495|_&,*=-0:16abc   ",
"   .495|d&,*=-0e16abc   ",
"    .fghd&,*=-)eijk8    ",
"     ....&,*=-;!/33     ",
"        .&,*=-;         ",
"        .&,*=-;         ",
"        .&,*=-;         ",
"        .&,*=-;         ",
"        .l,*=-;         ",
"         .mn$;          ",
"          ..@           ",
"                        ",
"                        "};
