/* XPM */
static char * up_node_xpm[] = {
"24 24 80 1",
" 	c None",
".	c #C2C6BE",
"+	c #C1C5BE",
"@	c #C1C5BD",
"#	c #C0C4BC",
"$	c #BFC3BC",
"%	c #BEC2BA",
"&	c #BDC1BA",
"*	c #BDC1B9",
"=	c #BBBFB8",
"-	c #BBBEB6",
";	c #FFFFFF",
">	c #AEB1A9",
",	c #B9BCB4",
"'	c #AAADA5",
")	c #B5B8B0",
"!	c #CCCCCC",
"~	c #A6A9A1",
"{	c #B1B4AD",
"]	c #A2A49E",
"^	c #ADB0A8",
"/	c #9EA09A",
"(	c #A9ABA5",
"_	c #999C96",
":	c #A5A7A2",
"<	c #959792",
"[	c #A1A39E",
"}	c #92938F",
"|	c #9D9F9A",
"1	c #4E9A06",
"2	c #8E908B",
"3	c #999B96",
"4	c #E2F8CD",
"5	c #9BE553",
"6	c #8EDF3F",
"7	c #4A9306",
"8	c #8A8C87",
"9	c #E8FAD8",
"0	c #ACEA70",
"a	c #80D82A",
"b	c #488E05",
"c	c #868983",
"d	c #EFFBE2",
"e	c #BEEF8F",
"f	c #73D216",
"g	c #458905",
"h	c #838580",
"i	c #F5FDED",
"j	c #D0F3AD",
"k	c #79D61E",
"l	c #428405",
"m	c #7F817C",
"n	c #E2F8CC",
"o	c #A7E46B",
"p	c #7FDA26",
"q	c #407F05",
"r	c #7B7D78",
"s	c #868883",
"t	c #DEF7C5",
"u	c #D1F4B0",
"v	c #A6E469",
"w	c #B7E786",
"x	c #CFF0AE",
"y	c #BBEB8B",
"z	c #777974",
"A	c #82847F",
"B	c #747571",
"C	c #7E807B",
"D	c #6F716C",
"E	c #767873",
"F	c #757772",
"G	c #737570",
"H	c #72746F",
"I	c #6D6F6A",
"J	c #6C6E69",
"K	c #6B6D68",
"L	c #6A6C67",
"M	c #696B66",
"N	c #686A65",
"O	c #C5F09B",
"                        ",
"                        ",
"    .....++@#$$%%&*=    ",
"   -;;;;;;;;;;;;;;;;>   ",
"   ,;;;;;;;;;;;;;;;;'   ",
"   );;!!!!!!!!!!!!;;~   ",
"   {;;;;;;;;;;;;;;;;]   ",
"   ^;;!!!!!!!!!!!!;;/   ",
"   (;;;;;;;;;;;;;;;;_   ",
"   :;;;;;;;;;;;;;;;;<   ",
"   [;;!!!!!!!!!!!!;;}   ",
"   |;;;;;;111;;;;;;;2   ",
"   3;;!!!14567!!!!;;8   ",
"   <;;;;19056ab;;;;;c   ",
"   };;!1de056afg!!;;h   ",
"   2;;1ije056afkl;;;m   ",
"   8;1nnje456ofkpq;;r   ",
"   s;1iitu456vwxyq;;z   ",
"   A;;11114567bgl;;;B   ",
"   C;;;;;14567;;;;;;D   ",
"    EFFGH14567IJKLMN    ",
"         1O567          ",
"          111           ",
"                        "};
