/* XPM */
static char * zoom_in_xpm[] = {
"24 24 103 2",
"  	c None",
". 	c #8A8A8A",
"+ 	c #FFFFFF",
"@ 	c #DCDCDC",
"# 	c #3063A3",
"$ 	c #71A0CF",
"% 	c #E6EFF6",
"& 	c #E4ECF6",
"* 	c #DCE7F4",
"= 	c #D3E1F0",
"- 	c #DFE9F4",
"; 	c #ECF2F9",
"> 	c #527CB2",
", 	c #3465A4",
"' 	c #D6E2F1",
") 	c #CCDDEE",
"! 	c #C1D6EA",
"~ 	c #F4F4F4",
"{ 	c #DBE7F3",
"] 	c #E1EBF5",
"^ 	c #E5EDF6",
"/ 	c #D6E3F2",
"( 	c #CDDDEE",
"_ 	c #729FCF",
": 	c #FAFAFA",
"< 	c #EDEDED",
"[ 	c #CEDEEF",
"} 	c #D4E2F0",
"| 	c #DCE6F2",
"1 	c #DFE8F4",
"2 	c #517AB0",
"3 	c #D5E3F1",
"4 	c #CCDCEE",
"5 	c #729ECF",
"6 	c #E6E6E6",
"7 	c #C4D7EB",
"8 	c #6B90BE",
"9 	c #688EBD",
"0 	c #668BBB",
"a 	c #6288BA",
"b 	c #5E85B7",
"c 	c #5982B5",
"d 	c #3D6CA9",
"e 	c #E9E9E9",
"f 	c #BFD3EA",
"g 	c #7395C1",
"h 	c #3566A4",
"i 	c #3566A5",
"j 	c #3768A7",
"k 	c #396AA8",
"l 	c #3B6CAA",
"m 	c #527DB4",
"n 	c #739FCF",
"o 	c #F0F0F0",
"p 	c #BCD1E9",
"q 	c #C6D7EC",
"r 	c #CBDBEC",
"s 	c #224D8A",
"t 	c #395F95",
"u 	c #729ECD",
"v 	c #739FD0",
"w 	c #719ECF",
"x 	c #739ECD",
"y 	c #729FCE",
"z 	c #204A87",
"A 	c #345A92",
"B 	c #739ED0",
"C 	c #73A0CF",
"D 	c #719FCF",
"E 	c #71A0CE",
"F 	c #F1F1F1",
"G 	c #7C7C7C",
"H 	c #FEFEFE",
"I 	c #729FD0",
"J 	c #739ECE",
"K 	c #729ECE",
"L 	c #71A0D1",
"M 	c #73A0D0",
"N 	c #6B6B6B",
"O 	c #5B5B5B",
"P 	c #EBEBEB",
"Q 	c #C0C0C0",
"R 	c #ABABAB",
"S 	c #484848",
"T 	c #BFBFBF",
"U 	c #AAAAAA",
"V 	c #959595",
"W 	c #ADADAD",
"X 	c #4A4A4A",
"Y 	c #BEBEBE",
"Z 	c #A7A7A7",
"` 	c #999999",
" .	c #AFAFAF",
"..	c #BCBCBC",
"+.	c #A4A4A4",
"@.	c #9D9D9D",
"#.	c #B2B2B2",
"$.	c #BABABA",
"%.	c #A1A1A1",
"&.	c #7B7B7B",
"*.	c #B8B8B8",
"=.	c #9E9E9E",
"-.	c #B7B7B7",
"                                                ",
"            . . . . . . .                       ",
"        . . + @ @ @ @ + + .                     ",
"      . + @ # # # # # # @ + .                   ",
"    . @ @ # $ % & * = $ # @ + .                 ",
"    . @ # - % ; > , ' ) ! # @ + .               ",
"  . ~ # $ { ] ^ , > / ( _ $ # : .               ",
"  . < # [ } | 1 , 2 3 4 _ 5 # @ @ .             ",
"  . 6 # 7 8 8 9 0 a b c d _ # @ @ .             ",
"  . e # f g h h i j k l m n # @ @ .             ",
"  . o # _ p q r s t u v _ 5 # @ @ .             ",
"  . @ # w n x y z A B C D E # F G               ",
"    . H # I n v z z J I 5 # @ @ G               ",
"    . @ + # 5 D K L M _ # @ + N O               ",
"      . @ + # # # # # # @ @ P Q R S             ",
"        . . @ + + + + + @ G T U V W S           ",
"            . . . . . G G   X Y Z `  .S         ",
"                              S ..+.@.#.S       ",
"                                S $.%.%.&.S     ",
"                                  S *.=.@ @ S   ",
"                                    S -.P P S   ",
"                                      S S S     ",
"                                                ",
"                                                "};
