/* XPM */
static char * zoom_out_xpm[] = {
"24 24 116 2",
"  	c None",
". 	c #8A8A8A",
"+ 	c #FFFFFF",
"@ 	c #DCDCDC",
"# 	c #3063A3",
"$ 	c #71A0CF",
"% 	c #E6EFF6",
"& 	c #E4ECF6",
"* 	c #DCE7F4",
"= 	c #D3E1F0",
"- 	c #DFE9F4",
"; 	c #ECF2F9",
"> 	c #E5EEF6",
", 	c #D6E2F1",
"' 	c #CCDDEE",
") 	c #C1D6EA",
"! 	c #F4F4F4",
"~ 	c #DBE7F3",
"{ 	c #E1EBF5",
"] 	c #E5EDF6",
"^ 	c #DEE9F4",
"/ 	c #D6E3F2",
"( 	c #CDDDEE",
"_ 	c #729FCF",
": 	c #FAFAFA",
"< 	c #EDEDED",
"[ 	c #CEDEEF",
"} 	c #D4E2F0",
"| 	c #DCE6F2",
"1 	c #DFE8F4",
"2 	c #DBE6F3",
"3 	c #D5E3F1",
"4 	c #CCDCEE",
"5 	c #729ECF",
"6 	c #7C7C7C",
"7 	c #E6E6E6",
"8 	c #C4D7EB",
"9 	c #CEDEEE",
"0 	c #6C90BE",
"a 	c #688EBD",
"b 	c #668BBB",
"c 	c #6288BA",
"d 	c #5E86B8",
"e 	c #5A82B5",
"f 	c #295593",
"g 	c #E9E9E9",
"h 	c #BFD3EA",
"i 	c #C7D9EB",
"j 	c #7395C1",
"k 	c #3566A4",
"l 	c #3566A5",
"m 	c #3768A7",
"n 	c #396AA8",
"o 	c #3B6CA9",
"p 	c #517DB4",
"q 	c #739FCF",
"r 	c #729FCE",
"s 	c #F0F0F0",
"t 	c #BACFE6",
"u 	c #BDCFE3",
"v 	c #C2D1E0",
"w 	c #C5D3E1",
"x 	c #658AB5",
"y 	c #678CB7",
"z 	c #6B92C1",
"A 	c #6D99C5",
"B 	c #719ECF",
"C 	c #6F99C8",
"D 	c #668DB8",
"E 	c #6187AF",
"F 	c #5E80A7",
"G 	c #577AA1",
"H 	c #5C7EA6",
"I 	c #6086AE",
"J 	c #6690BB",
"K 	c #709CCB",
"L 	c #F1F1F1",
"M 	c #FEFEFE",
"N 	c #719CCD",
"O 	c #6E99C6",
"P 	c #6D95C4",
"Q 	c #6B91C0",
"R 	c #6A95BC",
"S 	c #6A92BD",
"T 	c #6C96C3",
"U 	c #6E99C9",
"V 	c #3063A2",
"W 	c #719FCF",
"X 	c #729ECE",
"Y 	c #71A0D1",
"Z 	c #73A0D0",
"` 	c #6B6B6B",
" .	c #5B5B5B",
"..	c #EBEBEB",
"+.	c #C0C0C0",
"@.	c #ABABAB",
"#.	c #484848",
"$.	c #BFBFBF",
"%.	c #AAAAAA",
"&.	c #959595",
"*.	c #ADADAD",
"=.	c #4A4A4A",
"-.	c #BEBEBE",
";.	c #A7A7A7",
">.	c #999999",
",.	c #AFAFAF",
"'.	c #BCBCBC",
").	c #A4A4A4",
"!.	c #9D9D9D",
"~.	c #B2B2B2",
"{.	c #BABABA",
"].	c #A1A1A1",
"^.	c #7B7B7B",
"/.	c #B8B8B8",
"(.	c #9E9E9E",
"_.	c #B7B7B7",
"                                                ",
"            . . . . . . .                       ",
"        . . + @ @ @ @ + + .                     ",
"      . + @ # # $ $ $ # @ + .                   ",
"    . @ @ # $ % & * = $ $ @ + .                 ",
"    . @ # - % ; > - , ' ) $ @ + .               ",
"  . ! @ $ ~ { ] & ^ / ( _ $ # : .               ",
"  . < # [ } | 1 ^ 2 3 4 _ 5 $ @ @ 6             ",
"  . 7 # 8 9 0 a b c d e f _ _ @ @ 6             ",
"  . g # h i j k l m n o p q r @ @ 6             ",
"  . s # _ t u v w x y z A 5 r @ @ 6             ",
"  . @ @ B C D E F G H I J K # L 6               ",
"    . M # N O P Q R S T U V @ @ 6               ",
"      . + # 5 W X Y Z _ # @ + `  .              ",
"        . + @ # # # # # @ @ ..+.@.#.            ",
"          . . + + + + + 6 6 $.%.&.*.#.          ",
"              . . . . 6     =.-.;.>.,.#.        ",
"                              #.'.).!.~.#.      ",
"                                #.{.].].^.#.    ",
"                                  #./.(.@ @ #.  ",
"                                    #._.....#.  ",
"                                      #.#.#.    ",
"                                                ",
"                                                "};
