<?xml version="1.0" encoding="UTF-8" standalone="no"?>
<svg
   width="100%"
   height="100%"
   viewBox="0 0 64 64"
   version="1.1"
   xml:space="preserve"
   style="fill-rule:evenodd;clip-rule:evenodd;stroke-linecap:round;stroke-linejoin:round;"
   id="svg12"
   sodipodi:docname="close.svg"
   inkscape:version="1.3.2 (091e20e, 2023-11-25, custom)"
   inkscape:export-filename="close.png"
   inkscape:export-xdpi="96"
   inkscape:export-ydpi="96"
   xmlns:inkscape="http://www.inkscape.org/namespaces/inkscape"
   xmlns:sodipodi="http://sodipodi.sourceforge.net/DTD/sodipodi-0.dtd"
   xmlns="http://www.w3.org/2000/svg"
   xmlns:svg="http://www.w3.org/2000/svg"><sodipodi:namedview
   id="namedview12"
   pagecolor="#505050"
   bordercolor="#ffffff"
   borderopacity="1"
   inkscape:showpageshadow="0"
   inkscape:pageopacity="0"
   inkscape:pagecheckerboard="1"
   inkscape:deskcolor="#505050"
   inkscape:zoom="4.4967572"
   inkscape:cx="28.576148"
   inkscape:cy="39.917655"
   inkscape:window-width="1203"
   inkscape:window-height="697"
   inkscape:window-x="69"
   inkscape:window-y="-8"
   inkscape:window-maximized="1"
   inkscape:current-layer="g3807" />
    <g
   id="g32"
   transform="matrix(0.445177,0,0,0.445177,0,9.37446)">
        <g
   id="g2423"
   style="display:inline">
            <path
   id="path60"
   d="m 143.763,90.302 c 0,7.082 -32.183,12.824 -71.882,12.824 C 32.182,103.126 0,97.384 0,90.302 0,83.22 32.182,77.478 71.881,77.478 c 39.699,0 71.882,5.742 71.882,12.824 z"
   style="fill:url(#_Radial1);fill-rule:nonzero" />
            <path
   id="path62"
   d="m 65.384,94.888 c 0,7.544 -13.09,13.661 -29.238,13.661 -16.147,0 -29.238,-6.117 -29.238,-13.661 0,-7.545 13.091,-13.662 29.238,-13.662 16.148,0 29.238,6.117 29.238,13.662 z"
   style="fill:url(#_Radial2);fill-rule:nonzero" />
            <path
   id="path64"
   d="m 133.606,94.888 c 0,7.544 -13.091,13.661 -29.238,13.661 -16.148,0 -29.238,-6.117 -29.238,-13.661 0,-7.545 13.09,-13.662 29.238,-13.662 16.147,0 29.238,6.117 29.238,13.662 z"
   style="display:inline;fill:url(#_Radial3);fill-rule:nonzero" />
        </g>
        <g
   id="g3807">
            <g
   id="g3706"
   style="display:inline">
                <path
   id="path4262"
   d="M 36.158,2.087 C 31.228,2.049 26.721,5.06 24.854,9.622 22.988,14.185 24.137,19.381 27.68,22.81 L 54.808,49.938 27.68,77.066 c -4.734,4.734 -4.734,12.409 0,17.143 4.734,4.734 12.409,4.734 17.143,0 L 71.952,67.081 99.08,94.209 c 3.042,3.13 7.463,4.328 11.68,3.203 4.217,-1.125 7.587,-4.437 8.666,-8.666 1.079,-4.229 -0.229,-8.673 -3.391,-11.68 L 88.907,49.938 116.035,22.81 c 3.569,-3.452 4.741,-8.795 2.826,-13.376 C 116.945,4.853 112.333,1.97 107.369,2.087 104.22,2.211 101.244,3.564 99.08,5.855 L 71.952,32.983 44.823,5.855 C 42.568,3.472 39.439,2.111 36.158,2.087 Z"
   style="display:inline;fill:url(#_Radial4);fill-rule:nonzero;stroke:#572323;stroke-width:4.17px;stroke-opacity:1" />
            </g>
            <path
   id="path5143"
   d="m 36.249,6.252 c -3.186,-0.024 -6.213,1.992 -7.422,4.948 -1.208,2.954 -0.54,6.307 1.823,8.594 0.043,-0.001 0.087,-0.001 0.13,0 l 27.084,27.214 c 0.799,0.79 1.25,1.87 1.25,2.994 0,1.125 -0.451,2.204 -1.25,2.995 L 30.78,80.081 c -3.115,3.115 -3.115,8.082 0,11.197 3.116,3.116 8.083,3.116 11.198,0 L 69.062,64.065 c 0.79,-0.8 1.87,-1.25 2.994,-1.25 1.125,0 2.204,0.45 2.995,1.25 l 27.083,27.213 c 1.959,2.015 4.854,2.839 7.683,2.084 2.8,-0.747 4.901,-2.863 5.599,-5.599 0.702,-2.752 -0.147,-5.717 -2.214,-7.682 h -0.13 L 85.989,52.997 c -0.8,-0.791 -1.251,-1.87 -1.251,-2.995 0,-1.124 0.451,-2.204 1.251,-2.994 l 27.083,-27.214 c 0.043,-0.001 0.087,-0.001 0.13,0 2.34,-2.263 3.042,-5.938 1.823,-8.854 -1.232,-2.947 -4.116,-4.765 -7.422,-4.688 -2.045,0.081 -3.945,1 -5.338,2.474 -0.043,0.045 -0.086,0.088 -0.131,0.131 L 75.051,35.94 c -0.791,0.8 -1.87,1.25 -2.995,1.25 -1.124,0 -2.204,-0.45 -2.994,-1.25 L 41.978,8.857 C 41.977,8.813 41.977,8.77 41.978,8.726 40.53,7.197 38.379,6.268 36.249,6.252 Z"
   style="display:inline;fill:none;fill-rule:nonzero;stroke:url(#_Linear5);stroke-width:4.17px" />
            <path
   id="path3797"
   d="m 57.664,50 c 17.678,-5.156 13.142,0.552 28.799,0.552 L 115.261,79.351 99.331,91.667 72.252,64.349 45.164,90.746 31.004,76.87 Z"
   style="display:inline;fill:url(#_Radial6)" />
        </g>
    </g>
    <defs
   id="defs12">
        <radialGradient
   id="_Radial1"
   cx="0"
   cy="0"
   r="1"
   gradientUnits="userSpaceOnUse"
   gradientTransform="matrix(71.8814,0,0,12.8239,71.8814,90.302)"><stop
     offset="0"
     style="stop-color:black;stop-opacity:0.09"
     id="stop1" /><stop
     offset="1"
     style="stop-color:black;stop-opacity:0"
     id="stop2" /></radialGradient>
        <radialGradient
   id="_Radial2"
   cx="0"
   cy="0"
   r="1"
   gradientUnits="userSpaceOnUse"
   gradientTransform="matrix(27.8429,0,0,13.0094,36.1462,94.8876)"><stop
     offset="0"
     style="stop-color:black;stop-opacity:0.2"
     id="stop3" /><stop
     offset="1"
     style="stop-color:black;stop-opacity:0"
     id="stop4" /></radialGradient>
        <radialGradient
   id="_Radial3"
   cx="0"
   cy="0"
   r="1"
   gradientUnits="userSpaceOnUse"
   gradientTransform="matrix(28.1938,0,0,13.1734,104.368,94.8876)"><stop
     offset="0"
     style="stop-color:black;stop-opacity:0.2"
     id="stop5" /><stop
     offset="1"
     style="stop-color:black;stop-opacity:0"
     id="stop6" /></radialGradient>
        <radialGradient
   id="_Radial4"
   cx="0"
   cy="0"
   r="1"
   gradientUnits="userSpaceOnUse"
   gradientTransform="matrix(51.1243,0,0,51.0811,71.8832,39.1228)"><stop
     offset="0"
     style="stop-color:#9e5151;stop-opacity:1;"
     id="stop7" /><stop
     offset="1"
     style="stop-color:#883a3a;stop-opacity:1;"
     id="stop8" /></radialGradient>
        <linearGradient
   id="_Linear5"
   x1="0"
   y1="0"
   x2="1"
   y2="0"
   gradientUnits="userSpaceOnUse"
   gradientTransform="matrix(4.78874e-15,78.2061,-78.2061,4.78874e-15,61.4661,57.1025)"><stop
     offset="0"
     style="stop-color:#ff9292;stop-opacity:0.36000001;"
     id="stop9" /><stop
     offset="1"
     style="stop-color:white;stop-opacity:0"
     id="stop10" /></linearGradient>
        <radialGradient
   id="_Radial6"
   cx="0"
   cy="0"
   r="1"
   gradientUnits="userSpaceOnUse"
   gradientTransform="matrix(48.7611,0,0,24.5456,68.0898,49.2378)"><stop
     offset="0"
     style="stop-color:#575353;stop-opacity:0.30000001;"
     id="stop11" /><stop
     offset="1"
     style="stop-color:#572e2e;stop-opacity:0;"
     id="stop12" /></radialGradient>
    </defs>
</svg>
